G75*
G70*
%OFA0B0*%
%FSLAX24Y24*%
%IPPOS*%
%LPD*%
%AMOC8*
5,1,8,0,0,1.08239X$1,22.5*
%
%ADD10C,0.0100*%
%ADD11C,0.0040*%
%ADD12C,0.0000*%
%ADD13C,0.0060*%
%ADD14C,0.0080*%
%ADD15C,0.0118*%
%ADD16R,0.0240X0.0620*%
%ADD17C,0.0050*%
%ADD18C,0.0010*%
D10*
X000151Y002120D02*
X000151Y019443D01*
X000153Y019537D01*
X000160Y019630D01*
X000171Y019723D01*
X000187Y019816D01*
X000207Y019907D01*
X000231Y019998D01*
X000259Y020087D01*
X000292Y020175D01*
X000329Y020261D01*
X000370Y020345D01*
X000415Y020428D01*
X000464Y020508D01*
X000516Y020585D01*
X000572Y020660D01*
X000632Y020732D01*
X000695Y020802D01*
X000761Y020868D01*
X000831Y020931D01*
X000903Y020991D01*
X000978Y021047D01*
X001055Y021099D01*
X001135Y021148D01*
X001218Y021193D01*
X001302Y021234D01*
X001388Y021271D01*
X001476Y021304D01*
X001565Y021332D01*
X001656Y021356D01*
X001747Y021376D01*
X001840Y021392D01*
X001933Y021403D01*
X002026Y021410D01*
X002120Y021412D01*
X002120Y021411D02*
X019443Y021411D01*
X019443Y021412D02*
X019537Y021410D01*
X019630Y021403D01*
X019723Y021392D01*
X019816Y021376D01*
X019907Y021356D01*
X019998Y021332D01*
X020087Y021304D01*
X020175Y021271D01*
X020261Y021234D01*
X020345Y021193D01*
X020427Y021148D01*
X020508Y021099D01*
X020585Y021047D01*
X020660Y020991D01*
X020732Y020931D01*
X020802Y020868D01*
X020868Y020802D01*
X020931Y020732D01*
X020991Y020660D01*
X021047Y020585D01*
X021099Y020508D01*
X021148Y020427D01*
X021193Y020345D01*
X021234Y020261D01*
X021271Y020175D01*
X021304Y020087D01*
X021332Y019998D01*
X021356Y019907D01*
X021376Y019816D01*
X021392Y019723D01*
X021403Y019630D01*
X021410Y019537D01*
X021412Y019443D01*
X021411Y019443D02*
X021411Y002120D01*
X021412Y002120D02*
X021410Y002026D01*
X021403Y001933D01*
X021392Y001840D01*
X021376Y001747D01*
X021356Y001656D01*
X021332Y001565D01*
X021304Y001476D01*
X021271Y001388D01*
X021234Y001302D01*
X021193Y001218D01*
X021148Y001136D01*
X021099Y001055D01*
X021047Y000978D01*
X020991Y000903D01*
X020931Y000831D01*
X020868Y000761D01*
X020802Y000695D01*
X020732Y000632D01*
X020660Y000572D01*
X020585Y000516D01*
X020508Y000464D01*
X020428Y000415D01*
X020345Y000370D01*
X020261Y000329D01*
X020175Y000292D01*
X020087Y000259D01*
X019998Y000231D01*
X019907Y000207D01*
X019816Y000187D01*
X019723Y000171D01*
X019630Y000160D01*
X019537Y000153D01*
X019443Y000151D01*
X002120Y000151D01*
X002026Y000153D01*
X001933Y000160D01*
X001840Y000171D01*
X001747Y000187D01*
X001656Y000207D01*
X001565Y000231D01*
X001476Y000259D01*
X001388Y000292D01*
X001302Y000329D01*
X001218Y000370D01*
X001135Y000415D01*
X001055Y000464D01*
X000978Y000516D01*
X000903Y000572D01*
X000831Y000632D01*
X000761Y000695D01*
X000695Y000761D01*
X000632Y000831D01*
X000572Y000903D01*
X000516Y000978D01*
X000464Y001055D01*
X000415Y001136D01*
X000370Y001218D01*
X000329Y001302D01*
X000292Y001388D01*
X000259Y001476D01*
X000231Y001565D01*
X000207Y001656D01*
X000187Y001747D01*
X000171Y001840D01*
X000160Y001933D01*
X000153Y002026D01*
X000151Y002120D01*
X003366Y004425D02*
X003368Y004456D01*
X003374Y004487D01*
X003384Y004517D01*
X003397Y004545D01*
X003414Y004572D01*
X003434Y004596D01*
X003457Y004618D01*
X003482Y004636D01*
X003510Y004651D01*
X003539Y004663D01*
X003569Y004671D01*
X003600Y004675D01*
X003632Y004675D01*
X003663Y004671D01*
X003693Y004663D01*
X003722Y004651D01*
X003750Y004636D01*
X003775Y004618D01*
X003798Y004596D01*
X003818Y004572D01*
X003835Y004545D01*
X003848Y004517D01*
X003858Y004487D01*
X003864Y004456D01*
X003866Y004425D01*
X003864Y004394D01*
X003858Y004363D01*
X003848Y004333D01*
X003835Y004305D01*
X003818Y004278D01*
X003798Y004254D01*
X003775Y004232D01*
X003750Y004214D01*
X003722Y004199D01*
X003693Y004187D01*
X003663Y004179D01*
X003632Y004175D01*
X003600Y004175D01*
X003569Y004179D01*
X003539Y004187D01*
X003510Y004199D01*
X003482Y004214D01*
X003457Y004232D01*
X003434Y004254D01*
X003414Y004278D01*
X003397Y004305D01*
X003384Y004333D01*
X003374Y004363D01*
X003368Y004394D01*
X003366Y004425D01*
X014147Y005250D02*
X014149Y005277D01*
X014155Y005304D01*
X014164Y005330D01*
X014177Y005354D01*
X014193Y005377D01*
X014212Y005396D01*
X014234Y005413D01*
X014258Y005427D01*
X014283Y005437D01*
X014310Y005444D01*
X014337Y005447D01*
X014365Y005446D01*
X014392Y005441D01*
X014418Y005433D01*
X014442Y005421D01*
X014465Y005405D01*
X014486Y005387D01*
X014503Y005366D01*
X014518Y005342D01*
X014529Y005317D01*
X014537Y005291D01*
X014541Y005264D01*
X014541Y005236D01*
X014537Y005209D01*
X014529Y005183D01*
X014518Y005158D01*
X014503Y005134D01*
X014486Y005113D01*
X014465Y005095D01*
X014443Y005079D01*
X014418Y005067D01*
X014392Y005059D01*
X014365Y005054D01*
X014337Y005053D01*
X014310Y005056D01*
X014283Y005063D01*
X014258Y005073D01*
X014234Y005087D01*
X014212Y005104D01*
X014193Y005123D01*
X014177Y005146D01*
X014164Y005170D01*
X014155Y005196D01*
X014149Y005223D01*
X014147Y005250D01*
X014607Y016293D02*
X014609Y016313D01*
X014614Y016333D01*
X014624Y016351D01*
X014636Y016368D01*
X014651Y016382D01*
X014669Y016392D01*
X014688Y016400D01*
X014708Y016404D01*
X014728Y016404D01*
X014748Y016400D01*
X014767Y016392D01*
X014785Y016382D01*
X014800Y016368D01*
X014812Y016351D01*
X014822Y016333D01*
X014827Y016313D01*
X014829Y016293D01*
X014827Y016273D01*
X014822Y016253D01*
X014812Y016235D01*
X014800Y016218D01*
X014785Y016204D01*
X014767Y016194D01*
X014748Y016186D01*
X014728Y016182D01*
X014708Y016182D01*
X014688Y016186D01*
X014669Y016194D01*
X014651Y016204D01*
X014636Y016218D01*
X014624Y016235D01*
X014614Y016253D01*
X014609Y016273D01*
X014607Y016293D01*
D11*
X018438Y012649D02*
X018438Y012280D01*
X020519Y012280D01*
X020519Y012649D01*
X020518Y012650D02*
X020519Y012663D01*
X020524Y012676D01*
X020531Y012688D01*
X020541Y012698D01*
X020553Y012705D01*
X020566Y012710D01*
X020579Y012711D01*
X020580Y012710D02*
X020580Y012710D01*
X020595Y012708D01*
X020609Y012703D01*
X020621Y012696D01*
X020632Y012685D01*
X020639Y012673D01*
X020644Y012659D01*
X020646Y012644D01*
X020646Y012583D01*
X020648Y012566D01*
X020653Y012549D01*
X020661Y012534D01*
X020672Y012521D01*
X020685Y012510D01*
X020700Y012502D01*
X020717Y012497D01*
X020734Y012495D01*
X020745Y012495D01*
X020762Y012497D01*
X020779Y012502D01*
X020794Y012510D01*
X020807Y012521D01*
X020818Y012534D01*
X020826Y012549D01*
X020831Y012566D01*
X020833Y012583D01*
X020834Y012583D02*
X020834Y012649D01*
X020833Y012649D02*
X020835Y012663D01*
X020839Y012675D01*
X020846Y012687D01*
X020856Y012697D01*
X020868Y012704D01*
X020880Y012708D01*
X020894Y012710D01*
X020909Y012708D01*
X020923Y012703D01*
X020935Y012696D01*
X020946Y012685D01*
X020953Y012673D01*
X020958Y012659D01*
X020960Y012644D01*
X020960Y012302D01*
X020519Y012280D02*
X021943Y012280D01*
X021943Y009283D01*
X018438Y009283D01*
X018438Y009779D01*
X018439Y009779D02*
X018441Y009801D01*
X018446Y009823D01*
X018455Y009844D01*
X018466Y009863D01*
X018481Y009880D01*
X018498Y009895D01*
X018517Y009906D01*
X018538Y009915D01*
X018560Y009920D01*
X018582Y009922D01*
X018582Y009923D02*
X018791Y009923D01*
X018880Y009283D02*
X018880Y008913D01*
X018878Y008900D01*
X018874Y008887D01*
X018867Y008875D01*
X018857Y008865D01*
X018845Y008858D01*
X018832Y008853D01*
X018819Y008852D01*
X018819Y008852D01*
X018804Y008854D01*
X018790Y008859D01*
X018778Y008866D01*
X018767Y008877D01*
X018760Y008889D01*
X018755Y008903D01*
X018753Y008918D01*
X018753Y008979D01*
X018752Y008979D02*
X018750Y008996D01*
X018745Y009013D01*
X018737Y009028D01*
X018726Y009041D01*
X018713Y009052D01*
X018698Y009060D01*
X018681Y009065D01*
X018664Y009067D01*
X018653Y009067D01*
X018636Y009065D01*
X018619Y009060D01*
X018604Y009052D01*
X018591Y009041D01*
X018580Y009028D01*
X018572Y009013D01*
X018567Y008996D01*
X018565Y008979D01*
X018565Y008913D01*
X018563Y008899D01*
X018559Y008887D01*
X018552Y008875D01*
X018542Y008865D01*
X018530Y008858D01*
X018518Y008854D01*
X018504Y008852D01*
X018489Y008854D01*
X018475Y008859D01*
X018463Y008866D01*
X018452Y008877D01*
X018445Y008889D01*
X018440Y008903D01*
X018438Y008918D01*
X018438Y009288D01*
X019697Y010486D02*
X019697Y011065D01*
X019696Y011065D02*
X019698Y011088D01*
X019703Y011109D01*
X019712Y011130D01*
X019724Y011150D01*
X019738Y011167D01*
X019755Y011181D01*
X019775Y011193D01*
X019796Y011202D01*
X019817Y011207D01*
X019840Y011209D01*
X021413Y011292D01*
X021426Y011290D01*
X021439Y011284D01*
X021450Y011275D01*
X021458Y011264D01*
X021463Y011251D01*
X021465Y011237D01*
X021463Y011223D01*
X021458Y011210D01*
X021450Y011199D01*
X021439Y011190D01*
X021426Y011184D01*
X021413Y011182D01*
X021413Y011181D02*
X020215Y011126D01*
X020188Y011126D01*
X020188Y011127D02*
X020164Y011125D01*
X020141Y011120D01*
X020119Y011112D01*
X020098Y011101D01*
X020079Y011086D01*
X020063Y011070D01*
X020048Y011051D01*
X020037Y011030D01*
X020029Y011008D01*
X020024Y010985D01*
X020022Y010961D01*
X020022Y010613D01*
X020024Y010589D01*
X020029Y010565D01*
X020037Y010542D01*
X020049Y010521D01*
X020064Y010501D01*
X020081Y010484D01*
X020101Y010469D01*
X020122Y010457D01*
X020145Y010449D01*
X020169Y010444D01*
X020193Y010442D01*
X021419Y010376D01*
X021432Y010373D01*
X021445Y010367D01*
X021455Y010358D01*
X021463Y010347D01*
X021468Y010334D01*
X021469Y010320D01*
X021466Y010307D01*
X021460Y010294D01*
X021451Y010284D01*
X021440Y010276D01*
X021427Y010271D01*
X021413Y010270D01*
X021413Y010271D02*
X019829Y010353D01*
X019808Y010355D01*
X019788Y010360D01*
X019769Y010368D01*
X019751Y010378D01*
X019735Y010392D01*
X019721Y010408D01*
X019711Y010426D01*
X019703Y010445D01*
X019698Y010465D01*
X019696Y010486D01*
X019873Y010116D02*
X021319Y010050D01*
X021336Y010050D01*
X021358Y010048D01*
X021379Y010043D01*
X021399Y010035D01*
X021417Y010024D01*
X021434Y010010D01*
X021448Y009993D01*
X021459Y009975D01*
X021467Y009955D01*
X021472Y009934D01*
X021474Y009912D01*
X021474Y009305D01*
X021198Y009719D02*
X019857Y009630D01*
X019845Y009628D01*
X019834Y009622D01*
X019825Y009614D01*
X019818Y009604D01*
X019814Y009593D01*
X019813Y009581D01*
X019812Y009581D02*
X019812Y009305D01*
X019868Y010000D02*
X021203Y009912D01*
X021222Y009909D01*
X021239Y009902D01*
X021255Y009893D01*
X021269Y009880D01*
X021280Y009865D01*
X021288Y009849D01*
X021293Y009831D01*
X021294Y009812D01*
X021292Y009794D01*
X021286Y009776D01*
X021277Y009760D01*
X021265Y009746D01*
X021250Y009734D01*
X021234Y009725D01*
X021216Y009720D01*
X021198Y009718D01*
X020960Y009283D02*
X020960Y008913D01*
X020961Y008913D02*
X020960Y008900D01*
X020955Y008887D01*
X020948Y008875D01*
X020938Y008865D01*
X020926Y008858D01*
X020913Y008853D01*
X020900Y008852D01*
X020900Y008852D01*
X020885Y008854D01*
X020871Y008859D01*
X020859Y008866D01*
X020848Y008877D01*
X020841Y008889D01*
X020836Y008903D01*
X020834Y008918D01*
X020834Y008979D01*
X020833Y008979D02*
X020831Y008996D01*
X020826Y009013D01*
X020818Y009028D01*
X020807Y009041D01*
X020794Y009052D01*
X020779Y009060D01*
X020762Y009065D01*
X020745Y009067D01*
X020734Y009067D01*
X020717Y009065D01*
X020700Y009060D01*
X020685Y009052D01*
X020672Y009041D01*
X020661Y009028D01*
X020653Y009013D01*
X020648Y008996D01*
X020646Y008979D01*
X020646Y008913D01*
X020644Y008899D01*
X020640Y008887D01*
X020633Y008875D01*
X020623Y008865D01*
X020611Y008858D01*
X020599Y008854D01*
X020585Y008852D01*
X020570Y008854D01*
X020556Y008859D01*
X020544Y008866D01*
X020533Y008877D01*
X020526Y008889D01*
X020521Y008903D01*
X020519Y008918D01*
X020519Y009261D01*
X019868Y010000D02*
X019854Y010002D01*
X019842Y010008D01*
X019830Y010017D01*
X019822Y010027D01*
X019816Y010040D01*
X019813Y010054D01*
X019814Y010068D01*
X019818Y010081D01*
X019825Y010093D01*
X019835Y010103D01*
X019846Y010111D01*
X019860Y010115D01*
X019874Y010116D01*
X019873Y011446D02*
X021319Y011513D01*
X021336Y011513D01*
X021358Y011515D01*
X021379Y011520D01*
X021399Y011528D01*
X021417Y011539D01*
X021434Y011553D01*
X021448Y011570D01*
X021459Y011588D01*
X021467Y011608D01*
X021472Y011629D01*
X021474Y011651D01*
X021474Y012258D01*
X021198Y011844D02*
X019857Y011932D01*
X019845Y011934D01*
X019834Y011940D01*
X019825Y011948D01*
X019818Y011958D01*
X019814Y011969D01*
X019813Y011981D01*
X019812Y011982D02*
X019812Y012258D01*
X019868Y011562D02*
X021203Y011651D01*
X021203Y011650D02*
X021222Y011653D01*
X021239Y011660D01*
X021255Y011669D01*
X021269Y011682D01*
X021280Y011697D01*
X021288Y011713D01*
X021293Y011731D01*
X021294Y011750D01*
X021292Y011768D01*
X021286Y011786D01*
X021277Y011802D01*
X021265Y011816D01*
X021250Y011828D01*
X021234Y011837D01*
X021216Y011842D01*
X021198Y011844D01*
X019867Y011562D02*
X019853Y011560D01*
X019841Y011554D01*
X019829Y011545D01*
X019821Y011535D01*
X019815Y011522D01*
X019812Y011508D01*
X019813Y011494D01*
X019817Y011481D01*
X019824Y011469D01*
X019834Y011459D01*
X019845Y011451D01*
X019859Y011447D01*
X019873Y011446D01*
X018880Y012302D02*
X018880Y012644D01*
X018879Y012644D02*
X018877Y012659D01*
X018872Y012673D01*
X018865Y012685D01*
X018854Y012696D01*
X018842Y012703D01*
X018828Y012708D01*
X018813Y012710D01*
X018799Y012708D01*
X018787Y012704D01*
X018775Y012697D01*
X018765Y012687D01*
X018758Y012675D01*
X018754Y012663D01*
X018752Y012649D01*
X018753Y012649D02*
X018753Y012583D01*
X018752Y012583D02*
X018750Y012566D01*
X018745Y012549D01*
X018737Y012534D01*
X018726Y012521D01*
X018713Y012510D01*
X018698Y012502D01*
X018681Y012497D01*
X018664Y012495D01*
X018653Y012495D01*
X018636Y012497D01*
X018619Y012502D01*
X018604Y012510D01*
X018591Y012521D01*
X018580Y012534D01*
X018572Y012549D01*
X018567Y012566D01*
X018565Y012583D01*
X018565Y012644D01*
X018563Y012659D01*
X018558Y012673D01*
X018551Y012685D01*
X018540Y012696D01*
X018528Y012703D01*
X018514Y012708D01*
X018499Y012710D01*
X018499Y012710D01*
X018499Y012711D02*
X018486Y012710D01*
X018473Y012705D01*
X018461Y012698D01*
X018451Y012688D01*
X018444Y012676D01*
X018439Y012663D01*
X018438Y012650D01*
X018438Y012280D02*
X018438Y011777D01*
X018440Y011755D01*
X018445Y011734D01*
X018453Y011714D01*
X018464Y011696D01*
X018478Y011679D01*
X018495Y011665D01*
X018513Y011654D01*
X018533Y011646D01*
X018554Y011641D01*
X018576Y011639D01*
X018808Y011639D01*
X006162Y011597D02*
X006162Y011410D01*
X006162Y011504D02*
X005882Y011504D01*
X005975Y011410D01*
X005932Y012261D02*
X005885Y012308D01*
X005885Y012402D01*
X005932Y012448D01*
X005979Y012448D01*
X006166Y012261D01*
X006166Y012448D01*
X006115Y013171D02*
X006162Y013218D01*
X006162Y013312D01*
X006115Y013358D01*
X006069Y013358D01*
X006022Y013312D01*
X006022Y013265D01*
X006022Y013312D02*
X005975Y013358D01*
X005928Y013358D01*
X005882Y013312D01*
X005882Y013218D01*
X005928Y013171D01*
X003462Y013660D02*
X003182Y013660D01*
X003322Y013520D01*
X003322Y013706D01*
D12*
X008429Y010781D02*
X008431Y010808D01*
X008437Y010834D01*
X008446Y010859D01*
X008459Y010882D01*
X008475Y010903D01*
X008494Y010922D01*
X008515Y010938D01*
X008538Y010951D01*
X008563Y010960D01*
X008589Y010966D01*
X008616Y010968D01*
X008643Y010966D01*
X008669Y010960D01*
X008694Y010951D01*
X008717Y010938D01*
X008738Y010922D01*
X008757Y010903D01*
X008773Y010882D01*
X008786Y010859D01*
X008795Y010834D01*
X008801Y010808D01*
X008803Y010781D01*
X008801Y010754D01*
X008795Y010728D01*
X008786Y010703D01*
X008773Y010680D01*
X008757Y010659D01*
X008738Y010640D01*
X008717Y010624D01*
X008694Y010611D01*
X008669Y010602D01*
X008643Y010596D01*
X008616Y010594D01*
X008589Y010596D01*
X008563Y010602D01*
X008538Y010611D01*
X008515Y010624D01*
X008494Y010640D01*
X008475Y010659D01*
X008459Y010680D01*
X008446Y010703D01*
X008437Y010728D01*
X008431Y010754D01*
X008429Y010781D01*
X019266Y010092D02*
X019268Y010118D01*
X019274Y010144D01*
X019284Y010169D01*
X019297Y010192D01*
X019313Y010212D01*
X019333Y010230D01*
X019355Y010245D01*
X019378Y010257D01*
X019404Y010265D01*
X019430Y010269D01*
X019456Y010269D01*
X019482Y010265D01*
X019508Y010257D01*
X019532Y010245D01*
X019553Y010230D01*
X019573Y010212D01*
X019589Y010192D01*
X019602Y010169D01*
X019612Y010144D01*
X019618Y010118D01*
X019620Y010092D01*
X019618Y010066D01*
X019612Y010040D01*
X019602Y010015D01*
X019589Y009992D01*
X019573Y009972D01*
X019553Y009954D01*
X019531Y009939D01*
X019508Y009927D01*
X019482Y009919D01*
X019456Y009915D01*
X019430Y009915D01*
X019404Y009919D01*
X019378Y009927D01*
X019354Y009939D01*
X019333Y009954D01*
X019313Y009972D01*
X019297Y009992D01*
X019284Y010015D01*
X019274Y010040D01*
X019268Y010066D01*
X019266Y010092D01*
X019266Y011470D02*
X019268Y011496D01*
X019274Y011522D01*
X019284Y011547D01*
X019297Y011570D01*
X019313Y011590D01*
X019333Y011608D01*
X019355Y011623D01*
X019378Y011635D01*
X019404Y011643D01*
X019430Y011647D01*
X019456Y011647D01*
X019482Y011643D01*
X019508Y011635D01*
X019532Y011623D01*
X019553Y011608D01*
X019573Y011590D01*
X019589Y011570D01*
X019602Y011547D01*
X019612Y011522D01*
X019618Y011496D01*
X019620Y011470D01*
X019618Y011444D01*
X019612Y011418D01*
X019602Y011393D01*
X019589Y011370D01*
X019573Y011350D01*
X019553Y011332D01*
X019531Y011317D01*
X019508Y011305D01*
X019482Y011297D01*
X019456Y011293D01*
X019430Y011293D01*
X019404Y011297D01*
X019378Y011305D01*
X019354Y011317D01*
X019333Y011332D01*
X019313Y011350D01*
X019297Y011370D01*
X019284Y011393D01*
X019274Y011418D01*
X019268Y011444D01*
X019266Y011470D01*
D13*
X001633Y001559D02*
X001559Y001633D01*
X001559Y001926D01*
X001633Y001999D01*
X001779Y001999D01*
X001853Y001926D01*
X002019Y001926D02*
X002093Y001999D01*
X002240Y001999D01*
X002313Y001926D01*
X002313Y001853D01*
X002240Y001779D01*
X002313Y001706D01*
X002313Y001633D01*
X002240Y001559D01*
X002093Y001559D01*
X002019Y001633D01*
X001853Y001633D02*
X001779Y001559D01*
X001633Y001559D01*
X002166Y001779D02*
X002240Y001779D01*
X002480Y001779D02*
X002480Y001633D01*
X002553Y001559D01*
X002700Y001559D01*
X002773Y001633D01*
X002773Y001706D01*
X002700Y001779D01*
X002480Y001779D01*
X002627Y001926D01*
X002773Y001999D01*
X006284Y001926D02*
X006284Y001633D01*
X006357Y001559D01*
X006504Y001559D01*
X006577Y001633D01*
X006744Y001633D02*
X006817Y001559D01*
X006964Y001559D01*
X007037Y001633D01*
X007037Y001706D01*
X006964Y001779D01*
X006891Y001779D01*
X006964Y001779D02*
X007037Y001853D01*
X007037Y001926D01*
X006964Y001999D01*
X006817Y001999D01*
X006744Y001926D01*
X006577Y001926D02*
X006504Y001999D01*
X006357Y001999D01*
X006284Y001926D01*
X007204Y001999D02*
X007498Y001999D01*
X007498Y001926D01*
X007204Y001633D01*
X007204Y001559D01*
X009827Y003877D02*
X009900Y003803D01*
X010047Y003803D01*
X010120Y003877D01*
X010287Y003877D02*
X010361Y003803D01*
X010507Y003803D01*
X010581Y003877D01*
X010581Y003950D01*
X010507Y004023D01*
X010434Y004023D01*
X010507Y004023D02*
X010581Y004097D01*
X010581Y004170D01*
X010507Y004244D01*
X010361Y004244D01*
X010287Y004170D01*
X010120Y004170D02*
X010047Y004244D01*
X009900Y004244D01*
X009827Y004170D01*
X009827Y003877D01*
X010748Y003877D02*
X010821Y003803D01*
X010968Y003803D01*
X011041Y003877D01*
X011041Y004170D01*
X010968Y004244D01*
X010821Y004244D01*
X010748Y004170D01*
X010748Y004097D01*
X010821Y004023D01*
X011041Y004023D01*
X011110Y002984D02*
X010963Y002984D01*
X010890Y002910D01*
X010890Y002617D01*
X010963Y002543D01*
X011110Y002543D01*
X011183Y002617D01*
X011350Y002617D02*
X011424Y002543D01*
X011570Y002543D01*
X011644Y002617D01*
X011644Y002690D01*
X011570Y002764D01*
X011497Y002764D01*
X011570Y002764D02*
X011644Y002837D01*
X011644Y002910D01*
X011570Y002984D01*
X011424Y002984D01*
X011350Y002910D01*
X011183Y002910D02*
X011110Y002984D01*
X011811Y002910D02*
X011884Y002984D01*
X012031Y002984D01*
X012104Y002910D01*
X012104Y002837D01*
X011811Y002543D01*
X012104Y002543D01*
X012583Y001212D02*
X012876Y000772D01*
X012583Y000772D02*
X012876Y001212D01*
X013043Y001212D02*
X013337Y001212D01*
X013190Y001212D02*
X013190Y000772D01*
X013503Y000845D02*
X013577Y000772D01*
X013724Y000772D01*
X013797Y000845D01*
X013797Y000919D01*
X013724Y000992D01*
X013650Y000992D01*
X013724Y000992D02*
X013797Y001065D01*
X013797Y001139D01*
X013724Y001212D01*
X013577Y001212D01*
X013503Y001139D01*
X013964Y001139D02*
X013964Y000845D01*
X014257Y001139D01*
X014257Y000845D01*
X014184Y000772D01*
X014037Y000772D01*
X013964Y000845D01*
X013964Y001139D02*
X014037Y001212D01*
X014184Y001212D01*
X014257Y001139D01*
X015772Y002341D02*
X015772Y002635D01*
X015845Y002708D01*
X015992Y002708D01*
X016065Y002635D01*
X016232Y002635D02*
X016305Y002708D01*
X016452Y002708D01*
X016526Y002635D01*
X016526Y002561D01*
X016452Y002488D01*
X016526Y002415D01*
X016526Y002341D01*
X016452Y002268D01*
X016305Y002268D01*
X016232Y002341D01*
X016065Y002341D02*
X015992Y002268D01*
X015845Y002268D01*
X015772Y002341D01*
X016379Y002488D02*
X016452Y002488D01*
X016692Y002635D02*
X016766Y002708D01*
X016913Y002708D01*
X016986Y002635D01*
X016986Y002561D01*
X016913Y002488D01*
X016986Y002415D01*
X016986Y002341D01*
X016913Y002268D01*
X016766Y002268D01*
X016692Y002341D01*
X016839Y002488D02*
X016913Y002488D01*
X017110Y002937D02*
X017257Y002937D01*
X017184Y002937D02*
X017184Y003377D01*
X017257Y003377D02*
X017110Y003377D01*
X017417Y003304D02*
X017417Y003010D01*
X017491Y002937D01*
X017637Y002937D01*
X017711Y003010D01*
X017878Y002937D02*
X018171Y003231D01*
X018171Y003304D01*
X018098Y003377D01*
X017951Y003377D01*
X017878Y003304D01*
X017711Y003304D02*
X017637Y003377D01*
X017491Y003377D01*
X017417Y003304D01*
X017878Y002937D02*
X018171Y002937D01*
X018240Y004630D02*
X018534Y004630D01*
X018387Y004630D02*
X018387Y005070D01*
X018240Y004924D01*
X018073Y004997D02*
X018000Y005070D01*
X017853Y005070D01*
X017780Y004997D01*
X017780Y004703D01*
X017853Y004630D01*
X018000Y004630D01*
X018073Y004703D01*
X018070Y005536D02*
X018364Y005536D01*
X018217Y005536D02*
X018217Y005976D01*
X018070Y005829D01*
X017904Y005829D02*
X017904Y005902D01*
X017830Y005976D01*
X017683Y005976D01*
X017610Y005902D01*
X017443Y005902D02*
X017370Y005976D01*
X017223Y005976D01*
X017150Y005902D01*
X017150Y005609D01*
X017223Y005536D01*
X017370Y005536D01*
X017443Y005609D01*
X017610Y005609D02*
X017683Y005536D01*
X017830Y005536D01*
X017904Y005609D01*
X017904Y005682D01*
X017830Y005756D01*
X017757Y005756D01*
X017830Y005756D02*
X017904Y005829D01*
X018789Y006028D02*
X018789Y006248D01*
X018789Y006028D02*
X019188Y006028D01*
X019309Y006397D02*
X019309Y006499D01*
X019188Y006873D02*
X018789Y006873D01*
X018789Y006672D01*
X019866Y006554D02*
X019940Y006480D01*
X020086Y006480D01*
X020160Y006554D01*
X020160Y006847D01*
X020086Y006921D01*
X019940Y006921D01*
X019866Y006847D01*
X019866Y006554D01*
X020013Y006627D02*
X020160Y006480D01*
X020327Y006480D02*
X020620Y006480D01*
X020473Y006480D02*
X020473Y006921D01*
X020327Y006774D01*
X020260Y007465D02*
X020480Y007465D01*
X020554Y007538D01*
X020554Y007832D01*
X020480Y007905D01*
X020260Y007905D01*
X020260Y007465D01*
X020720Y007465D02*
X021014Y007465D01*
X020867Y007465D02*
X020867Y007905D01*
X020720Y007758D01*
X020794Y004362D02*
X020720Y004288D01*
X020794Y004362D02*
X020940Y004362D01*
X021014Y004288D01*
X021014Y004215D01*
X020720Y003921D01*
X021014Y003921D01*
X020554Y003995D02*
X020480Y003921D01*
X020333Y003921D01*
X020260Y003995D01*
X020260Y004288D01*
X020333Y004362D01*
X020480Y004362D01*
X020554Y004288D01*
X020547Y003181D02*
X020400Y003181D01*
X020327Y003107D01*
X020160Y003107D02*
X020160Y002960D01*
X020086Y002887D01*
X019866Y002887D01*
X019866Y002740D02*
X019866Y003181D01*
X020086Y003181D01*
X020160Y003107D01*
X020013Y002887D02*
X020160Y002740D01*
X020327Y002740D02*
X020620Y003034D01*
X020620Y003107D01*
X020547Y003181D01*
X020787Y003034D02*
X020934Y003181D01*
X020934Y002740D01*
X020787Y002740D02*
X021081Y002740D01*
X020620Y002740D02*
X020327Y002740D01*
X020400Y001999D02*
X020327Y001926D01*
X020400Y001999D02*
X020547Y001999D01*
X020620Y001926D01*
X020620Y001853D01*
X020327Y001559D01*
X020620Y001559D01*
X020787Y001633D02*
X021081Y001926D01*
X021081Y001633D01*
X021007Y001559D01*
X020860Y001559D01*
X020787Y001633D01*
X020787Y001926D01*
X020860Y001999D01*
X021007Y001999D01*
X021081Y001926D01*
X020160Y001926D02*
X020160Y001779D01*
X020086Y001706D01*
X019866Y001706D01*
X019866Y001559D02*
X019866Y001999D01*
X020086Y001999D01*
X020160Y001926D01*
X020013Y001706D02*
X020160Y001559D01*
X016466Y004192D02*
X016393Y004118D01*
X016246Y004118D01*
X016173Y004192D01*
X016466Y004485D01*
X016466Y004192D01*
X016173Y004192D02*
X016173Y004485D01*
X016246Y004559D01*
X016393Y004559D01*
X016466Y004485D01*
X016006Y004485D02*
X016006Y004412D01*
X015932Y004338D01*
X016006Y004265D01*
X016006Y004192D01*
X015932Y004118D01*
X015786Y004118D01*
X015712Y004192D01*
X015545Y004192D02*
X015472Y004118D01*
X015325Y004118D01*
X015252Y004192D01*
X015252Y004485D01*
X015325Y004559D01*
X015472Y004559D01*
X015545Y004485D01*
X015712Y004485D02*
X015786Y004559D01*
X015932Y004559D01*
X016006Y004485D01*
X015932Y004338D02*
X015859Y004338D01*
X015092Y004118D02*
X014945Y004118D01*
X015018Y004118D02*
X015018Y004559D01*
X014945Y004559D02*
X015092Y004559D01*
X015890Y006677D02*
X015890Y007118D01*
X016110Y007118D01*
X016183Y007044D01*
X016183Y006897D01*
X016110Y006824D01*
X015890Y006824D01*
X016037Y006824D02*
X016183Y006677D01*
X016350Y006677D02*
X016644Y006971D01*
X016644Y007044D01*
X016570Y007118D01*
X016424Y007118D01*
X016350Y007044D01*
X016350Y007386D02*
X016644Y007386D01*
X016497Y007386D02*
X016497Y007826D01*
X016350Y007679D01*
X016183Y007753D02*
X016183Y007606D01*
X016110Y007533D01*
X015890Y007533D01*
X016037Y007533D02*
X016183Y007386D01*
X015890Y007386D02*
X015890Y007826D01*
X016110Y007826D01*
X016183Y007753D01*
X016514Y008410D02*
X016661Y008410D01*
X016735Y008483D01*
X016901Y008483D02*
X016975Y008410D01*
X017122Y008410D01*
X017195Y008483D01*
X017195Y008556D01*
X017122Y008630D01*
X017048Y008630D01*
X017122Y008630D02*
X017195Y008703D01*
X017195Y008776D01*
X017122Y008850D01*
X016975Y008850D01*
X016901Y008776D01*
X016735Y008776D02*
X016661Y008850D01*
X016514Y008850D01*
X016441Y008776D01*
X016441Y008483D01*
X016514Y008410D01*
X016644Y006677D02*
X016350Y006677D01*
X014838Y009118D02*
X014838Y009559D01*
X014618Y009338D01*
X014911Y009338D01*
X014451Y009338D02*
X014378Y009265D01*
X014158Y009265D01*
X014304Y009265D02*
X014451Y009118D01*
X014451Y009338D02*
X014451Y009485D01*
X014378Y009559D01*
X014158Y009559D01*
X014158Y009118D01*
X014118Y009906D02*
X014118Y010346D01*
X014338Y010346D01*
X014412Y010273D01*
X014412Y010126D01*
X014338Y010052D01*
X014118Y010052D01*
X014265Y010052D02*
X014412Y009906D01*
X014579Y009979D02*
X014652Y009906D01*
X014799Y009906D01*
X014872Y009979D01*
X014872Y010052D01*
X014799Y010126D01*
X014725Y010126D01*
X014799Y010126D02*
X014872Y010199D01*
X014872Y010273D01*
X014799Y010346D01*
X014652Y010346D01*
X014579Y010273D01*
X015339Y010417D02*
X015339Y010858D01*
X015559Y010858D01*
X015632Y010784D01*
X015632Y010638D01*
X015559Y010564D01*
X015339Y010564D01*
X015485Y010564D02*
X015632Y010417D01*
X015799Y010491D02*
X015872Y010417D01*
X016019Y010417D01*
X016093Y010491D01*
X016093Y010564D01*
X016019Y010638D01*
X015946Y010638D01*
X016019Y010638D02*
X016093Y010711D01*
X016093Y010784D01*
X016019Y010858D01*
X015872Y010858D01*
X015799Y010784D01*
X015872Y011008D02*
X015799Y011081D01*
X015872Y011008D02*
X016019Y011008D01*
X016093Y011081D01*
X016093Y011155D01*
X016019Y011228D01*
X015946Y011228D01*
X016019Y011228D02*
X016093Y011302D01*
X016093Y011375D01*
X016019Y011448D01*
X015872Y011448D01*
X015799Y011375D01*
X015632Y011375D02*
X015632Y011228D01*
X015559Y011155D01*
X015339Y011155D01*
X015485Y011155D02*
X015632Y011008D01*
X015339Y011008D02*
X015339Y011448D01*
X015559Y011448D01*
X015632Y011375D01*
X016259Y011375D02*
X016259Y011081D01*
X016553Y011375D01*
X016553Y011081D01*
X016480Y011008D01*
X016333Y011008D01*
X016259Y011081D01*
X016406Y010858D02*
X016406Y010417D01*
X016259Y010417D02*
X016553Y010417D01*
X016259Y010711D02*
X016406Y010858D01*
X016259Y011375D02*
X016333Y011448D01*
X016480Y011448D01*
X016553Y011375D01*
X016420Y011913D02*
X016126Y012354D01*
X016420Y012354D02*
X016126Y011913D01*
X016733Y011913D02*
X016733Y012354D01*
X016586Y012354D02*
X016880Y012354D01*
X017047Y012280D02*
X017120Y012354D01*
X017267Y012354D01*
X017340Y012280D01*
X017340Y012207D01*
X017047Y011913D01*
X017340Y011913D01*
X017507Y011987D02*
X017801Y012280D01*
X017801Y011987D01*
X017727Y011913D01*
X017581Y011913D01*
X017507Y011987D01*
X017507Y012280D01*
X017581Y012354D01*
X017727Y012354D01*
X017801Y012280D01*
X018837Y013449D02*
X018764Y013522D01*
X018764Y013816D01*
X018837Y013889D01*
X018984Y013889D01*
X019057Y013816D01*
X019224Y013816D02*
X019298Y013889D01*
X019444Y013889D01*
X019518Y013816D01*
X019518Y013742D01*
X019224Y013449D01*
X019518Y013449D01*
X019685Y013669D02*
X019978Y013669D01*
X019905Y013449D02*
X019905Y013889D01*
X019685Y013669D01*
X019758Y014158D02*
X019685Y014231D01*
X019758Y014158D02*
X019905Y014158D01*
X019978Y014231D01*
X019978Y014378D01*
X019905Y014451D01*
X019831Y014451D01*
X019685Y014378D01*
X019685Y014598D01*
X019978Y014598D01*
X019518Y014525D02*
X019444Y014598D01*
X019298Y014598D01*
X019224Y014525D01*
X019057Y014525D02*
X018984Y014598D01*
X018837Y014598D01*
X018764Y014525D01*
X018764Y014231D01*
X018837Y014158D01*
X018984Y014158D01*
X019057Y014231D01*
X019224Y014158D02*
X019518Y014451D01*
X019518Y014525D01*
X019518Y014158D02*
X019224Y014158D01*
X019057Y013522D02*
X018984Y013449D01*
X018837Y013449D01*
X018842Y014906D02*
X018695Y014906D01*
X018622Y014979D01*
X018455Y014906D02*
X018161Y014906D01*
X018455Y015199D01*
X018455Y015273D01*
X018381Y015346D01*
X018235Y015346D01*
X018161Y015273D01*
X017994Y015273D02*
X017921Y015346D01*
X017774Y015346D01*
X017701Y015273D01*
X017701Y014979D01*
X017774Y014906D01*
X017921Y014906D01*
X017994Y014979D01*
X017921Y015654D02*
X017774Y015654D01*
X017701Y015727D01*
X017701Y016021D01*
X017774Y016094D01*
X017921Y016094D01*
X017994Y016021D01*
X018161Y016021D02*
X018235Y016094D01*
X018381Y016094D01*
X018455Y016021D01*
X018455Y015947D01*
X018161Y015654D01*
X018455Y015654D01*
X018622Y015727D02*
X018695Y015654D01*
X018842Y015654D01*
X018915Y015727D01*
X018915Y015800D01*
X018842Y015874D01*
X018622Y015874D01*
X018622Y015727D01*
X018622Y015874D02*
X018768Y016021D01*
X018915Y016094D01*
X018842Y015346D02*
X018695Y015346D01*
X018622Y015273D01*
X018768Y015126D02*
X018842Y015126D01*
X018915Y015052D01*
X018915Y014979D01*
X018842Y014906D01*
X018842Y015126D02*
X018915Y015199D01*
X018915Y015273D01*
X018842Y015346D01*
X017994Y015727D02*
X017921Y015654D01*
X017921Y016874D02*
X017774Y016874D01*
X017701Y016947D01*
X017701Y017241D01*
X017774Y017314D01*
X017921Y017314D01*
X017994Y017241D01*
X018161Y017241D02*
X018235Y017314D01*
X018381Y017314D01*
X018455Y017241D01*
X018455Y017168D01*
X018161Y016874D01*
X018455Y016874D01*
X018622Y016874D02*
X018622Y016947D01*
X018915Y017241D01*
X018915Y017314D01*
X018622Y017314D01*
X017994Y016947D02*
X017921Y016874D01*
X019734Y018423D02*
X019734Y018864D01*
X019954Y018864D01*
X020028Y018790D01*
X020028Y018643D01*
X019954Y018570D01*
X019734Y018570D01*
X019881Y018570D02*
X020028Y018423D01*
X020195Y018423D02*
X020488Y018717D01*
X020488Y018790D01*
X020415Y018864D01*
X020268Y018864D01*
X020195Y018790D01*
X020195Y018423D02*
X020488Y018423D01*
X020655Y018423D02*
X020949Y018717D01*
X020949Y018790D01*
X020875Y018864D01*
X020728Y018864D01*
X020655Y018790D01*
X020655Y018423D02*
X020949Y018423D01*
X020875Y019604D02*
X020728Y019604D01*
X020655Y019678D01*
X020488Y019604D02*
X020195Y019604D01*
X020488Y019898D01*
X020488Y019971D01*
X020415Y020045D01*
X020268Y020045D01*
X020195Y019971D01*
X020028Y019971D02*
X020028Y019825D01*
X019954Y019751D01*
X019734Y019751D01*
X019734Y019604D02*
X019734Y020045D01*
X019954Y020045D01*
X020028Y019971D01*
X019881Y019751D02*
X020028Y019604D01*
X020655Y019971D02*
X020728Y020045D01*
X020875Y020045D01*
X020949Y019971D01*
X020949Y019898D01*
X020875Y019825D01*
X020949Y019751D01*
X020949Y019678D01*
X020875Y019604D01*
X020875Y019825D02*
X020802Y019825D01*
X017647Y018882D02*
X017354Y018882D01*
X017500Y018882D02*
X017500Y019322D01*
X017354Y019176D01*
X017187Y019176D02*
X017187Y019249D01*
X017113Y019322D01*
X016967Y019322D01*
X016893Y019249D01*
X016727Y019249D02*
X016653Y019322D01*
X016506Y019322D01*
X016433Y019249D01*
X016433Y018955D01*
X016506Y018882D01*
X016653Y018882D01*
X016727Y018955D01*
X016893Y018882D02*
X017187Y019176D01*
X017187Y018882D02*
X016893Y018882D01*
X016273Y018882D02*
X016126Y018882D01*
X016199Y018882D02*
X016199Y019322D01*
X016126Y019322D02*
X016273Y019322D01*
X015411Y019496D02*
X015118Y019496D01*
X015338Y019716D01*
X015338Y019276D01*
X014951Y019349D02*
X014877Y019276D01*
X014731Y019276D01*
X014657Y019349D01*
X014491Y019349D02*
X014417Y019276D01*
X014270Y019276D01*
X014197Y019349D01*
X014197Y019643D01*
X014270Y019716D01*
X014417Y019716D01*
X014491Y019643D01*
X014657Y019643D02*
X014731Y019716D01*
X014877Y019716D01*
X014951Y019643D01*
X014951Y019569D01*
X014877Y019496D01*
X014951Y019422D01*
X014951Y019349D01*
X014877Y019496D02*
X014804Y019496D01*
X014797Y017938D02*
X014724Y017865D01*
X014797Y017938D02*
X014944Y017938D01*
X015018Y017865D01*
X015018Y017792D01*
X014724Y017498D01*
X015018Y017498D01*
X015184Y017571D02*
X015478Y017865D01*
X015478Y017571D01*
X015405Y017498D01*
X015258Y017498D01*
X015184Y017571D01*
X015184Y017865D01*
X015258Y017938D01*
X015405Y017938D01*
X015478Y017865D01*
X014557Y017865D02*
X014484Y017938D01*
X014337Y017938D01*
X014264Y017865D01*
X014264Y017571D01*
X014337Y017498D01*
X014484Y017498D01*
X014557Y017571D01*
X014104Y017498D02*
X013957Y017498D01*
X014030Y017498D02*
X014030Y017938D01*
X013957Y017938D02*
X014104Y017938D01*
X011907Y018068D02*
X011907Y017774D01*
X011834Y017701D01*
X011687Y017701D01*
X011614Y017774D01*
X011907Y018068D01*
X011834Y018141D01*
X011687Y018141D01*
X011614Y018068D01*
X011614Y017774D01*
X011447Y017701D02*
X011153Y017701D01*
X011447Y017994D01*
X011447Y018068D01*
X011374Y018141D01*
X011227Y018141D01*
X011153Y018068D01*
X010987Y018068D02*
X010913Y018141D01*
X010766Y018141D01*
X010693Y018068D01*
X010693Y017774D01*
X010766Y017701D01*
X010913Y017701D01*
X010987Y017774D01*
X011136Y019315D02*
X011063Y019388D01*
X011136Y019315D02*
X011283Y019315D01*
X011356Y019388D01*
X011356Y019535D01*
X011283Y019609D01*
X011209Y019609D01*
X011063Y019535D01*
X011063Y019755D01*
X011356Y019755D01*
X010896Y019682D02*
X010896Y019609D01*
X010822Y019535D01*
X010896Y019462D01*
X010896Y019388D01*
X010822Y019315D01*
X010676Y019315D01*
X010602Y019388D01*
X010435Y019388D02*
X010362Y019315D01*
X010215Y019315D01*
X010142Y019388D01*
X010142Y019682D01*
X010215Y019755D01*
X010362Y019755D01*
X010435Y019682D01*
X010602Y019682D02*
X010676Y019755D01*
X010822Y019755D01*
X010896Y019682D01*
X010822Y019535D02*
X010749Y019535D01*
X011795Y020457D02*
X011942Y020457D01*
X011869Y020457D02*
X011869Y020897D01*
X011942Y020897D02*
X011795Y020897D01*
X012102Y020824D02*
X012102Y020530D01*
X012176Y020457D01*
X012322Y020457D01*
X012396Y020530D01*
X012563Y020530D02*
X012636Y020457D01*
X012783Y020457D01*
X012856Y020530D01*
X012856Y020604D01*
X012783Y020677D01*
X012709Y020677D01*
X012783Y020677D02*
X012856Y020750D01*
X012856Y020824D01*
X012783Y020897D01*
X012636Y020897D01*
X012563Y020824D01*
X012396Y020824D02*
X012322Y020897D01*
X012176Y020897D01*
X012102Y020824D01*
X013023Y020750D02*
X013170Y020897D01*
X013170Y020457D01*
X013023Y020457D02*
X013317Y020457D01*
X009403Y019183D02*
X009403Y019141D01*
X009305Y019285D02*
X007537Y019285D01*
X007435Y019183D02*
X007435Y019141D01*
X007435Y018878D02*
X007435Y018645D01*
X007435Y018381D02*
X007435Y018145D01*
X007435Y017881D02*
X007435Y017645D01*
X007435Y017385D02*
X007435Y017344D01*
X007533Y017238D02*
X009305Y017238D01*
X009322Y017239D01*
X009339Y017244D01*
X009354Y017251D01*
X009368Y017261D01*
X009380Y017273D01*
X009390Y017287D01*
X009397Y017302D01*
X009402Y017319D01*
X009403Y017336D01*
X009403Y017332D02*
X009403Y017381D01*
X009403Y017645D02*
X009403Y017878D01*
X009403Y018145D02*
X009403Y018378D01*
X009403Y018645D02*
X009403Y018878D01*
X008999Y020181D02*
X008852Y020181D01*
X008779Y020255D01*
X008779Y020328D01*
X008852Y020401D01*
X008999Y020401D01*
X009073Y020328D01*
X009073Y020255D01*
X008999Y020181D01*
X008999Y020401D02*
X009073Y020475D01*
X009073Y020548D01*
X008999Y020622D01*
X008852Y020622D01*
X008779Y020548D01*
X008779Y020475D01*
X008852Y020401D01*
X008612Y020328D02*
X008612Y020255D01*
X008539Y020181D01*
X008392Y020181D01*
X008319Y020255D01*
X008152Y020255D02*
X008079Y020181D01*
X007932Y020181D01*
X007858Y020255D01*
X007858Y020548D01*
X007932Y020622D01*
X008079Y020622D01*
X008152Y020548D01*
X008319Y020548D02*
X008392Y020622D01*
X008539Y020622D01*
X008612Y020548D01*
X008612Y020475D01*
X008539Y020401D01*
X008612Y020328D01*
X008539Y020401D02*
X008465Y020401D01*
X007608Y019839D02*
X007608Y019766D01*
X007534Y019693D01*
X007608Y019619D01*
X007608Y019546D01*
X007534Y019473D01*
X007388Y019473D01*
X007314Y019546D01*
X007148Y019546D02*
X007074Y019473D01*
X006927Y019473D01*
X006854Y019546D01*
X006687Y019546D02*
X006614Y019473D01*
X006467Y019473D01*
X006394Y019546D01*
X006394Y019839D01*
X006467Y019913D01*
X006614Y019913D01*
X006687Y019839D01*
X006854Y019839D02*
X006927Y019913D01*
X007074Y019913D01*
X007148Y019839D01*
X007148Y019766D01*
X007074Y019693D01*
X007148Y019619D01*
X007148Y019546D01*
X007074Y019693D02*
X007001Y019693D01*
X007314Y019839D02*
X007388Y019913D01*
X007534Y019913D01*
X007608Y019839D01*
X007534Y019693D02*
X007461Y019693D01*
X006686Y020657D02*
X006393Y020657D01*
X006226Y020877D02*
X005932Y020877D01*
X006079Y020877D02*
X006079Y020437D01*
X005619Y020437D02*
X005619Y020877D01*
X005472Y020877D02*
X005766Y020877D01*
X005305Y020731D02*
X005305Y020437D01*
X005305Y020657D02*
X005012Y020657D01*
X005012Y020731D02*
X005158Y020877D01*
X005305Y020731D01*
X005012Y020731D02*
X005012Y020437D01*
X004845Y020510D02*
X004771Y020437D01*
X004551Y020437D01*
X004551Y020877D01*
X004771Y020877D01*
X004845Y020804D01*
X004845Y020731D01*
X004771Y020657D01*
X004551Y020657D01*
X004771Y020657D02*
X004845Y020584D01*
X004845Y020510D01*
X003930Y020657D02*
X003637Y020657D01*
X003784Y020804D02*
X003784Y020510D01*
X003323Y020437D02*
X003323Y020877D01*
X003176Y020877D02*
X003470Y020877D01*
X003010Y020877D02*
X002716Y020877D01*
X002863Y020877D02*
X002863Y020437D01*
X002549Y020437D02*
X002549Y020731D01*
X002403Y020877D01*
X002256Y020731D01*
X002256Y020437D01*
X002089Y020510D02*
X002016Y020437D01*
X001795Y020437D01*
X001795Y020877D01*
X002016Y020877D01*
X002089Y020804D01*
X002089Y020731D01*
X002016Y020657D01*
X001795Y020657D01*
X002016Y020657D02*
X002089Y020584D01*
X002089Y020510D01*
X002256Y020657D02*
X002549Y020657D01*
X002937Y019125D02*
X003157Y019125D01*
X003231Y019052D01*
X003231Y018905D01*
X003157Y018832D01*
X002937Y018832D01*
X003084Y018832D02*
X003231Y018685D01*
X003397Y018685D02*
X003691Y018685D01*
X003544Y018685D02*
X003544Y019125D01*
X003397Y018979D01*
X002937Y019125D02*
X002937Y018685D01*
X002960Y018220D02*
X002740Y018220D01*
X002740Y017780D01*
X002740Y017926D02*
X002960Y017926D01*
X003034Y018000D01*
X003034Y018147D01*
X002960Y018220D01*
X003201Y018147D02*
X003201Y018073D01*
X003274Y018000D01*
X003421Y018000D01*
X003494Y017926D01*
X003494Y017853D01*
X003421Y017780D01*
X003274Y017780D01*
X003201Y017853D01*
X003201Y017926D01*
X003274Y018000D01*
X003421Y018000D02*
X003494Y018073D01*
X003494Y018147D01*
X003421Y018220D01*
X003274Y018220D01*
X003201Y018147D01*
X002887Y017926D02*
X003034Y017780D01*
X002960Y017551D02*
X002814Y017551D01*
X002740Y017477D01*
X002740Y017184D01*
X002814Y017110D01*
X002960Y017110D01*
X003034Y017184D01*
X003201Y017330D02*
X003494Y017330D01*
X003421Y017110D02*
X003421Y017551D01*
X003201Y017330D01*
X003034Y017477D02*
X002960Y017551D01*
X002313Y017477D02*
X002313Y017184D01*
X002240Y017110D01*
X002093Y017110D01*
X002019Y017184D01*
X002093Y017330D02*
X002019Y017404D01*
X002019Y017477D01*
X002093Y017551D01*
X002240Y017551D01*
X002313Y017477D01*
X002313Y017330D02*
X002093Y017330D01*
X001853Y017330D02*
X001853Y017477D01*
X001779Y017551D01*
X001559Y017551D01*
X001559Y017110D01*
X001559Y017257D02*
X001779Y017257D01*
X001853Y017330D01*
X001706Y017257D02*
X001853Y017110D01*
X001779Y016763D02*
X001853Y016690D01*
X001853Y016543D01*
X001779Y016470D01*
X001559Y016470D01*
X001706Y016470D02*
X001853Y016323D01*
X002019Y016396D02*
X002093Y016323D01*
X002240Y016323D01*
X002313Y016396D01*
X002313Y016470D01*
X002240Y016543D01*
X002019Y016543D01*
X002019Y016396D01*
X002019Y016543D02*
X002166Y016690D01*
X002313Y016763D01*
X002740Y016763D02*
X002887Y016763D01*
X002814Y016763D02*
X002814Y016323D01*
X002887Y016323D02*
X002740Y016323D01*
X003047Y016396D02*
X003121Y016323D01*
X003267Y016323D01*
X003341Y016396D01*
X003507Y016323D02*
X003801Y016323D01*
X003654Y016323D02*
X003654Y016763D01*
X003507Y016616D01*
X003341Y016690D02*
X003267Y016763D01*
X003121Y016763D01*
X003047Y016690D01*
X003047Y016396D01*
X002960Y015582D02*
X002814Y015582D01*
X002740Y015509D01*
X002740Y015215D01*
X002814Y015142D01*
X002960Y015142D01*
X003034Y015215D01*
X003034Y015509D01*
X002960Y015582D01*
X003201Y015509D02*
X003274Y015582D01*
X003421Y015582D01*
X003494Y015509D01*
X003494Y015435D01*
X003421Y015362D01*
X003494Y015289D01*
X003494Y015215D01*
X003421Y015142D01*
X003274Y015142D01*
X003201Y015215D01*
X003034Y015142D02*
X002887Y015289D01*
X003347Y015362D02*
X003421Y015362D01*
X002313Y015362D02*
X002313Y015215D01*
X002240Y015142D01*
X002093Y015142D01*
X002019Y015215D01*
X002019Y015362D02*
X002166Y015435D01*
X002240Y015435D01*
X002313Y015362D01*
X002313Y015582D02*
X002019Y015582D01*
X002019Y015362D01*
X001853Y015362D02*
X001779Y015289D01*
X001559Y015289D01*
X001706Y015289D02*
X001853Y015142D01*
X001853Y015362D02*
X001853Y015509D01*
X001779Y015582D01*
X001559Y015582D01*
X001559Y015142D01*
X001559Y016323D02*
X001559Y016763D01*
X001779Y016763D01*
X001853Y017780D02*
X001706Y017926D01*
X001779Y017926D02*
X001559Y017926D01*
X001559Y017780D02*
X001559Y018220D01*
X001779Y018220D01*
X001853Y018147D01*
X001853Y018000D01*
X001779Y017926D01*
X002019Y017853D02*
X002019Y017780D01*
X002019Y017853D02*
X002313Y018147D01*
X002313Y018220D01*
X002019Y018220D01*
X003858Y018759D02*
X004151Y019052D01*
X004151Y018759D01*
X004078Y018685D01*
X003931Y018685D01*
X003858Y018759D01*
X003858Y019052D01*
X003931Y019125D01*
X004078Y019125D01*
X004151Y019052D01*
X006087Y019473D02*
X006233Y019473D01*
X006160Y019473D02*
X006160Y019913D01*
X006087Y019913D02*
X006233Y019913D01*
X006953Y016566D02*
X007173Y016566D01*
X007246Y016493D01*
X007246Y016346D01*
X007173Y016273D01*
X006953Y016273D01*
X007100Y016273D02*
X007246Y016126D01*
X007413Y016126D02*
X007707Y016126D01*
X007560Y016126D02*
X007560Y016566D01*
X007413Y016420D01*
X007874Y016493D02*
X007947Y016566D01*
X008094Y016566D01*
X008167Y016493D01*
X008167Y016420D01*
X007874Y016126D01*
X008167Y016126D01*
X008291Y016126D02*
X008291Y016566D01*
X008512Y016566D01*
X008585Y016493D01*
X008585Y016346D01*
X008512Y016273D01*
X008291Y016273D01*
X008438Y016273D02*
X008585Y016126D01*
X008752Y016126D02*
X009045Y016126D01*
X008899Y016126D02*
X008899Y016566D01*
X008752Y016420D01*
X009212Y016420D02*
X009359Y016566D01*
X009359Y016126D01*
X009212Y016126D02*
X009506Y016126D01*
X009559Y014927D02*
X009486Y014853D01*
X009559Y014927D02*
X009706Y014927D01*
X009780Y014853D01*
X009780Y014780D01*
X009486Y014486D01*
X009780Y014486D01*
X009946Y014486D02*
X010240Y014486D01*
X010093Y014486D02*
X010093Y014927D01*
X009946Y014780D01*
X009319Y014853D02*
X009246Y014927D01*
X009099Y014927D01*
X009026Y014853D01*
X009026Y014560D01*
X009099Y014486D01*
X009246Y014486D01*
X009319Y014560D01*
X006953Y016126D02*
X006953Y016566D01*
X006637Y014947D02*
X005497Y014947D01*
X005497Y014647D01*
X006637Y014647D01*
X006637Y014947D01*
X002337Y013403D02*
X002337Y013329D01*
X002043Y013036D01*
X002337Y013036D01*
X002337Y013403D02*
X002263Y013476D01*
X002116Y013476D01*
X002043Y013403D01*
X001876Y013403D02*
X001876Y013109D01*
X001803Y013036D01*
X001656Y013036D01*
X001583Y013109D01*
X001583Y013403D01*
X001656Y013476D01*
X001803Y013476D01*
X001876Y013403D01*
X001730Y013183D02*
X001876Y013036D01*
X001823Y008889D02*
X002043Y008889D01*
X002116Y008816D01*
X002116Y008669D01*
X002043Y008596D01*
X001823Y008596D01*
X001823Y008449D02*
X001823Y008889D01*
X001656Y008816D02*
X001582Y008889D01*
X001436Y008889D01*
X001362Y008816D01*
X001362Y008522D01*
X001436Y008449D01*
X001582Y008449D01*
X001656Y008522D01*
X001656Y008669D01*
X001509Y008669D01*
X002283Y008742D02*
X002356Y008669D01*
X002503Y008669D01*
X002577Y008596D01*
X002577Y008522D01*
X002503Y008449D01*
X002356Y008449D01*
X002283Y008522D01*
X002283Y008742D02*
X002283Y008816D01*
X002356Y008889D01*
X002503Y008889D01*
X002577Y008816D01*
X002743Y008742D02*
X002890Y008889D01*
X002890Y008449D01*
X002743Y008449D02*
X003037Y008449D01*
X009827Y006257D02*
X009827Y005963D01*
X009900Y005890D01*
X010047Y005890D01*
X010120Y005963D01*
X010287Y005963D02*
X010361Y005890D01*
X010507Y005890D01*
X010581Y005963D01*
X010581Y006037D01*
X010507Y006110D01*
X010434Y006110D01*
X010507Y006110D02*
X010581Y006183D01*
X010581Y006257D01*
X010507Y006330D01*
X010361Y006330D01*
X010287Y006257D01*
X010120Y006257D02*
X010047Y006330D01*
X009900Y006330D01*
X009827Y006257D01*
X010748Y006257D02*
X010748Y005963D01*
X011041Y006257D01*
X011041Y005963D01*
X010968Y005890D01*
X010821Y005890D01*
X010748Y005963D01*
X010748Y006257D02*
X010821Y006330D01*
X010968Y006330D01*
X011041Y006257D01*
X011869Y009039D02*
X012016Y009039D01*
X012089Y009113D01*
X012089Y009260D01*
X011942Y009260D01*
X011795Y009406D02*
X011795Y009113D01*
X011869Y009039D01*
X011795Y009406D02*
X011869Y009480D01*
X012016Y009480D01*
X012089Y009406D01*
X012256Y009480D02*
X012476Y009480D01*
X012549Y009406D01*
X012549Y009260D01*
X012476Y009186D01*
X012256Y009186D01*
X012256Y009039D02*
X012256Y009480D01*
X012716Y009480D02*
X013010Y009039D01*
X012716Y009039D02*
X013010Y009480D01*
X013122Y011126D02*
X013415Y011420D01*
X013415Y011493D01*
X013342Y011566D01*
X013195Y011566D01*
X013122Y011493D01*
X012955Y011493D02*
X012882Y011566D01*
X012735Y011566D01*
X012661Y011493D01*
X012661Y011199D01*
X012735Y011126D01*
X012882Y011126D01*
X012955Y011199D01*
X013122Y011126D02*
X013415Y011126D01*
X013582Y011126D02*
X013876Y011420D01*
X013876Y011493D01*
X013802Y011566D01*
X013656Y011566D01*
X013582Y011493D01*
X013582Y011126D02*
X013876Y011126D01*
X020457Y013173D02*
X020750Y013614D01*
X020917Y013467D02*
X021064Y013614D01*
X021064Y013173D01*
X020917Y013173D02*
X021211Y013173D01*
X020750Y013173D02*
X020457Y013614D01*
D14*
X015033Y012986D02*
X014876Y012828D01*
X011411Y012828D01*
X011254Y012986D01*
X011254Y016450D01*
X011411Y016608D01*
X014876Y016608D01*
X015033Y016450D01*
X015033Y012986D01*
X018852Y007828D02*
X018852Y007435D01*
X019246Y007631D01*
X018852Y007828D01*
X014718Y007317D02*
X014718Y005026D01*
X014566Y004876D01*
X012277Y004876D01*
X012277Y007317D01*
X014718Y007317D01*
X006057Y015663D02*
X005663Y015663D01*
X005663Y016529D02*
X006057Y016529D01*
X005182Y014040D02*
X003782Y014040D01*
X003782Y011460D01*
X005182Y011460D01*
X005182Y014040D01*
D15*
X005781Y016352D03*
D16*
X019269Y007631D03*
D17*
X018143Y004324D02*
X017592Y004324D01*
X017592Y004285D01*
X018143Y004285D02*
X018143Y004324D01*
X018143Y004009D02*
X018143Y003773D01*
X018143Y003498D02*
X018143Y003458D01*
X017592Y003458D01*
X017592Y003498D01*
X015431Y003413D02*
X015431Y003613D01*
X012431Y003613D01*
X012431Y003413D01*
X012431Y002613D02*
X012431Y002413D01*
X012431Y001613D02*
X012431Y001413D01*
X015431Y001413D01*
X015431Y001613D01*
X015431Y002413D02*
X015431Y002613D01*
X009116Y003175D02*
X009116Y009175D01*
X003116Y009175D02*
X003116Y003175D01*
X016569Y013065D02*
X016569Y014009D01*
X017277Y014009D02*
X017277Y013065D01*
X017080Y017750D02*
X016529Y017750D01*
X016529Y017789D01*
X017080Y017789D02*
X017080Y017750D01*
X017080Y018065D02*
X017080Y018301D01*
X017080Y018576D02*
X017080Y018616D01*
X016529Y018616D01*
X016529Y018576D01*
X013734Y018852D02*
X013734Y019246D01*
X013734Y019639D02*
X013734Y020033D01*
X012435Y019364D02*
X012277Y019364D01*
X012277Y019521D01*
X012435Y019364D01*
X011765Y019246D02*
X011765Y018852D01*
X011765Y019639D02*
X011765Y020033D01*
X007823Y019017D02*
X007825Y019042D01*
X007831Y019066D01*
X007840Y019088D01*
X007853Y019109D01*
X007869Y019128D01*
X007888Y019144D01*
X007909Y019157D01*
X007931Y019166D01*
X007955Y019172D01*
X007980Y019174D01*
X008005Y019172D01*
X008029Y019166D01*
X008051Y019157D01*
X008072Y019144D01*
X008091Y019128D01*
X008107Y019109D01*
X008120Y019088D01*
X008129Y019066D01*
X008135Y019042D01*
X008137Y019017D01*
X008135Y018992D01*
X008129Y018968D01*
X008120Y018946D01*
X008107Y018925D01*
X008091Y018906D01*
X008072Y018890D01*
X008051Y018877D01*
X008029Y018868D01*
X008005Y018862D01*
X007980Y018860D01*
X007955Y018862D01*
X007931Y018868D01*
X007909Y018877D01*
X007888Y018890D01*
X007869Y018906D01*
X007853Y018925D01*
X007840Y018946D01*
X007831Y018968D01*
X007825Y018992D01*
X007823Y019017D01*
D18*
X007529Y019309D02*
X007529Y019259D01*
X007528Y019260D02*
X007513Y019257D01*
X007499Y019252D01*
X007487Y019244D01*
X007476Y019233D01*
X007468Y019221D01*
X007463Y019207D01*
X007460Y019192D01*
X007411Y019191D01*
X007410Y019192D01*
X007413Y019212D01*
X007418Y019232D01*
X007427Y019250D01*
X007439Y019266D01*
X007454Y019281D01*
X007470Y019293D01*
X007488Y019302D01*
X007508Y019307D01*
X007528Y019310D01*
X007528Y019301D01*
X007509Y019299D01*
X007491Y019293D01*
X007475Y019285D01*
X007459Y019274D01*
X007446Y019261D01*
X007435Y019245D01*
X007427Y019229D01*
X007421Y019211D01*
X007419Y019192D01*
X007428Y019192D01*
X007431Y019211D01*
X007437Y019229D01*
X007446Y019246D01*
X007459Y019261D01*
X007474Y019274D01*
X007491Y019283D01*
X007509Y019289D01*
X007528Y019292D01*
X007528Y019283D01*
X007511Y019280D01*
X007494Y019275D01*
X007479Y019266D01*
X007465Y019255D01*
X007454Y019241D01*
X007445Y019226D01*
X007440Y019209D01*
X007437Y019192D01*
X007446Y019192D01*
X007449Y019210D01*
X007456Y019227D01*
X007465Y019242D01*
X007478Y019255D01*
X007493Y019264D01*
X007510Y019271D01*
X007528Y019274D01*
X007528Y019265D01*
X007512Y019262D01*
X007497Y019256D01*
X007484Y019248D01*
X007472Y019236D01*
X007464Y019223D01*
X007458Y019208D01*
X007455Y019192D01*
X007411Y017332D02*
X007461Y017332D01*
X007460Y017331D02*
X007463Y017316D01*
X007468Y017302D01*
X007476Y017290D01*
X007487Y017279D01*
X007499Y017271D01*
X007513Y017266D01*
X007528Y017263D01*
X007529Y017214D01*
X007528Y017213D01*
X007508Y017216D01*
X007488Y017221D01*
X007470Y017230D01*
X007454Y017242D01*
X007439Y017257D01*
X007427Y017273D01*
X007418Y017291D01*
X007413Y017311D01*
X007410Y017331D01*
X007419Y017331D01*
X007421Y017312D01*
X007427Y017294D01*
X007435Y017278D01*
X007446Y017262D01*
X007459Y017249D01*
X007475Y017238D01*
X007491Y017230D01*
X007509Y017224D01*
X007528Y017222D01*
X007528Y017231D01*
X007509Y017234D01*
X007491Y017240D01*
X007474Y017249D01*
X007459Y017262D01*
X007446Y017277D01*
X007437Y017294D01*
X007431Y017312D01*
X007428Y017331D01*
X007437Y017331D01*
X007440Y017314D01*
X007445Y017297D01*
X007454Y017282D01*
X007465Y017268D01*
X007479Y017257D01*
X007494Y017248D01*
X007511Y017243D01*
X007528Y017240D01*
X007528Y017249D01*
X007510Y017252D01*
X007493Y017259D01*
X007478Y017268D01*
X007465Y017281D01*
X007456Y017296D01*
X007449Y017313D01*
X007446Y017331D01*
X007455Y017331D01*
X007458Y017315D01*
X007464Y017300D01*
X007472Y017287D01*
X007484Y017275D01*
X007497Y017267D01*
X007512Y017261D01*
X007528Y017258D01*
X009427Y019191D02*
X009377Y019191D01*
X009378Y019192D02*
X009375Y019207D01*
X009370Y019221D01*
X009362Y019233D01*
X009351Y019244D01*
X009339Y019252D01*
X009325Y019257D01*
X009310Y019260D01*
X009309Y019309D01*
X009310Y019310D01*
X009330Y019307D01*
X009350Y019302D01*
X009368Y019293D01*
X009384Y019281D01*
X009399Y019266D01*
X009411Y019250D01*
X009420Y019232D01*
X009425Y019212D01*
X009428Y019192D01*
X009419Y019192D01*
X009417Y019211D01*
X009411Y019229D01*
X009403Y019245D01*
X009392Y019261D01*
X009379Y019274D01*
X009363Y019285D01*
X009347Y019293D01*
X009329Y019299D01*
X009310Y019301D01*
X009310Y019292D01*
X009329Y019289D01*
X009347Y019283D01*
X009364Y019274D01*
X009379Y019261D01*
X009392Y019246D01*
X009401Y019229D01*
X009407Y019211D01*
X009410Y019192D01*
X009401Y019192D01*
X009398Y019209D01*
X009393Y019226D01*
X009384Y019241D01*
X009373Y019255D01*
X009359Y019266D01*
X009344Y019275D01*
X009327Y019280D01*
X009310Y019283D01*
X009310Y019274D01*
X009328Y019271D01*
X009345Y019264D01*
X009360Y019255D01*
X009373Y019242D01*
X009382Y019227D01*
X009389Y019210D01*
X009392Y019192D01*
X009383Y019192D01*
X009380Y019208D01*
X009374Y019223D01*
X009366Y019236D01*
X009354Y019248D01*
X009341Y019256D01*
X009326Y019262D01*
X009310Y019265D01*
M02*
