%
M48
M72
T01C0.0150
T02C0.0197
T03C0.0200
T04C0.0300
T05C0.0354
T06C0.0374
%
T01
X2828Y3301
X4679Y1923
X6254Y2002
X11293Y5466
X11765Y4482
X14482Y8419
X15860Y8813
X16411Y10269
X16411Y10781
X16175Y11962
X15624Y11962
X16175Y12946
X16096Y13419
X16135Y14718
X16017Y15348
X16017Y15978
X16017Y16450
X14836Y17671
X14088Y17750
X13458Y17671
X14009Y18931
X14482Y19639
X15072Y19639
X13970Y20348
X11844Y17986
X11490Y18931
X11332Y19521
X11175Y20230
X10584Y20033
X9206Y19757
X8025Y17868
X6765Y16096
X8498Y15230
X9167Y15230
X9876Y14718
X10348Y13458
X11293Y12356
X11569Y13340
X11569Y13931
X11569Y14718
X12159Y15348
X11569Y15781
X11254Y17080
X10860Y17356
X10427Y17080
X13143Y16411
X14088Y16411
X14836Y14954
X14403Y14443
X14088Y11883
X13261Y10584
X13261Y9994
X14049Y9994
X15191Y10663
X12356Y10387
X11765Y9994
X11765Y9403
X11569Y11175
X12356Y11175
X12159Y11765
X17631Y17750
X17592Y18891
X18183Y20033
X18852Y19246
X19443Y19246
X20309Y18458
X19403Y15663
X20624Y14128
X20624Y13340
X15702Y5742
X18183Y2710
X17592Y1529
X19836Y1844
X19836Y2710
X20309Y3183
X20939Y4679
X4679Y10742
X4128Y10387
X3498Y10899
X2907Y14521
X3734Y17986
T02
X20643Y16637
X20643Y16145
X20643Y15653
X20643Y15161
T03
X1529Y1332
X8135Y8238
X9041Y8230
X9206Y8813
X9600Y8419
X9206Y9482
X9206Y10191
X9443Y10781
X9206Y11372
X9600Y11765
X8616Y11608
X8025Y11372
X7631Y11765
X7789Y10781
X8025Y10191
X6372Y13852
X16490Y7631
X18261Y6450
X18655Y4482
T04
X7080Y5151
X6096Y5151
X5112Y5151
X5112Y6135
X5112Y7120
X6096Y7120
X6116Y6175
X7080Y6175
X7080Y7159
T05
X19443Y10092
X19443Y11470
T06
X8616Y10781
M30
