G75*
G70*
%OFA0B0*%
%FSLAX24Y24*%
%IPPOS*%
%LPD*%
%AMOC8*
5,1,8,0,0,1.08239X$1,22.5*
%
%ADD10C,0.0434*%
%ADD11C,0.0417*%
%ADD12C,0.0631*%
%ADD13C,0.0082*%
%ADD14C,0.0081*%
%ADD15C,0.0454*%
%ADD16C,0.0530*%
D10*
X019443Y010092D03*
X019443Y011470D03*
D11*
X020475Y015161D02*
X020812Y015161D01*
X020812Y015653D02*
X020475Y015653D01*
X020475Y016145D02*
X020812Y016145D01*
X020812Y016637D02*
X020475Y016637D01*
D12*
X020624Y014128D03*
X020624Y013340D03*
X020820Y011962D03*
D13*
X018378Y018558D02*
X018378Y019146D01*
X018378Y018558D02*
X017948Y018558D01*
X017948Y019146D01*
X018378Y019146D01*
X018378Y018639D02*
X017948Y018639D01*
X017948Y018720D02*
X018378Y018720D01*
X018378Y018801D02*
X017948Y018801D01*
X017948Y018882D02*
X018378Y018882D01*
X018378Y018963D02*
X017948Y018963D01*
X017948Y019044D02*
X018378Y019044D01*
X018378Y019125D02*
X017948Y019125D01*
X017787Y019146D02*
X017787Y018558D01*
X017357Y018558D01*
X017357Y019146D01*
X017787Y019146D01*
X017787Y018639D02*
X017357Y018639D01*
X017357Y018720D02*
X017787Y018720D01*
X017787Y018801D02*
X017357Y018801D01*
X017357Y018882D02*
X017787Y018882D01*
X017787Y018963D02*
X017357Y018963D01*
X017357Y019044D02*
X017787Y019044D01*
X017787Y019125D02*
X017357Y019125D01*
X017787Y019739D02*
X017787Y020327D01*
X017787Y019739D02*
X017357Y019739D01*
X017357Y020327D01*
X017787Y020327D01*
X017787Y019820D02*
X017357Y019820D01*
X017357Y019901D02*
X017787Y019901D01*
X017787Y019982D02*
X017357Y019982D01*
X017357Y020063D02*
X017787Y020063D01*
X017787Y020144D02*
X017357Y020144D01*
X017357Y020225D02*
X017787Y020225D01*
X017787Y020306D02*
X017357Y020306D01*
X018378Y020327D02*
X018378Y019739D01*
X017948Y019739D01*
X017948Y020327D01*
X018378Y020327D01*
X018378Y019820D02*
X017948Y019820D01*
X017948Y019901D02*
X018378Y019901D01*
X018378Y019982D02*
X017948Y019982D01*
X017948Y020063D02*
X018378Y020063D01*
X018378Y020144D02*
X017948Y020144D01*
X017948Y020225D02*
X018378Y020225D01*
X018378Y020306D02*
X017948Y020306D01*
X018378Y003004D02*
X018378Y002416D01*
X017948Y002416D01*
X017948Y003004D01*
X018378Y003004D01*
X018378Y002497D02*
X017948Y002497D01*
X017948Y002578D02*
X018378Y002578D01*
X018378Y002659D02*
X017948Y002659D01*
X017948Y002740D02*
X018378Y002740D01*
X018378Y002821D02*
X017948Y002821D01*
X017948Y002902D02*
X018378Y002902D01*
X018378Y002983D02*
X017948Y002983D01*
X017787Y003004D02*
X017787Y002416D01*
X017357Y002416D01*
X017357Y003004D01*
X017787Y003004D01*
X017787Y002497D02*
X017357Y002497D01*
X017357Y002578D02*
X017787Y002578D01*
X017787Y002659D02*
X017357Y002659D01*
X017357Y002740D02*
X017787Y002740D01*
X017787Y002821D02*
X017357Y002821D01*
X017357Y002902D02*
X017787Y002902D01*
X017787Y002983D02*
X017357Y002983D01*
X017787Y001823D02*
X017787Y001235D01*
X017357Y001235D01*
X017357Y001823D01*
X017787Y001823D01*
X017787Y001316D02*
X017357Y001316D01*
X017357Y001397D02*
X017787Y001397D01*
X017787Y001478D02*
X017357Y001478D01*
X017357Y001559D02*
X017787Y001559D01*
X017787Y001640D02*
X017357Y001640D01*
X017357Y001721D02*
X017787Y001721D01*
X017787Y001802D02*
X017357Y001802D01*
X018378Y001823D02*
X018378Y001235D01*
X017948Y001235D01*
X017948Y001823D01*
X018378Y001823D01*
X018378Y001316D02*
X017948Y001316D01*
X017948Y001397D02*
X018378Y001397D01*
X018378Y001478D02*
X017948Y001478D01*
X017948Y001559D02*
X018378Y001559D01*
X018378Y001640D02*
X017948Y001640D01*
X017948Y001721D02*
X018378Y001721D01*
X018378Y001802D02*
X017948Y001802D01*
D14*
X020092Y001805D02*
X020486Y001805D01*
X020092Y001805D02*
X020092Y002375D01*
X020486Y002375D01*
X020486Y001805D01*
X020486Y001885D02*
X020092Y001885D01*
X020092Y001965D02*
X020486Y001965D01*
X020486Y002045D02*
X020092Y002045D01*
X020092Y002125D02*
X020486Y002125D01*
X020486Y002205D02*
X020092Y002205D01*
X020092Y002285D02*
X020486Y002285D01*
X020486Y002365D02*
X020092Y002365D01*
X020761Y001805D02*
X021155Y001805D01*
X020761Y001805D02*
X020761Y002375D01*
X021155Y002375D01*
X021155Y001805D01*
X021155Y001885D02*
X020761Y001885D01*
X020761Y001965D02*
X021155Y001965D01*
X021155Y002045D02*
X020761Y002045D01*
X020761Y002125D02*
X021155Y002125D01*
X021155Y002205D02*
X020761Y002205D01*
X020761Y002285D02*
X021155Y002285D01*
X021155Y002365D02*
X020761Y002365D01*
X020761Y003833D02*
X021155Y003833D01*
X020761Y003833D02*
X020761Y004403D01*
X021155Y004403D01*
X021155Y003833D01*
X021155Y003913D02*
X020761Y003913D01*
X020761Y003993D02*
X021155Y003993D01*
X021155Y004073D02*
X020761Y004073D01*
X020761Y004153D02*
X021155Y004153D01*
X021155Y004233D02*
X020761Y004233D01*
X020761Y004313D02*
X021155Y004313D01*
X021155Y004393D02*
X020761Y004393D01*
X020486Y003833D02*
X020092Y003833D01*
X020092Y004403D01*
X020486Y004403D01*
X020486Y003833D01*
X020486Y003913D02*
X020092Y003913D01*
X020092Y003993D02*
X020486Y003993D01*
X020486Y004073D02*
X020092Y004073D01*
X020092Y004153D02*
X020486Y004153D01*
X020486Y004233D02*
X020092Y004233D01*
X020092Y004313D02*
X020486Y004313D01*
X020486Y004393D02*
X020092Y004393D01*
X020092Y017159D02*
X020486Y017159D01*
X020092Y017159D02*
X020092Y017729D01*
X020486Y017729D01*
X020486Y017159D01*
X020486Y017239D02*
X020092Y017239D01*
X020092Y017319D02*
X020486Y017319D01*
X020486Y017399D02*
X020092Y017399D01*
X020092Y017479D02*
X020486Y017479D01*
X020486Y017559D02*
X020092Y017559D01*
X020092Y017639D02*
X020486Y017639D01*
X020486Y017719D02*
X020092Y017719D01*
X020761Y017159D02*
X021155Y017159D01*
X020761Y017159D02*
X020761Y017729D01*
X021155Y017729D01*
X021155Y017159D01*
X021155Y017239D02*
X020761Y017239D01*
X020761Y017319D02*
X021155Y017319D01*
X021155Y017399D02*
X020761Y017399D01*
X020761Y017479D02*
X021155Y017479D01*
X021155Y017559D02*
X020761Y017559D01*
X020761Y017639D02*
X021155Y017639D01*
X021155Y017719D02*
X020761Y017719D01*
X020761Y019187D02*
X021155Y019187D01*
X020761Y019187D02*
X020761Y019757D01*
X021155Y019757D01*
X021155Y019187D01*
X021155Y019267D02*
X020761Y019267D01*
X020761Y019347D02*
X021155Y019347D01*
X021155Y019427D02*
X020761Y019427D01*
X020761Y019507D02*
X021155Y019507D01*
X021155Y019587D02*
X020761Y019587D01*
X020761Y019667D02*
X021155Y019667D01*
X021155Y019747D02*
X020761Y019747D01*
X020486Y019187D02*
X020092Y019187D01*
X020092Y019757D01*
X020486Y019757D01*
X020486Y019187D01*
X020486Y019267D02*
X020092Y019267D01*
X020092Y019347D02*
X020486Y019347D01*
X020486Y019427D02*
X020092Y019427D01*
X020092Y019507D02*
X020486Y019507D01*
X020486Y019587D02*
X020092Y019587D01*
X020092Y019667D02*
X020486Y019667D01*
X020486Y019747D02*
X020092Y019747D01*
D15*
X008616Y010781D03*
D16*
X005112Y005151D03*
X006096Y005151D03*
X007080Y005151D03*
X007080Y006175D03*
X007080Y007159D03*
X006096Y007120D03*
X006116Y006175D03*
X005112Y006135D03*
X005112Y007120D03*
M02*
