G75*
G70*
%OFA0B0*%
%FSLAX24Y24*%
%IPPOS*%
%LPD*%
%AMOC8*
5,1,8,0,0,1.08239X$1,22.5*
%
%ADD10R,0.0866X0.0984*%
%ADD11R,0.0787X0.0197*%
%ADD12R,0.0880X0.0480*%
%ADD13R,0.0866X0.1417*%
%ADD14R,0.0310X0.0350*%
%ADD15R,0.0630X0.0710*%
%ADD16R,0.0315X0.0138*%
%ADD17R,0.0394X0.0433*%
%ADD18R,0.0433X0.0394*%
%ADD19R,0.0551X0.0709*%
%ADD20R,0.0354X0.0276*%
%ADD21R,0.0354X0.0157*%
%ADD22R,0.0512X0.0591*%
%ADD23R,0.0197X0.0591*%
%ADD24R,0.0591X0.0197*%
%ADD25R,0.0866X0.0512*%
%ADD26R,0.0940X0.0550*%
%ADD27R,0.0870X0.0550*%
%ADD28R,0.0236X0.0591*%
%ADD29R,0.0591X0.0236*%
%ADD30R,0.0866X0.0197*%
%ADD31R,0.0315X0.1387*%
%ADD32R,0.0591X0.0591*%
%ADD33R,0.0571X0.0197*%
%ADD34R,0.0197X0.0571*%
D10*
X018655Y009128D03*
X020742Y009128D03*
X020742Y012435D03*
X018655Y012435D03*
D11*
X018557Y011411D03*
X018557Y011096D03*
X018557Y010781D03*
X018557Y010466D03*
X018557Y010151D03*
D12*
X005702Y011840D03*
X005702Y012750D03*
X005702Y013660D03*
D13*
X003262Y012750D03*
D14*
X005687Y015197D03*
X006447Y015197D03*
X006067Y014397D03*
D15*
X005829Y018852D03*
X004709Y018852D03*
D16*
X005525Y016352D03*
X005525Y016096D03*
X005525Y015840D03*
X006194Y015840D03*
X006194Y016352D03*
D17*
X007297Y015781D03*
X007966Y015781D03*
X008517Y015781D03*
X009187Y015781D03*
X006037Y017986D03*
X005368Y017986D03*
X004817Y017986D03*
X004147Y017986D03*
X004147Y017238D03*
X004817Y017238D03*
X004817Y016450D03*
X004147Y016450D03*
X004147Y015387D03*
X004817Y015387D03*
X015171Y010112D03*
X015840Y010112D03*
X015840Y009364D03*
X015171Y009364D03*
X016903Y010348D03*
X017572Y010348D03*
X017572Y011096D03*
X016903Y011096D03*
X016943Y007631D03*
X017612Y007631D03*
X017612Y006883D03*
X016943Y006883D03*
X018714Y002907D03*
X019383Y002907D03*
X019383Y001687D03*
X018714Y001687D03*
X018714Y018655D03*
X019383Y018655D03*
X019383Y019836D03*
X018714Y019836D03*
D18*
X017218Y017080D03*
X016549Y017080D03*
X016549Y015860D03*
X017218Y015860D03*
X017218Y015112D03*
X016549Y015112D03*
X017730Y014443D03*
X018399Y014443D03*
X018399Y013694D03*
X017730Y013694D03*
X014895Y011332D03*
X014226Y011332D03*
X009935Y014167D03*
X009265Y014167D03*
X006037Y017238D03*
X005368Y017238D03*
X008084Y019757D03*
X008754Y019757D03*
X010407Y018970D03*
X011076Y018970D03*
X012257Y017868D03*
X012927Y017868D03*
X014423Y018931D03*
X015092Y018931D03*
X016116Y005742D03*
X016785Y005742D03*
X016746Y004836D03*
X017415Y004836D03*
X019108Y004088D03*
X019777Y004088D03*
X016667Y003025D03*
X015998Y003025D03*
X011785Y002120D03*
X011116Y002120D03*
X010722Y004718D03*
X010053Y004718D03*
X010053Y005466D03*
X010722Y005466D03*
X005840Y001569D03*
X005171Y001569D03*
D19*
X018380Y007631D03*
X019718Y007631D03*
D20*
X019443Y006706D03*
X019443Y006194D03*
X018655Y006450D03*
D21*
X018301Y004147D03*
X018301Y003635D03*
X017435Y003635D03*
X017435Y003891D03*
X017435Y004147D03*
X017238Y017927D03*
X017238Y018439D03*
X016372Y018439D03*
X016372Y018183D03*
X016372Y017927D03*
D22*
X003360Y001726D03*
X004108Y001726D03*
X016706Y009285D03*
X017454Y009285D03*
D23*
X014718Y012435D03*
X014403Y012435D03*
X014088Y012435D03*
X013773Y012435D03*
X013458Y012435D03*
X013143Y012435D03*
X012828Y012435D03*
X012513Y012435D03*
X012198Y012435D03*
X011883Y012435D03*
X011569Y012435D03*
X011569Y017002D03*
X011883Y017002D03*
X012198Y017002D03*
X012513Y017002D03*
X012828Y017002D03*
X013143Y017002D03*
X013458Y017002D03*
X013773Y017002D03*
X014088Y017002D03*
X014403Y017002D03*
X014718Y017002D03*
D24*
X015427Y016293D03*
X015427Y015978D03*
X015427Y015663D03*
X015427Y015348D03*
X015427Y015033D03*
X015427Y014718D03*
X015427Y014403D03*
X015427Y014088D03*
X015427Y013773D03*
X015427Y013458D03*
X015427Y013143D03*
X010860Y013143D03*
X010860Y013458D03*
X010860Y013773D03*
X010860Y014088D03*
X010860Y014403D03*
X010860Y014718D03*
X010860Y015033D03*
X010860Y015348D03*
X010860Y015663D03*
X010860Y015978D03*
X010860Y016293D03*
D25*
X016923Y014364D03*
X016923Y012710D03*
D26*
X012686Y003013D03*
D27*
X012651Y002013D03*
X015131Y002013D03*
X015131Y003013D03*
D28*
X013537Y018931D03*
X013222Y018931D03*
X012907Y018931D03*
X012592Y018931D03*
X012277Y018931D03*
X011962Y018931D03*
X011962Y019954D03*
X012277Y019954D03*
X012592Y019954D03*
X012907Y019954D03*
X013222Y019954D03*
X013537Y019954D03*
D29*
X013655Y019443D03*
X011844Y019443D03*
D30*
X009561Y019011D03*
X009561Y018511D03*
X009561Y018011D03*
X009561Y017511D03*
X007277Y017515D03*
X007277Y018015D03*
X007277Y018515D03*
X007277Y019011D03*
D31*
X007116Y009175D03*
X007616Y009175D03*
X008116Y009175D03*
X008616Y009175D03*
X006616Y009175D03*
X006116Y009175D03*
X005616Y009175D03*
X005116Y009175D03*
X004616Y009175D03*
X004116Y009175D03*
X003616Y009175D03*
X003616Y003175D03*
X004116Y003175D03*
X004616Y003175D03*
X005116Y003175D03*
X005616Y003175D03*
X006116Y003175D03*
X006616Y003175D03*
X007116Y003175D03*
X007616Y003175D03*
X008116Y003175D03*
X008616Y003175D03*
D32*
X007116Y005175D03*
X007116Y006175D03*
X007116Y007175D03*
X006116Y007175D03*
X006116Y006175D03*
X006116Y005175D03*
X005116Y005175D03*
X005116Y006175D03*
X005116Y007175D03*
D33*
X011883Y007198D03*
X011883Y006883D03*
X011883Y006569D03*
X011883Y006254D03*
X011883Y005939D03*
X011883Y005624D03*
X011883Y005309D03*
X011883Y004994D03*
X015112Y004994D03*
X015112Y005309D03*
X015112Y005624D03*
X015112Y005939D03*
X015112Y006254D03*
X015112Y006569D03*
X015112Y006883D03*
X015112Y007198D03*
D34*
X014600Y007710D03*
X014285Y007710D03*
X013970Y007710D03*
X013655Y007710D03*
X013340Y007710D03*
X013025Y007710D03*
X012710Y007710D03*
X012395Y007710D03*
X012395Y004482D03*
X012710Y004482D03*
X013025Y004482D03*
X013340Y004482D03*
X013655Y004482D03*
X013970Y004482D03*
X014285Y004482D03*
X014600Y004482D03*
M02*
