G75*
G70*
%OFA0B0*%
%FSLAX24Y24*%
%IPPOS*%
%LPD*%
%AMOC8*
5,1,8,0,0,1.08239X$1,22.5*
%
%ADD10C,0.0000*%
%ADD11C,0.0040*%
%ADD12C,0.0060*%
%ADD13C,0.0080*%
%ADD14C,0.0118*%
%ADD15R,0.0620X0.0240*%
%ADD16C,0.0050*%
%ADD17C,0.0100*%
%ADD18C,0.0020*%
%ADD19R,0.2559X0.0148*%
%ADD20R,0.0157X0.0157*%
%ADD21C,0.0010*%
D10*
X000141Y001230D02*
X000141Y019340D01*
X030062Y019340D01*
X030062Y001230D01*
X000141Y001230D01*
X027366Y005659D02*
X027368Y005685D01*
X027374Y005711D01*
X027384Y005736D01*
X027397Y005759D01*
X027413Y005779D01*
X027433Y005797D01*
X027455Y005812D01*
X027478Y005824D01*
X027504Y005832D01*
X027530Y005836D01*
X027556Y005836D01*
X027582Y005832D01*
X027608Y005824D01*
X027632Y005812D01*
X027653Y005797D01*
X027673Y005779D01*
X027689Y005759D01*
X027702Y005736D01*
X027712Y005711D01*
X027718Y005685D01*
X027720Y005659D01*
X027718Y005633D01*
X027712Y005607D01*
X027702Y005582D01*
X027689Y005559D01*
X027673Y005539D01*
X027653Y005521D01*
X027631Y005506D01*
X027608Y005494D01*
X027582Y005486D01*
X027556Y005482D01*
X027530Y005482D01*
X027504Y005486D01*
X027478Y005494D01*
X027454Y005506D01*
X027433Y005521D01*
X027413Y005539D01*
X027397Y005559D01*
X027384Y005582D01*
X027374Y005607D01*
X027368Y005633D01*
X027366Y005659D01*
X027366Y007037D02*
X027368Y007063D01*
X027374Y007089D01*
X027384Y007114D01*
X027397Y007137D01*
X027413Y007157D01*
X027433Y007175D01*
X027455Y007190D01*
X027478Y007202D01*
X027504Y007210D01*
X027530Y007214D01*
X027556Y007214D01*
X027582Y007210D01*
X027608Y007202D01*
X027632Y007190D01*
X027653Y007175D01*
X027673Y007157D01*
X027689Y007137D01*
X027702Y007114D01*
X027712Y007089D01*
X027718Y007063D01*
X027720Y007037D01*
X027718Y007011D01*
X027712Y006985D01*
X027702Y006960D01*
X027689Y006937D01*
X027673Y006917D01*
X027653Y006899D01*
X027631Y006884D01*
X027608Y006872D01*
X027582Y006864D01*
X027556Y006860D01*
X027530Y006860D01*
X027504Y006864D01*
X027478Y006872D01*
X027454Y006884D01*
X027433Y006899D01*
X027413Y006917D01*
X027397Y006937D01*
X027384Y006960D01*
X027374Y006985D01*
X027368Y007011D01*
X027366Y007037D01*
D11*
X026908Y007206D02*
X026676Y007206D01*
X026654Y007208D01*
X026633Y007213D01*
X026613Y007221D01*
X026595Y007232D01*
X026578Y007246D01*
X026564Y007263D01*
X026553Y007281D01*
X026545Y007301D01*
X026540Y007322D01*
X026538Y007344D01*
X026538Y007846D01*
X030043Y007846D01*
X030043Y004849D01*
X026538Y004849D01*
X026538Y005346D01*
X026539Y005346D02*
X026541Y005368D01*
X026546Y005390D01*
X026555Y005411D01*
X026566Y005430D01*
X026581Y005447D01*
X026598Y005462D01*
X026617Y005473D01*
X026638Y005482D01*
X026660Y005487D01*
X026682Y005489D01*
X026682Y005490D02*
X026892Y005490D01*
X027797Y006053D02*
X027797Y006632D01*
X027796Y006632D02*
X027798Y006655D01*
X027803Y006677D01*
X027812Y006697D01*
X027824Y006717D01*
X027838Y006734D01*
X027855Y006748D01*
X027875Y006760D01*
X027895Y006769D01*
X027917Y006774D01*
X027940Y006776D01*
X029513Y006858D01*
X029514Y006858D02*
X029527Y006856D01*
X029540Y006850D01*
X029551Y006841D01*
X029559Y006830D01*
X029564Y006817D01*
X029566Y006803D01*
X029564Y006789D01*
X029559Y006776D01*
X029551Y006765D01*
X029540Y006756D01*
X029527Y006750D01*
X029514Y006748D01*
X029513Y006748D02*
X028316Y006693D01*
X028288Y006693D01*
X028264Y006691D01*
X028241Y006686D01*
X028219Y006678D01*
X028198Y006667D01*
X028179Y006652D01*
X028163Y006636D01*
X028148Y006617D01*
X028137Y006596D01*
X028129Y006574D01*
X028124Y006551D01*
X028122Y006527D01*
X028122Y006179D01*
X028124Y006155D01*
X028129Y006131D01*
X028137Y006108D01*
X028149Y006087D01*
X028164Y006067D01*
X028181Y006050D01*
X028201Y006035D01*
X028222Y006023D01*
X028245Y006015D01*
X028269Y006010D01*
X028293Y006008D01*
X029519Y005942D01*
X029519Y005943D02*
X029532Y005940D01*
X029545Y005934D01*
X029555Y005925D01*
X029563Y005914D01*
X029568Y005901D01*
X029569Y005887D01*
X029566Y005874D01*
X029560Y005861D01*
X029551Y005851D01*
X029540Y005843D01*
X029527Y005838D01*
X029513Y005837D01*
X027929Y005920D01*
X027908Y005922D01*
X027888Y005927D01*
X027869Y005935D01*
X027851Y005945D01*
X027835Y005959D01*
X027821Y005975D01*
X027811Y005993D01*
X027803Y006012D01*
X027798Y006032D01*
X027796Y006053D01*
X027973Y005683D02*
X029419Y005617D01*
X029436Y005617D01*
X029458Y005615D01*
X029479Y005610D01*
X029499Y005602D01*
X029517Y005591D01*
X029534Y005577D01*
X029548Y005560D01*
X029559Y005542D01*
X029567Y005522D01*
X029572Y005501D01*
X029574Y005479D01*
X029574Y004871D01*
X029298Y005285D02*
X027957Y005197D01*
X027945Y005195D01*
X027934Y005189D01*
X027925Y005181D01*
X027918Y005171D01*
X027914Y005160D01*
X027913Y005148D01*
X027913Y005147D02*
X027913Y004871D01*
X027968Y005567D02*
X029303Y005479D01*
X029322Y005476D01*
X029339Y005469D01*
X029355Y005460D01*
X029369Y005447D01*
X029380Y005432D01*
X029388Y005416D01*
X029393Y005398D01*
X029394Y005379D01*
X029392Y005361D01*
X029386Y005343D01*
X029377Y005327D01*
X029365Y005313D01*
X029350Y005301D01*
X029334Y005292D01*
X029316Y005287D01*
X029298Y005285D01*
X027968Y005567D02*
X027954Y005569D01*
X027942Y005575D01*
X027930Y005584D01*
X027922Y005594D01*
X027916Y005607D01*
X027913Y005621D01*
X027914Y005635D01*
X027918Y005648D01*
X027925Y005660D01*
X027935Y005670D01*
X027946Y005678D01*
X027960Y005682D01*
X027974Y005683D01*
X027973Y007013D02*
X029419Y007079D01*
X029436Y007079D01*
X029458Y007081D01*
X029479Y007086D01*
X029499Y007094D01*
X029517Y007105D01*
X029534Y007119D01*
X029548Y007136D01*
X029559Y007154D01*
X029567Y007174D01*
X029572Y007195D01*
X029574Y007217D01*
X029574Y007824D01*
X029298Y007410D02*
X027957Y007499D01*
X027945Y007501D01*
X027934Y007507D01*
X027925Y007515D01*
X027918Y007525D01*
X027914Y007536D01*
X027913Y007548D01*
X027913Y007824D01*
X027968Y007129D02*
X029303Y007217D01*
X029322Y007220D01*
X029339Y007227D01*
X029355Y007236D01*
X029369Y007249D01*
X029380Y007264D01*
X029388Y007280D01*
X029393Y007298D01*
X029394Y007317D01*
X029392Y007335D01*
X029386Y007353D01*
X029377Y007369D01*
X029365Y007383D01*
X029350Y007395D01*
X029334Y007404D01*
X029316Y007409D01*
X029298Y007411D01*
X027968Y007129D02*
X027954Y007127D01*
X027942Y007121D01*
X027930Y007112D01*
X027922Y007102D01*
X027916Y007089D01*
X027913Y007075D01*
X027914Y007061D01*
X027918Y007048D01*
X027925Y007036D01*
X027935Y007026D01*
X027946Y007018D01*
X027960Y007014D01*
X027974Y007013D01*
X019954Y005667D02*
X019647Y005667D01*
X019800Y005514D02*
X019800Y005821D01*
X007488Y003224D02*
X007181Y003224D01*
X007334Y003377D02*
X007334Y003070D01*
X003790Y010127D02*
X003790Y010313D01*
X003790Y010220D02*
X003509Y010220D01*
X003603Y010127D01*
X003560Y010978D02*
X003513Y011024D01*
X003513Y011118D01*
X003560Y011165D01*
X003606Y011165D01*
X003793Y010978D01*
X003793Y011165D01*
X003743Y011888D02*
X003790Y011934D01*
X003790Y012028D01*
X003743Y012075D01*
X003696Y012075D01*
X003649Y012028D01*
X003649Y011981D01*
X003649Y012028D02*
X003603Y012075D01*
X003556Y012075D01*
X003509Y012028D01*
X003509Y011934D01*
X003556Y011888D01*
X001090Y012376D02*
X000809Y012376D01*
X000949Y012236D01*
X000949Y012423D01*
X016303Y017346D02*
X016610Y017346D01*
X016456Y017499D02*
X016456Y017192D01*
D12*
X015362Y017475D02*
X015362Y017768D01*
X015068Y017475D01*
X015142Y017401D01*
X015288Y017401D01*
X015362Y017475D01*
X015362Y017768D02*
X015288Y017842D01*
X015142Y017842D01*
X015068Y017768D01*
X015068Y017475D01*
X014901Y017621D02*
X014608Y017621D01*
X014828Y017842D01*
X014828Y017401D01*
X014441Y017475D02*
X014368Y017401D01*
X014221Y017401D01*
X014147Y017475D01*
X014147Y017768D01*
X014221Y017842D01*
X014368Y017842D01*
X014441Y017768D01*
X014368Y018386D02*
X014221Y018386D01*
X014147Y018459D01*
X014147Y018753D01*
X014221Y018826D01*
X014368Y018826D01*
X014441Y018753D01*
X014608Y018606D02*
X014901Y018606D01*
X015068Y018679D02*
X015215Y018826D01*
X015215Y018386D01*
X015068Y018386D02*
X015362Y018386D01*
X014828Y018386D02*
X014828Y018826D01*
X014608Y018606D01*
X014441Y018459D02*
X014368Y018386D01*
X011805Y018610D02*
X011511Y018610D01*
X011805Y018904D01*
X011805Y018977D01*
X011731Y019050D01*
X011584Y019050D01*
X011511Y018977D01*
X011198Y019050D02*
X011198Y018610D01*
X011344Y018610D02*
X011051Y018610D01*
X010884Y018610D02*
X010737Y018757D01*
X010811Y018757D02*
X010590Y018757D01*
X010590Y018610D02*
X010590Y019050D01*
X010811Y019050D01*
X010884Y018977D01*
X010884Y018830D01*
X010811Y018757D01*
X011051Y018904D02*
X011198Y019050D01*
X010191Y018610D02*
X009897Y018610D01*
X010044Y018610D02*
X010044Y019050D01*
X009897Y018904D01*
X009730Y018610D02*
X009437Y018610D01*
X009583Y018610D02*
X009583Y019050D01*
X009437Y018904D01*
X009270Y018977D02*
X009270Y018830D01*
X009196Y018757D01*
X008976Y018757D01*
X009123Y018757D02*
X009270Y018610D01*
X008976Y018610D02*
X008976Y019050D01*
X009196Y019050D01*
X009270Y018977D01*
X007618Y018949D02*
X007618Y018876D01*
X007545Y018803D01*
X007398Y018803D01*
X007324Y018876D01*
X007324Y018949D01*
X007398Y019023D01*
X007545Y019023D01*
X007618Y018949D01*
X007545Y018803D02*
X007618Y018729D01*
X007618Y018656D01*
X007545Y018582D01*
X007398Y018582D01*
X007324Y018656D01*
X007324Y018729D01*
X007398Y018803D01*
X007158Y018803D02*
X007158Y018949D01*
X007084Y019023D01*
X006864Y019023D01*
X006864Y018582D01*
X006864Y018729D02*
X007084Y018729D01*
X007158Y018803D01*
X007011Y018729D02*
X007158Y018582D01*
X006043Y018656D02*
X006043Y018729D01*
X005970Y018803D01*
X005750Y018803D01*
X005750Y018656D01*
X005823Y018582D01*
X005970Y018582D01*
X006043Y018656D01*
X005896Y018949D02*
X005750Y018803D01*
X005896Y018949D02*
X006043Y019023D01*
X005583Y018949D02*
X005509Y019023D01*
X005363Y019023D01*
X005289Y018949D01*
X005289Y018656D01*
X005363Y018582D01*
X005509Y018582D01*
X005583Y018656D01*
X004185Y018779D02*
X003891Y018779D01*
X004038Y018779D02*
X004038Y019220D01*
X003891Y019073D01*
X003724Y019146D02*
X003651Y019220D01*
X003504Y019220D01*
X003431Y019146D01*
X003431Y018853D01*
X003504Y018779D01*
X003651Y018779D01*
X003724Y018853D01*
X003271Y018779D02*
X003124Y018779D01*
X003197Y018779D02*
X003197Y019220D01*
X003124Y019220D02*
X003271Y019220D01*
X001240Y018629D02*
X000946Y018629D01*
X000946Y018409D01*
X001093Y018482D01*
X001167Y018482D01*
X001240Y018409D01*
X001240Y018262D01*
X001167Y018189D01*
X001020Y018189D01*
X000946Y018262D01*
X000780Y018262D02*
X000706Y018189D01*
X000559Y018189D01*
X000486Y018262D01*
X000486Y018556D01*
X000559Y018629D01*
X000706Y018629D01*
X000780Y018556D01*
X000744Y017655D02*
X000451Y017655D01*
X000744Y017361D01*
X000818Y017435D01*
X000818Y017582D01*
X000744Y017655D01*
X000451Y017655D02*
X000377Y017582D01*
X000377Y017435D01*
X000451Y017361D01*
X000744Y017361D01*
X000818Y017195D02*
X000818Y016901D01*
X000818Y017048D02*
X000377Y017048D01*
X000524Y016901D01*
X000451Y016734D02*
X000598Y016734D01*
X000671Y016661D01*
X000671Y016441D01*
X000671Y016587D02*
X000818Y016734D01*
X000818Y016441D02*
X000377Y016441D01*
X000377Y016661D01*
X000451Y016734D01*
X000425Y016212D02*
X000352Y016139D01*
X000352Y015992D01*
X000425Y015919D01*
X000499Y015919D01*
X000572Y015992D01*
X000572Y016212D01*
X000719Y016212D02*
X000425Y016212D01*
X000719Y016212D02*
X000792Y016139D01*
X000792Y015992D01*
X000719Y015919D01*
X000792Y015752D02*
X000645Y015605D01*
X000645Y015679D02*
X000645Y015458D01*
X000792Y015458D02*
X000352Y015458D01*
X000352Y015679D01*
X000425Y015752D01*
X000572Y015752D01*
X000645Y015679D01*
X001229Y014495D02*
X001155Y014422D01*
X001155Y014128D01*
X001229Y014055D01*
X001376Y014055D01*
X001449Y014128D01*
X001616Y014128D02*
X001689Y014055D01*
X001836Y014055D01*
X001909Y014128D01*
X001909Y014202D01*
X001836Y014275D01*
X001762Y014275D01*
X001836Y014275D02*
X001909Y014348D01*
X001909Y014422D01*
X001836Y014495D01*
X001689Y014495D01*
X001616Y014422D01*
X001449Y014422D02*
X001376Y014495D01*
X001229Y014495D01*
X001155Y013708D02*
X001376Y013708D01*
X001449Y013634D01*
X001449Y013488D01*
X001376Y013414D01*
X001155Y013414D01*
X001155Y013267D02*
X001155Y013708D01*
X001302Y013414D02*
X001449Y013267D01*
X001616Y013488D02*
X001909Y013488D01*
X001836Y013708D02*
X001616Y013488D01*
X001836Y013267D02*
X001836Y013708D01*
X004108Y013611D02*
X004328Y013611D01*
X004402Y013684D01*
X004402Y013831D01*
X004328Y013905D01*
X004108Y013905D01*
X004108Y013464D01*
X004255Y013611D02*
X004402Y013464D01*
X004568Y013538D02*
X004642Y013464D01*
X004789Y013464D01*
X004862Y013538D01*
X004862Y013684D01*
X004789Y013758D01*
X004715Y013758D01*
X004568Y013684D01*
X004568Y013905D01*
X004862Y013905D01*
X004789Y014055D02*
X004789Y014495D01*
X004568Y014275D01*
X004862Y014275D01*
X004789Y014645D02*
X004642Y014645D01*
X004568Y014719D01*
X004568Y014866D01*
X004789Y014866D01*
X004862Y014792D01*
X004862Y014719D01*
X004789Y014645D01*
X004568Y014866D02*
X004715Y015012D01*
X004862Y015086D01*
X004402Y015012D02*
X004402Y014866D01*
X004328Y014792D01*
X004108Y014792D01*
X004108Y014645D02*
X004108Y015086D01*
X004328Y015086D01*
X004402Y015012D01*
X004255Y014792D02*
X004402Y014645D01*
X004328Y014495D02*
X004181Y014495D01*
X004108Y014422D01*
X004108Y014128D01*
X004181Y014055D01*
X004328Y014055D01*
X004402Y014128D01*
X004402Y014422D02*
X004328Y014495D01*
X005306Y015433D02*
X005606Y015433D01*
X005606Y016573D01*
X005306Y016573D01*
X005306Y015433D01*
X006275Y015901D02*
X006348Y015827D01*
X006495Y015827D01*
X006568Y015901D01*
X006568Y016194D01*
X006495Y016268D01*
X006348Y016268D01*
X006275Y016194D01*
X006275Y015901D01*
X006421Y015974D02*
X006568Y015827D01*
X006735Y015901D02*
X006808Y015827D01*
X006955Y015827D01*
X007029Y015901D01*
X007029Y015974D01*
X006955Y016047D01*
X006882Y016047D01*
X006955Y016047D02*
X007029Y016121D01*
X007029Y016194D01*
X006955Y016268D01*
X006808Y016268D01*
X006735Y016194D01*
X006843Y016929D02*
X006696Y017076D01*
X006769Y017076D02*
X006549Y017076D01*
X006549Y016929D02*
X006549Y017369D01*
X006769Y017369D01*
X006843Y017296D01*
X006843Y017149D01*
X006769Y017076D01*
X007009Y017002D02*
X007009Y016929D01*
X007009Y017002D02*
X007303Y017296D01*
X007303Y017369D01*
X007009Y017369D01*
X011588Y015997D02*
X011588Y015703D01*
X011662Y015630D01*
X011809Y015630D01*
X011882Y015703D01*
X011882Y015997D01*
X011809Y016070D01*
X011662Y016070D01*
X011588Y015997D01*
X011735Y015776D02*
X011882Y015630D01*
X012049Y015630D02*
X012049Y015703D01*
X012342Y015997D01*
X012342Y016070D01*
X012049Y016070D01*
X018054Y016844D02*
X018054Y016885D01*
X018153Y016741D02*
X019921Y016741D01*
X020023Y016844D02*
X020023Y016885D01*
X020023Y017149D02*
X020023Y017381D01*
X020023Y017645D02*
X020023Y017881D01*
X020023Y018145D02*
X020023Y018381D01*
X020023Y018641D02*
X020023Y018682D01*
X019925Y018789D02*
X018153Y018789D01*
X018153Y018788D02*
X018136Y018787D01*
X018119Y018782D01*
X018104Y018775D01*
X018090Y018765D01*
X018078Y018753D01*
X018068Y018739D01*
X018061Y018724D01*
X018056Y018707D01*
X018055Y018690D01*
X018054Y018694D02*
X018054Y018645D01*
X018054Y018381D02*
X018054Y018149D01*
X018054Y017881D02*
X018054Y017649D01*
X018054Y017381D02*
X018054Y017149D01*
X018281Y016464D02*
X018428Y016464D01*
X018355Y016464D02*
X018355Y016023D01*
X018428Y016023D02*
X018281Y016023D01*
X018588Y016097D02*
X018662Y016023D01*
X018808Y016023D01*
X018882Y016097D01*
X019049Y016097D02*
X019122Y016023D01*
X019269Y016023D01*
X019342Y016097D01*
X019342Y016170D01*
X019269Y016244D01*
X019195Y016244D01*
X019269Y016244D02*
X019342Y016317D01*
X019342Y016390D01*
X019269Y016464D01*
X019122Y016464D01*
X019049Y016390D01*
X018882Y016390D02*
X018808Y016464D01*
X018662Y016464D01*
X018588Y016390D01*
X018588Y016097D01*
X019509Y016097D02*
X019582Y016023D01*
X019729Y016023D01*
X019803Y016097D01*
X019803Y016170D01*
X019729Y016244D01*
X019656Y016244D01*
X019729Y016244D02*
X019803Y016317D01*
X019803Y016390D01*
X019729Y016464D01*
X019582Y016464D01*
X019509Y016390D01*
X021127Y016310D02*
X021201Y016384D01*
X021274Y016384D01*
X021348Y016310D01*
X021421Y016384D01*
X021494Y016384D01*
X021568Y016310D01*
X021568Y016163D01*
X021494Y016090D01*
X021494Y015923D02*
X021568Y015850D01*
X021568Y015703D01*
X021494Y015630D01*
X021201Y015630D01*
X021127Y015703D01*
X021127Y015850D01*
X021201Y015923D01*
X021201Y016090D02*
X021127Y016163D01*
X021127Y016310D01*
X021348Y016310D02*
X021348Y016237D01*
X021348Y016550D02*
X021348Y016844D01*
X021568Y016771D02*
X021127Y016771D01*
X021348Y016550D01*
X021568Y017401D02*
X021568Y017548D01*
X021568Y017475D02*
X021127Y017475D01*
X021127Y017548D02*
X021127Y017401D01*
X021201Y017708D02*
X021494Y017708D01*
X021568Y017782D01*
X021568Y017928D01*
X021494Y018002D01*
X021494Y018169D02*
X021568Y018242D01*
X021568Y018389D01*
X021494Y018462D01*
X021421Y018462D01*
X021348Y018389D01*
X021348Y018315D01*
X021348Y018389D02*
X021274Y018462D01*
X021201Y018462D01*
X021127Y018389D01*
X021127Y018242D01*
X021201Y018169D01*
X021201Y018002D02*
X021127Y017928D01*
X021127Y017782D01*
X021201Y017708D01*
X021274Y018629D02*
X021127Y018776D01*
X021568Y018776D01*
X021568Y018629D02*
X021568Y018923D01*
X023938Y016593D02*
X023938Y016299D01*
X024159Y016299D01*
X024085Y016446D01*
X024085Y016519D01*
X024159Y016593D01*
X024305Y016593D01*
X024379Y016519D01*
X024379Y016373D01*
X024305Y016299D01*
X024305Y016132D02*
X024379Y016059D01*
X024379Y015912D01*
X024305Y015839D01*
X024305Y015672D02*
X024379Y015599D01*
X024379Y015452D01*
X024305Y015378D01*
X024012Y015378D01*
X023938Y015452D01*
X023938Y015599D01*
X024012Y015672D01*
X024012Y015839D02*
X023938Y015912D01*
X023938Y016059D01*
X024012Y016132D01*
X024085Y016132D01*
X024159Y016059D01*
X024232Y016132D01*
X024305Y016132D01*
X024159Y016059D02*
X024159Y015986D01*
X024671Y015910D02*
X025111Y015910D01*
X025111Y015763D02*
X025111Y016057D01*
X024818Y015763D02*
X024671Y015910D01*
X024744Y015596D02*
X024671Y015523D01*
X024671Y015376D01*
X024744Y015303D01*
X024744Y015136D02*
X024891Y015136D01*
X024964Y015062D01*
X024964Y014842D01*
X024964Y014989D02*
X025111Y015136D01*
X025111Y015303D02*
X024818Y015596D01*
X024744Y015596D01*
X025111Y015596D02*
X025111Y015303D01*
X024744Y015136D02*
X024671Y015062D01*
X024671Y014842D01*
X025111Y014842D01*
X025955Y014489D02*
X026101Y014489D01*
X026028Y014489D02*
X026028Y014049D01*
X025955Y014049D02*
X026101Y014049D01*
X026261Y014122D02*
X026335Y014049D01*
X026482Y014049D01*
X026555Y014122D01*
X026722Y014049D02*
X027015Y014343D01*
X027015Y014416D01*
X026942Y014489D01*
X026795Y014489D01*
X026722Y014416D01*
X026555Y014416D02*
X026482Y014489D01*
X026335Y014489D01*
X026261Y014416D01*
X026261Y014122D01*
X026722Y014049D02*
X027015Y014049D01*
X027182Y014122D02*
X027182Y014416D01*
X027256Y014489D01*
X027402Y014489D01*
X027476Y014416D01*
X027182Y014122D01*
X027256Y014049D01*
X027402Y014049D01*
X027476Y014122D01*
X027476Y014416D01*
X027276Y014645D02*
X026836Y014645D01*
X026836Y014866D01*
X026909Y014939D01*
X027056Y014939D01*
X027130Y014866D01*
X027130Y014645D01*
X027130Y014792D02*
X027276Y014939D01*
X027276Y015106D02*
X026983Y015399D01*
X026909Y015399D01*
X026836Y015326D01*
X026836Y015179D01*
X026909Y015106D01*
X027276Y015106D02*
X027276Y015399D01*
X027203Y015566D02*
X026909Y015566D01*
X026836Y015640D01*
X026836Y015786D01*
X026909Y015860D01*
X027203Y015566D01*
X027276Y015640D01*
X027276Y015786D01*
X027203Y015860D01*
X026909Y015860D01*
X028411Y016057D02*
X028484Y015910D01*
X028631Y015763D01*
X028631Y015983D01*
X028704Y016057D01*
X028778Y016057D01*
X028851Y015983D01*
X028851Y015836D01*
X028778Y015763D01*
X028631Y015763D01*
X028558Y015596D02*
X028484Y015596D01*
X028411Y015523D01*
X028411Y015376D01*
X028484Y015303D01*
X028484Y015136D02*
X028411Y015062D01*
X028411Y014916D01*
X028484Y014842D01*
X028778Y014842D01*
X028851Y014916D01*
X028851Y015062D01*
X028778Y015136D01*
X028851Y015303D02*
X028558Y015596D01*
X028851Y015596D02*
X028851Y015303D01*
X028871Y014102D02*
X028651Y014102D01*
X028651Y013661D01*
X028871Y013661D01*
X028944Y013735D01*
X028944Y014028D01*
X028871Y014102D01*
X028484Y014102D02*
X028484Y013661D01*
X028191Y014102D01*
X028191Y013661D01*
X028024Y013735D02*
X028024Y013881D01*
X027877Y013881D01*
X028024Y013735D02*
X027950Y013661D01*
X027804Y013661D01*
X027730Y013735D01*
X027730Y014028D01*
X027804Y014102D01*
X027950Y014102D01*
X028024Y014028D01*
X028748Y012999D02*
X028675Y012926D01*
X028675Y012632D01*
X028748Y012559D01*
X028895Y012559D01*
X028969Y012632D01*
X029135Y012559D02*
X029429Y012852D01*
X029429Y012926D01*
X029356Y012999D01*
X029209Y012999D01*
X029135Y012926D01*
X028969Y012926D02*
X028895Y012999D01*
X028748Y012999D01*
X029135Y012559D02*
X029429Y012559D01*
X029596Y012632D02*
X029669Y012559D01*
X029816Y012559D01*
X029889Y012632D01*
X029889Y012779D01*
X029816Y012852D01*
X029743Y012852D01*
X029596Y012779D01*
X029596Y012999D01*
X029889Y012999D01*
X029816Y011346D02*
X029596Y011125D01*
X029889Y011125D01*
X029816Y010905D02*
X029816Y011346D01*
X029429Y011272D02*
X029429Y011199D01*
X029135Y010905D01*
X029429Y010905D01*
X028969Y010979D02*
X028895Y010905D01*
X028748Y010905D01*
X028675Y010979D01*
X028675Y011272D01*
X028748Y011346D01*
X028895Y011346D01*
X028969Y011272D01*
X029135Y011272D02*
X029209Y011346D01*
X029356Y011346D01*
X029429Y011272D01*
X027960Y011272D02*
X027960Y011199D01*
X027887Y011125D01*
X027960Y011052D01*
X027960Y010979D01*
X027887Y010905D01*
X027740Y010905D01*
X027667Y010979D01*
X027500Y010905D02*
X027206Y010905D01*
X027500Y011199D01*
X027500Y011272D01*
X027426Y011346D01*
X027280Y011346D01*
X027206Y011272D01*
X027039Y011272D02*
X026966Y011346D01*
X026819Y011346D01*
X026746Y011272D01*
X026746Y010979D01*
X026819Y010905D01*
X026966Y010905D01*
X027039Y010979D01*
X027667Y011272D02*
X027740Y011346D01*
X027887Y011346D01*
X027960Y011272D01*
X027887Y011125D02*
X027813Y011125D01*
X027927Y009968D02*
X028221Y009527D01*
X027927Y009527D02*
X028221Y009968D01*
X028387Y009968D02*
X028681Y009968D01*
X028534Y009968D02*
X028534Y009527D01*
X028848Y009527D02*
X029141Y009821D01*
X029141Y009894D01*
X029068Y009968D01*
X028921Y009968D01*
X028848Y009894D01*
X028848Y009527D02*
X029141Y009527D01*
X029308Y009601D02*
X029602Y009894D01*
X029602Y009601D01*
X029528Y009527D01*
X029381Y009527D01*
X029308Y009601D01*
X029308Y009894D01*
X029381Y009968D01*
X029528Y009968D01*
X029602Y009894D01*
X029665Y008983D02*
X029372Y008983D01*
X029372Y008763D01*
X029518Y008837D01*
X029592Y008837D01*
X029665Y008763D01*
X029665Y008616D01*
X029592Y008543D01*
X029445Y008543D01*
X029372Y008616D01*
X029205Y008543D02*
X028911Y008983D01*
X029205Y008983D02*
X028911Y008543D01*
X027303Y009527D02*
X027009Y009968D01*
X026843Y009968D02*
X026549Y009968D01*
X026696Y009968D02*
X026696Y009527D01*
X027009Y009527D02*
X027303Y009968D01*
X026516Y008787D02*
X026222Y008346D01*
X026055Y008346D02*
X025908Y008493D01*
X025982Y008493D02*
X025762Y008493D01*
X025762Y008346D02*
X025762Y008787D01*
X025982Y008787D01*
X026055Y008713D01*
X026055Y008566D01*
X025982Y008493D01*
X026222Y008787D02*
X026516Y008346D01*
X025401Y008346D02*
X025108Y008346D01*
X025401Y008640D01*
X025401Y008713D01*
X025328Y008787D01*
X025181Y008787D01*
X025108Y008713D01*
X024941Y008713D02*
X024867Y008787D01*
X024721Y008787D01*
X024647Y008713D01*
X024480Y008713D02*
X024407Y008787D01*
X024260Y008787D01*
X024187Y008713D01*
X024187Y008420D01*
X024260Y008346D01*
X024407Y008346D01*
X024480Y008420D01*
X024647Y008346D02*
X024941Y008640D01*
X024941Y008713D01*
X024941Y008346D02*
X024647Y008346D01*
X024581Y007409D02*
X024801Y007409D01*
X024874Y007335D01*
X024874Y007188D01*
X024801Y007115D01*
X024581Y007115D01*
X024727Y007115D02*
X024874Y006968D01*
X025041Y007042D02*
X025114Y006968D01*
X025261Y006968D01*
X025334Y007042D01*
X025334Y007115D01*
X025261Y007188D01*
X025188Y007188D01*
X025261Y007188D02*
X025334Y007262D01*
X025334Y007335D01*
X025261Y007409D01*
X025114Y007409D01*
X025041Y007335D01*
X024581Y007409D02*
X024581Y006968D01*
X025501Y007042D02*
X025575Y006968D01*
X025721Y006968D01*
X025795Y007042D01*
X025795Y007335D01*
X025501Y007042D01*
X025501Y007335D01*
X025575Y007409D01*
X025721Y007409D01*
X025795Y007335D01*
X028608Y006591D02*
X029048Y006591D01*
X029048Y006444D02*
X029048Y006738D01*
X028755Y006444D02*
X028608Y006591D01*
X028608Y006278D02*
X029048Y005984D01*
X029048Y006278D02*
X028608Y005984D01*
X025795Y004803D02*
X025501Y004803D01*
X025648Y004803D02*
X025648Y005243D01*
X025501Y005096D01*
X025334Y005096D02*
X025334Y005170D01*
X025261Y005243D01*
X025114Y005243D01*
X025041Y005170D01*
X024874Y005170D02*
X024874Y005023D01*
X024801Y004950D01*
X024581Y004950D01*
X024727Y004950D02*
X024874Y004803D01*
X025041Y004876D02*
X025114Y004803D01*
X025261Y004803D01*
X025334Y004876D01*
X025334Y004950D01*
X025261Y005023D01*
X025188Y005023D01*
X025261Y005023D02*
X025334Y005096D01*
X024874Y005170D02*
X024801Y005243D01*
X024581Y005243D01*
X024581Y004803D01*
X024524Y004653D02*
X024450Y004579D01*
X024524Y004653D02*
X024671Y004653D01*
X024744Y004579D01*
X024744Y004506D01*
X024450Y004212D01*
X024744Y004212D01*
X024911Y004286D02*
X024984Y004212D01*
X025131Y004212D01*
X025204Y004286D01*
X025204Y004359D01*
X025131Y004433D01*
X025057Y004433D01*
X025131Y004433D02*
X025204Y004506D01*
X025204Y004579D01*
X025131Y004653D01*
X024984Y004653D01*
X024911Y004579D01*
X024284Y004579D02*
X024284Y004433D01*
X024210Y004359D01*
X023990Y004359D01*
X023990Y004212D02*
X023990Y004653D01*
X024210Y004653D01*
X024284Y004579D01*
X024137Y004359D02*
X024284Y004212D01*
X023149Y004186D02*
X023149Y003892D01*
X023076Y003819D01*
X022929Y003819D01*
X022855Y003892D01*
X023149Y004186D01*
X023076Y004259D01*
X022929Y004259D01*
X022855Y004186D01*
X022855Y003892D01*
X022689Y003892D02*
X022615Y003819D01*
X022468Y003819D01*
X022395Y003892D01*
X022228Y003892D02*
X022155Y003819D01*
X022008Y003819D01*
X021935Y003892D01*
X021935Y004186D01*
X022008Y004259D01*
X022155Y004259D01*
X022228Y004186D01*
X022395Y004186D02*
X022468Y004259D01*
X022615Y004259D01*
X022689Y004186D01*
X022689Y004112D01*
X022615Y004039D01*
X022689Y003965D01*
X022689Y003892D01*
X022615Y004039D02*
X022542Y004039D01*
X021775Y004259D02*
X021628Y004259D01*
X021701Y004259D02*
X021701Y003819D01*
X021628Y003819D02*
X021775Y003819D01*
X021716Y002291D02*
X021863Y002291D01*
X021937Y002217D01*
X021937Y002144D01*
X021863Y002070D01*
X021937Y001997D01*
X021937Y001924D01*
X021863Y001850D01*
X021716Y001850D01*
X021643Y001924D01*
X021790Y002070D02*
X021863Y002070D01*
X021643Y002217D02*
X021716Y002291D01*
X021476Y002291D02*
X021183Y002291D01*
X021329Y002291D02*
X021329Y001850D01*
X021016Y001850D02*
X020722Y002291D01*
X021016Y002291D02*
X020722Y001850D01*
X022103Y001924D02*
X022177Y001850D01*
X022324Y001850D01*
X022397Y001924D01*
X022397Y002217D01*
X022103Y001924D01*
X022103Y002217D01*
X022177Y002291D01*
X022324Y002291D01*
X022397Y002217D01*
X023990Y002291D02*
X023990Y001850D01*
X023990Y001997D02*
X024210Y001997D01*
X024284Y002070D01*
X024284Y002217D01*
X024210Y002291D01*
X023990Y002291D01*
X024137Y001997D02*
X024284Y001850D01*
X024450Y001850D02*
X024744Y002144D01*
X024744Y002217D01*
X024671Y002291D01*
X024524Y002291D01*
X024450Y002217D01*
X024450Y001850D02*
X024744Y001850D01*
X024911Y001850D02*
X025204Y002144D01*
X025204Y002217D01*
X025131Y002291D01*
X024984Y002291D01*
X024911Y002217D01*
X025368Y002094D02*
X025368Y001653D01*
X025662Y001653D01*
X025828Y001653D02*
X026122Y001653D01*
X026289Y001653D02*
X026509Y001653D01*
X026582Y001727D01*
X026582Y002020D01*
X026509Y002094D01*
X026289Y002094D01*
X026289Y001653D01*
X025975Y001873D02*
X025828Y001873D01*
X025828Y001653D02*
X025828Y002094D01*
X026122Y002094D01*
X026749Y001947D02*
X026896Y002094D01*
X026896Y001653D01*
X026749Y001653D02*
X027043Y001653D01*
X025204Y001850D02*
X024911Y001850D01*
X028518Y003105D02*
X028591Y003031D01*
X028738Y003031D01*
X028811Y003105D01*
X028811Y003178D01*
X028738Y003251D01*
X028591Y003251D01*
X028518Y003325D01*
X028518Y003398D01*
X028591Y003472D01*
X028738Y003472D01*
X028811Y003398D01*
X028978Y003472D02*
X028978Y003031D01*
X029125Y003178D01*
X029271Y003031D01*
X029271Y003472D01*
X029438Y003325D02*
X029585Y003472D01*
X029585Y003031D01*
X029438Y003031D02*
X029732Y003031D01*
X022645Y007165D02*
X022352Y007605D01*
X022185Y007532D02*
X022185Y007385D01*
X022111Y007312D01*
X021891Y007312D01*
X021891Y007165D02*
X021891Y007605D01*
X022111Y007605D01*
X022185Y007532D01*
X021725Y007532D02*
X021651Y007605D01*
X021504Y007605D01*
X021431Y007532D01*
X021431Y007239D01*
X021504Y007165D01*
X021651Y007165D01*
X021725Y007239D01*
X021725Y007385D01*
X021578Y007385D01*
X021174Y007385D02*
X021101Y007459D01*
X021174Y007385D02*
X021174Y007239D01*
X021101Y007165D01*
X020807Y007165D01*
X020734Y007239D01*
X020734Y007385D01*
X020807Y007459D01*
X020807Y007625D02*
X020734Y007699D01*
X020734Y007846D01*
X020807Y007919D01*
X020881Y007919D01*
X020954Y007846D01*
X021027Y007919D01*
X021101Y007919D01*
X021174Y007846D01*
X021174Y007699D01*
X021101Y007625D01*
X020954Y007772D02*
X020954Y007846D01*
X020881Y008086D02*
X020734Y008233D01*
X021174Y008233D01*
X021174Y008379D02*
X021174Y008086D01*
X022352Y007165D02*
X022645Y007605D01*
X021174Y006731D02*
X021174Y006584D01*
X021101Y006511D01*
X020807Y006805D01*
X021101Y006805D01*
X021174Y006731D01*
X021101Y006511D02*
X020807Y006511D01*
X020734Y006584D01*
X020734Y006731D01*
X020807Y006805D01*
X020807Y006344D02*
X020881Y006344D01*
X020954Y006271D01*
X021027Y006344D01*
X021101Y006344D01*
X021174Y006271D01*
X021174Y006124D01*
X021101Y006051D01*
X021101Y005884D02*
X021174Y005810D01*
X021174Y005664D01*
X021101Y005590D01*
X020807Y005590D01*
X020734Y005664D01*
X020734Y005810D01*
X020807Y005884D01*
X020807Y006051D02*
X020734Y006124D01*
X020734Y006271D01*
X020807Y006344D01*
X020954Y006271D02*
X020954Y006197D01*
X017631Y005033D02*
X017631Y004739D01*
X017337Y005033D01*
X017264Y005033D01*
X017190Y004960D01*
X017190Y004813D01*
X017264Y004739D01*
X017264Y004573D02*
X017337Y004573D01*
X017411Y004499D01*
X017484Y004573D01*
X017557Y004573D01*
X017631Y004499D01*
X017631Y004352D01*
X017557Y004279D01*
X017557Y004112D02*
X017631Y004039D01*
X017631Y003892D01*
X017557Y003819D01*
X017264Y003819D01*
X017190Y003892D01*
X017190Y004039D01*
X017264Y004112D01*
X017264Y004279D02*
X017190Y004352D01*
X017190Y004499D01*
X017264Y004573D01*
X017411Y004499D02*
X017411Y004426D01*
X017454Y002881D02*
X017527Y002808D01*
X017527Y002734D01*
X017454Y002661D01*
X017527Y002587D01*
X017527Y002514D01*
X017454Y002441D01*
X017307Y002441D01*
X017234Y002514D01*
X017067Y002514D02*
X017067Y002587D01*
X016993Y002661D01*
X016920Y002661D01*
X016993Y002661D02*
X017067Y002734D01*
X017067Y002808D01*
X016993Y002881D01*
X016847Y002881D01*
X016773Y002808D01*
X016606Y002808D02*
X016533Y002881D01*
X016386Y002881D01*
X016313Y002808D01*
X016313Y002514D01*
X016386Y002441D01*
X016533Y002441D01*
X016606Y002514D01*
X016773Y002514D02*
X016847Y002441D01*
X016993Y002441D01*
X017067Y002514D01*
X017380Y002661D02*
X017454Y002661D01*
X017454Y002881D02*
X017307Y002881D01*
X017234Y002808D01*
X015362Y002217D02*
X015362Y002144D01*
X015288Y002070D01*
X015362Y001997D01*
X015362Y001924D01*
X015288Y001850D01*
X015142Y001850D01*
X015068Y001924D01*
X014901Y001850D02*
X014608Y001850D01*
X014755Y001850D02*
X014755Y002291D01*
X014608Y002144D01*
X014441Y002217D02*
X014441Y002070D01*
X014368Y001997D01*
X014147Y001997D01*
X014147Y001850D02*
X014147Y002291D01*
X014368Y002291D01*
X014441Y002217D01*
X014294Y001997D02*
X014441Y001850D01*
X015068Y002217D02*
X015142Y002291D01*
X015288Y002291D01*
X015362Y002217D01*
X015288Y002070D02*
X015215Y002070D01*
X013327Y001997D02*
X013327Y001924D01*
X013253Y001850D01*
X013106Y001850D01*
X013033Y001924D01*
X013033Y001997D01*
X013106Y002070D01*
X013253Y002070D01*
X013327Y001997D01*
X013253Y002070D02*
X013327Y002144D01*
X013327Y002217D01*
X013253Y002291D01*
X013106Y002291D01*
X013033Y002217D01*
X013033Y002144D01*
X013106Y002070D01*
X012866Y001924D02*
X012793Y001850D01*
X012646Y001850D01*
X012573Y001924D01*
X012573Y002217D01*
X012646Y002291D01*
X012793Y002291D01*
X012866Y002217D01*
X012866Y001924D01*
X012866Y001850D02*
X012719Y001997D01*
X012676Y002382D02*
X012676Y002602D01*
X012676Y002382D02*
X013075Y002382D01*
X013196Y002751D02*
X013196Y002853D01*
X013075Y003227D02*
X012676Y003227D01*
X012676Y003026D01*
X011366Y002197D02*
X011366Y002124D01*
X011293Y002051D01*
X011366Y001977D01*
X011366Y001904D01*
X011293Y001830D01*
X011146Y001830D01*
X011072Y001904D01*
X010906Y001830D02*
X010759Y001977D01*
X010832Y001977D02*
X010612Y001977D01*
X010612Y001830D02*
X010612Y002271D01*
X010832Y002271D01*
X010906Y002197D01*
X010906Y002051D01*
X010832Y001977D01*
X011072Y002197D02*
X011146Y002271D01*
X011293Y002271D01*
X011366Y002197D01*
X011293Y002051D02*
X011219Y002051D01*
X009456Y002751D02*
X009456Y002853D01*
X008936Y003026D02*
X008936Y003227D01*
X009335Y003227D01*
X008936Y002602D02*
X008936Y002382D01*
X009335Y002382D01*
X009119Y002291D02*
X008899Y002070D01*
X009193Y002070D01*
X009119Y001850D02*
X009119Y002291D01*
X008732Y002217D02*
X008732Y001924D01*
X008659Y001850D01*
X008512Y001850D01*
X008439Y001924D01*
X008439Y002217D01*
X008512Y002291D01*
X008659Y002291D01*
X008732Y002217D01*
X008586Y001997D02*
X008732Y001850D01*
X006831Y001850D02*
X006537Y001850D01*
X006831Y002144D01*
X006831Y002217D01*
X006757Y002291D01*
X006610Y002291D01*
X006537Y002217D01*
X006370Y002217D02*
X006297Y002291D01*
X006077Y002291D01*
X006077Y001850D01*
X006297Y001850D01*
X006370Y001924D01*
X006370Y002217D01*
X005059Y002638D02*
X004765Y002638D01*
X004912Y002638D02*
X004912Y003078D01*
X004765Y002931D01*
X004599Y003005D02*
X004599Y002711D01*
X004525Y002638D01*
X004378Y002638D01*
X004305Y002711D01*
X004305Y003005D01*
X004378Y003078D01*
X004525Y003078D01*
X004599Y003005D01*
X004569Y003248D02*
X004968Y003248D01*
X004968Y003449D01*
X004968Y003873D02*
X004968Y004093D01*
X004569Y004093D01*
X004448Y003724D02*
X004448Y003622D01*
X004452Y002784D02*
X004599Y002638D01*
X005683Y003498D02*
X005756Y003425D01*
X005903Y003425D01*
X005976Y003498D01*
X006143Y003498D02*
X006217Y003425D01*
X006363Y003425D01*
X006437Y003498D01*
X006437Y003572D01*
X006363Y003645D01*
X006290Y003645D01*
X006363Y003645D02*
X006437Y003719D01*
X006437Y003792D01*
X006363Y003865D01*
X006217Y003865D01*
X006143Y003792D01*
X005976Y003792D02*
X005903Y003865D01*
X005756Y003865D01*
X005683Y003792D01*
X005683Y003498D01*
X005756Y004016D02*
X005903Y004016D01*
X005976Y004089D01*
X006143Y004089D02*
X006217Y004016D01*
X006363Y004016D01*
X006437Y004089D01*
X006437Y004162D01*
X006363Y004236D01*
X006290Y004236D01*
X006363Y004236D02*
X006437Y004309D01*
X006437Y004382D01*
X006363Y004456D01*
X006217Y004456D01*
X006143Y004382D01*
X005976Y004382D02*
X005903Y004456D01*
X005756Y004456D01*
X005683Y004382D01*
X005683Y004089D01*
X005756Y004016D01*
X006604Y004089D02*
X006677Y004016D01*
X006824Y004016D01*
X006897Y004089D01*
X006897Y004162D01*
X006824Y004236D01*
X006677Y004236D01*
X006604Y004309D01*
X006604Y004382D01*
X006677Y004456D01*
X006824Y004456D01*
X006897Y004382D01*
X006897Y004309D01*
X006824Y004236D01*
X006677Y004236D02*
X006604Y004162D01*
X006604Y004089D01*
X006677Y003865D02*
X006604Y003792D01*
X006604Y003719D01*
X006677Y003645D01*
X006897Y003645D01*
X006897Y003498D02*
X006897Y003792D01*
X006824Y003865D01*
X006677Y003865D01*
X006604Y003498D02*
X006677Y003425D01*
X006824Y003425D01*
X006897Y003498D01*
X004468Y005197D02*
X004175Y005197D01*
X004468Y005490D01*
X004468Y005564D01*
X004395Y005637D01*
X004248Y005637D01*
X004175Y005564D01*
X004008Y005564D02*
X004008Y005417D01*
X003935Y005343D01*
X003714Y005343D01*
X003714Y005197D02*
X003714Y005637D01*
X003935Y005637D01*
X004008Y005564D01*
X003861Y005343D02*
X004008Y005197D01*
X003484Y005197D02*
X003191Y005197D01*
X003337Y005197D02*
X003337Y005637D01*
X003191Y005490D01*
X003024Y005564D02*
X003024Y005417D01*
X002950Y005343D01*
X002730Y005343D01*
X002730Y005197D02*
X002730Y005637D01*
X002950Y005637D01*
X003024Y005564D01*
X002877Y005343D02*
X003024Y005197D01*
X001369Y004850D02*
X001369Y004409D01*
X001222Y004409D02*
X001516Y004409D01*
X001055Y004483D02*
X001055Y004776D01*
X000982Y004850D01*
X000762Y004850D01*
X000762Y004409D01*
X000982Y004409D01*
X001055Y004483D01*
X001222Y004703D02*
X001369Y004850D01*
X001332Y006378D02*
X001626Y006671D01*
X001626Y006745D01*
X001552Y006818D01*
X001405Y006818D01*
X001332Y006745D01*
X001165Y006745D02*
X001092Y006818D01*
X000945Y006818D01*
X000872Y006745D01*
X000872Y006451D01*
X000945Y006378D01*
X001092Y006378D01*
X001165Y006451D01*
X001332Y006378D02*
X001626Y006378D01*
X000712Y006378D02*
X000565Y006378D01*
X000638Y006378D02*
X000638Y006818D01*
X000565Y006818D02*
X000712Y006818D01*
X000835Y007756D02*
X000982Y007756D01*
X001055Y007829D01*
X001222Y007756D02*
X001516Y007756D01*
X001369Y007756D02*
X001369Y008196D01*
X001222Y008049D01*
X001055Y008123D02*
X000982Y008196D01*
X000835Y008196D01*
X000762Y008123D01*
X000762Y007829D01*
X000835Y007756D01*
X001032Y009527D02*
X000959Y009601D01*
X000959Y009894D01*
X001032Y009968D01*
X001179Y009968D01*
X001252Y009894D01*
X001252Y009601D01*
X001179Y009527D01*
X001032Y009527D01*
X001105Y009674D02*
X001252Y009527D01*
X001419Y009527D02*
X001712Y009821D01*
X001712Y009894D01*
X001639Y009968D01*
X001492Y009968D01*
X001419Y009894D01*
X001419Y009527D02*
X001712Y009527D01*
X003911Y008123D02*
X003911Y007829D01*
X003985Y007756D01*
X004131Y007756D01*
X004205Y007829D01*
X004372Y007756D02*
X004665Y008049D01*
X004665Y008123D01*
X004592Y008196D01*
X004445Y008196D01*
X004372Y008123D01*
X004205Y008123D02*
X004131Y008196D01*
X003985Y008196D01*
X003911Y008123D01*
X004372Y007756D02*
X004665Y007756D01*
X010014Y010118D02*
X010160Y010118D01*
X010087Y010118D02*
X010087Y010558D01*
X010014Y010558D02*
X010160Y010558D01*
X010321Y010485D02*
X010321Y010191D01*
X010394Y010118D01*
X010541Y010118D01*
X010614Y010191D01*
X010781Y010191D02*
X010854Y010118D01*
X011001Y010118D01*
X011074Y010191D01*
X011074Y010265D01*
X011001Y010338D01*
X010928Y010338D01*
X011001Y010338D02*
X011074Y010411D01*
X011074Y010485D01*
X011001Y010558D01*
X010854Y010558D01*
X010781Y010485D01*
X010614Y010485D02*
X010541Y010558D01*
X010394Y010558D01*
X010321Y010485D01*
X011241Y010485D02*
X011315Y010558D01*
X011461Y010558D01*
X011535Y010485D01*
X011535Y010411D01*
X011241Y010118D01*
X011535Y010118D01*
X018084Y010008D02*
X018084Y009861D01*
X018158Y009788D01*
X018451Y009788D01*
X018524Y009861D01*
X018524Y010008D01*
X018451Y010081D01*
X018158Y010081D01*
X018084Y010008D01*
X018378Y009934D02*
X018524Y010081D01*
X018451Y010248D02*
X018524Y010321D01*
X018524Y010468D01*
X018451Y010542D01*
X018378Y010542D01*
X018304Y010468D01*
X018304Y010248D01*
X018451Y010248D01*
X018304Y010248D02*
X018158Y010395D01*
X018084Y010542D01*
X019356Y010979D02*
X019429Y010905D01*
X019723Y010905D01*
X019796Y010979D01*
X019796Y011125D01*
X019723Y011199D01*
X019796Y011366D02*
X019503Y011659D01*
X019429Y011659D01*
X019356Y011586D01*
X019356Y011439D01*
X019429Y011366D01*
X019429Y011199D02*
X019356Y011125D01*
X019356Y010979D01*
X019796Y011366D02*
X019796Y011659D01*
X019796Y011826D02*
X019796Y012120D01*
X019796Y011973D02*
X019356Y011973D01*
X019503Y011826D01*
X021307Y014842D02*
X021454Y014842D01*
X021528Y014916D01*
X021694Y014842D02*
X021988Y015136D01*
X021988Y015209D01*
X021915Y015283D01*
X021768Y015283D01*
X021694Y015209D01*
X021528Y015209D02*
X021454Y015283D01*
X021307Y015283D01*
X021234Y015209D01*
X021234Y014916D01*
X021307Y014842D01*
X021694Y014842D02*
X021988Y014842D01*
X022155Y014916D02*
X022228Y014842D01*
X022375Y014842D01*
X022448Y014916D01*
X022448Y015209D01*
X022155Y014916D01*
X022155Y015209D01*
X022228Y015283D01*
X022375Y015283D01*
X022448Y015209D01*
X025171Y018582D02*
X025465Y018582D01*
X025631Y018582D02*
X025925Y018582D01*
X026092Y018582D02*
X026312Y018582D01*
X026385Y018656D01*
X026385Y018949D01*
X026312Y019023D01*
X026092Y019023D01*
X026092Y018582D01*
X025778Y018803D02*
X025631Y018803D01*
X025631Y019023D02*
X025631Y018582D01*
X025171Y018582D02*
X025171Y019023D01*
X025631Y019023D02*
X025925Y019023D01*
X026552Y018949D02*
X026626Y019023D01*
X026772Y019023D01*
X026846Y018949D01*
X026846Y018876D01*
X026552Y018582D01*
X026846Y018582D01*
X028518Y017965D02*
X028518Y017892D01*
X028591Y017818D01*
X028738Y017818D01*
X028811Y017745D01*
X028811Y017672D01*
X028738Y017598D01*
X028591Y017598D01*
X028518Y017672D01*
X028518Y017965D02*
X028591Y018039D01*
X028738Y018039D01*
X028811Y017965D01*
X028978Y018039D02*
X028978Y017598D01*
X029125Y017745D01*
X029271Y017598D01*
X029271Y018039D01*
X029438Y017965D02*
X029512Y018039D01*
X029658Y018039D01*
X029732Y017965D01*
X029732Y017892D01*
X029438Y017598D01*
X029732Y017598D01*
X012539Y005046D02*
X012246Y005046D01*
X012246Y004826D01*
X012392Y004900D01*
X012466Y004900D01*
X012539Y004826D01*
X012539Y004679D01*
X012466Y004606D01*
X012319Y004606D01*
X012246Y004679D01*
X012079Y004679D02*
X012005Y004606D01*
X011859Y004606D01*
X011785Y004679D01*
X011785Y004973D01*
X011859Y005046D01*
X012005Y005046D01*
X012079Y004973D01*
X012079Y004679D01*
X012079Y004606D02*
X011932Y004753D01*
D13*
X002810Y010176D02*
X001410Y010176D01*
X001410Y012756D01*
X002810Y012756D01*
X002810Y010176D01*
X002110Y004970D02*
X001913Y004576D01*
X002306Y004576D01*
X002110Y004970D01*
X003488Y017804D02*
X003881Y017804D01*
X003881Y018671D02*
X003488Y018671D01*
X021873Y013592D02*
X021873Y010127D01*
X022031Y009970D01*
X025495Y009970D01*
X025653Y010127D01*
X025653Y013592D01*
X025495Y013749D01*
X022031Y013749D01*
X021873Y013592D01*
X026450Y009419D02*
X026450Y008237D01*
X029029Y008237D01*
X029029Y009419D01*
X026450Y009419D01*
D14*
X003606Y018493D03*
D15*
X002110Y004993D03*
D16*
X002425Y006072D02*
X002976Y006072D01*
X002976Y006111D01*
X002976Y006387D02*
X002976Y006623D01*
X002976Y006899D02*
X002976Y006938D01*
X002425Y006938D01*
X002425Y006899D01*
X002425Y006111D02*
X002425Y006072D01*
X007621Y006033D02*
X007621Y006151D01*
X016283Y006151D01*
X016283Y006033D01*
X016873Y005954D02*
X016873Y014615D01*
X016991Y014615D01*
X016283Y014537D02*
X016283Y014419D01*
X007621Y014419D01*
X007621Y014537D01*
X007621Y017056D02*
X007621Y017174D01*
X016283Y017174D01*
X016283Y017056D01*
X019321Y017009D02*
X019323Y017034D01*
X019329Y017058D01*
X019338Y017080D01*
X019351Y017101D01*
X019367Y017120D01*
X019386Y017136D01*
X019407Y017149D01*
X019429Y017158D01*
X019453Y017164D01*
X019478Y017166D01*
X019503Y017164D01*
X019527Y017158D01*
X019549Y017149D01*
X019570Y017136D01*
X019589Y017120D01*
X019605Y017101D01*
X019618Y017080D01*
X019627Y017058D01*
X019633Y017034D01*
X019635Y017009D01*
X019633Y016984D01*
X019627Y016960D01*
X019618Y016938D01*
X019605Y016917D01*
X019589Y016898D01*
X019570Y016882D01*
X019549Y016869D01*
X019527Y016860D01*
X019503Y016854D01*
X019478Y016852D01*
X019453Y016854D01*
X019429Y016860D01*
X019407Y016869D01*
X019386Y016882D01*
X019367Y016898D01*
X019351Y016917D01*
X019338Y016938D01*
X019329Y016960D01*
X019323Y016984D01*
X019321Y017009D01*
X022228Y017371D02*
X022228Y017765D01*
X022228Y018159D02*
X022228Y018552D01*
X022740Y018041D02*
X022897Y017883D01*
X022740Y017883D01*
X022740Y018041D01*
X024196Y018159D02*
X024196Y018552D01*
X024196Y017765D02*
X024196Y017371D01*
X027011Y016446D02*
X027129Y016446D01*
X027011Y016446D02*
X027011Y018297D01*
X027129Y018297D01*
X027602Y018297D02*
X027799Y018297D01*
X028271Y018297D02*
X028389Y018297D01*
X028389Y016446D01*
X028271Y016446D01*
X027799Y016446D02*
X027602Y016446D01*
X027346Y017371D02*
X027348Y017408D01*
X027354Y017445D01*
X027363Y017480D01*
X027377Y017515D01*
X027393Y017548D01*
X027414Y017579D01*
X027437Y017608D01*
X027463Y017634D01*
X027492Y017657D01*
X027523Y017678D01*
X027556Y017694D01*
X027591Y017708D01*
X027626Y017717D01*
X027663Y017723D01*
X027700Y017725D01*
X027737Y017723D01*
X027774Y017717D01*
X027809Y017708D01*
X027844Y017694D01*
X027877Y017678D01*
X027908Y017657D01*
X027937Y017634D01*
X027963Y017608D01*
X027986Y017579D01*
X028007Y017548D01*
X028023Y017515D01*
X028037Y017480D01*
X028046Y017445D01*
X028052Y017408D01*
X028054Y017371D01*
X028052Y017334D01*
X028046Y017297D01*
X028037Y017262D01*
X028023Y017227D01*
X028007Y017194D01*
X027986Y017163D01*
X027963Y017134D01*
X027937Y017108D01*
X027908Y017085D01*
X027877Y017064D01*
X027844Y017048D01*
X027809Y017034D01*
X027774Y017025D01*
X027737Y017019D01*
X027700Y017017D01*
X027663Y017019D01*
X027626Y017025D01*
X027591Y017034D01*
X027556Y017048D01*
X027523Y017064D01*
X027492Y017085D01*
X027463Y017108D01*
X027437Y017134D01*
X027414Y017163D01*
X027393Y017194D01*
X027377Y017227D01*
X027363Y017262D01*
X027354Y017297D01*
X027348Y017334D01*
X027346Y017371D01*
X019629Y014615D02*
X019629Y005954D01*
X019511Y005954D01*
X019647Y005052D02*
X019847Y005052D01*
X020647Y005052D02*
X020847Y005052D01*
X020847Y002052D01*
X020647Y002052D01*
X019847Y002052D02*
X019647Y002052D01*
X018847Y002052D02*
X018647Y002052D01*
X018647Y005052D01*
X018847Y005052D01*
X016991Y005954D02*
X016873Y005954D01*
X016283Y003513D02*
X016283Y003395D01*
X007621Y003395D01*
X007621Y003513D01*
X021952Y004773D02*
X021952Y004930D01*
X021952Y004773D02*
X022110Y004773D01*
X023369Y004773D02*
X023527Y004773D01*
X023527Y004930D01*
X023527Y006190D02*
X023527Y006348D01*
X023369Y006348D01*
X022110Y006348D02*
X021952Y006348D01*
X021952Y006190D01*
X027011Y004123D02*
X027011Y002273D01*
X027129Y002273D01*
X027602Y002273D02*
X027799Y002273D01*
X028271Y002273D02*
X028389Y002273D01*
X028389Y004123D01*
X028271Y004123D01*
X027799Y004123D02*
X027602Y004123D01*
X027129Y004123D02*
X027011Y004123D01*
X027346Y003198D02*
X027348Y003235D01*
X027354Y003272D01*
X027363Y003307D01*
X027377Y003342D01*
X027393Y003375D01*
X027414Y003406D01*
X027437Y003435D01*
X027463Y003461D01*
X027492Y003484D01*
X027523Y003505D01*
X027556Y003521D01*
X027591Y003535D01*
X027626Y003544D01*
X027663Y003550D01*
X027700Y003552D01*
X027737Y003550D01*
X027774Y003544D01*
X027809Y003535D01*
X027844Y003521D01*
X027877Y003505D01*
X027908Y003484D01*
X027937Y003461D01*
X027963Y003435D01*
X027986Y003406D01*
X028007Y003375D01*
X028023Y003342D01*
X028037Y003307D01*
X028046Y003272D01*
X028052Y003235D01*
X028054Y003198D01*
X028052Y003161D01*
X028046Y003124D01*
X028037Y003089D01*
X028023Y003054D01*
X028007Y003021D01*
X027986Y002990D01*
X027963Y002961D01*
X027937Y002935D01*
X027908Y002912D01*
X027877Y002891D01*
X027844Y002875D01*
X027809Y002861D01*
X027774Y002852D01*
X027737Y002846D01*
X027700Y002844D01*
X027663Y002846D01*
X027626Y002852D01*
X027591Y002861D01*
X027556Y002875D01*
X027523Y002891D01*
X027492Y002912D01*
X027463Y002935D01*
X027437Y002961D01*
X027414Y002990D01*
X027393Y003021D01*
X027377Y003054D01*
X027363Y003089D01*
X027354Y003124D01*
X027348Y003161D01*
X027346Y003198D01*
X027621Y010875D02*
X027621Y011820D01*
X028330Y011820D02*
X028330Y010875D01*
X019629Y014615D02*
X019511Y014615D01*
D17*
X016771Y013535D02*
X016771Y007035D01*
X016271Y007035D02*
X011521Y007035D01*
X010021Y007035D02*
X008021Y007035D01*
X005021Y007035D02*
X004771Y007035D01*
X004771Y013535D01*
X005021Y013535D01*
X010021Y013535D02*
X016271Y013535D01*
X025227Y013434D02*
X025229Y013454D01*
X025234Y013474D01*
X025244Y013492D01*
X025256Y013509D01*
X025271Y013523D01*
X025289Y013533D01*
X025308Y013541D01*
X025328Y013545D01*
X025348Y013545D01*
X025368Y013541D01*
X025387Y013533D01*
X025405Y013523D01*
X025420Y013509D01*
X025432Y013492D01*
X025442Y013474D01*
X025447Y013454D01*
X025449Y013434D01*
X025447Y013414D01*
X025442Y013394D01*
X025432Y013376D01*
X025420Y013359D01*
X025405Y013345D01*
X025387Y013335D01*
X025368Y013327D01*
X025348Y013323D01*
X025328Y013323D01*
X025308Y013327D01*
X025289Y013335D01*
X025271Y013345D01*
X025256Y013359D01*
X025244Y013376D01*
X025234Y013394D01*
X025229Y013414D01*
X025227Y013434D01*
D18*
X026509Y009369D02*
X026608Y009271D01*
X028871Y009271D01*
X028970Y009369D01*
X028871Y009271D02*
X028871Y008976D01*
X029019Y008976D01*
X029019Y008730D02*
X028871Y008730D01*
X028871Y008336D01*
X026608Y008336D02*
X026608Y008730D01*
X026460Y008730D01*
X026460Y008976D02*
X026608Y008976D01*
X026608Y009271D01*
D19*
X027740Y008311D03*
D20*
X026243Y003316D03*
X026007Y003080D03*
X026007Y017253D03*
X026243Y017489D03*
D21*
X019929Y016718D02*
X019929Y016768D01*
X019930Y016767D02*
X019945Y016770D01*
X019959Y016775D01*
X019971Y016783D01*
X019982Y016794D01*
X019990Y016806D01*
X019995Y016820D01*
X019998Y016835D01*
X020047Y016836D01*
X020048Y016835D01*
X020045Y016815D01*
X020040Y016795D01*
X020031Y016777D01*
X020019Y016761D01*
X020004Y016746D01*
X019988Y016734D01*
X019970Y016725D01*
X019950Y016720D01*
X019930Y016717D01*
X019930Y016726D01*
X019949Y016728D01*
X019967Y016734D01*
X019983Y016742D01*
X019999Y016753D01*
X020012Y016766D01*
X020023Y016782D01*
X020031Y016798D01*
X020037Y016816D01*
X020039Y016835D01*
X020030Y016835D01*
X020027Y016816D01*
X020021Y016798D01*
X020012Y016781D01*
X019999Y016766D01*
X019984Y016753D01*
X019967Y016744D01*
X019949Y016738D01*
X019930Y016735D01*
X019930Y016744D01*
X019947Y016747D01*
X019964Y016752D01*
X019979Y016761D01*
X019993Y016772D01*
X020004Y016786D01*
X020013Y016801D01*
X020018Y016818D01*
X020021Y016835D01*
X020012Y016835D01*
X020009Y016817D01*
X020002Y016800D01*
X019993Y016785D01*
X019980Y016772D01*
X019965Y016763D01*
X019948Y016756D01*
X019930Y016753D01*
X019930Y016762D01*
X019946Y016765D01*
X019961Y016771D01*
X019974Y016779D01*
X019986Y016791D01*
X019994Y016804D01*
X020000Y016819D01*
X020003Y016835D01*
X018031Y016836D02*
X018081Y016836D01*
X018080Y016835D02*
X018083Y016820D01*
X018088Y016806D01*
X018096Y016794D01*
X018107Y016783D01*
X018119Y016775D01*
X018133Y016770D01*
X018148Y016767D01*
X018149Y016718D01*
X018148Y016717D01*
X018128Y016720D01*
X018108Y016725D01*
X018090Y016734D01*
X018074Y016746D01*
X018059Y016761D01*
X018047Y016777D01*
X018038Y016795D01*
X018033Y016815D01*
X018030Y016835D01*
X018039Y016835D01*
X018041Y016816D01*
X018047Y016798D01*
X018055Y016782D01*
X018066Y016766D01*
X018079Y016753D01*
X018095Y016742D01*
X018111Y016734D01*
X018129Y016728D01*
X018148Y016726D01*
X018148Y016735D01*
X018129Y016738D01*
X018111Y016744D01*
X018094Y016753D01*
X018079Y016766D01*
X018066Y016781D01*
X018057Y016798D01*
X018051Y016816D01*
X018048Y016835D01*
X018057Y016835D01*
X018060Y016818D01*
X018065Y016801D01*
X018074Y016786D01*
X018085Y016772D01*
X018099Y016761D01*
X018114Y016752D01*
X018131Y016747D01*
X018148Y016744D01*
X018148Y016753D01*
X018130Y016756D01*
X018113Y016763D01*
X018098Y016772D01*
X018085Y016785D01*
X018076Y016800D01*
X018069Y016817D01*
X018066Y016835D01*
X018075Y016835D01*
X018078Y016819D01*
X018084Y016804D01*
X018092Y016791D01*
X018104Y016779D01*
X018117Y016771D01*
X018132Y016765D01*
X018148Y016762D01*
X020047Y018694D02*
X019997Y018694D01*
X019998Y018695D02*
X019995Y018710D01*
X019990Y018724D01*
X019982Y018736D01*
X019971Y018747D01*
X019959Y018755D01*
X019945Y018760D01*
X019930Y018763D01*
X019929Y018812D01*
X019930Y018813D01*
X019950Y018810D01*
X019970Y018805D01*
X019988Y018796D01*
X020004Y018784D01*
X020019Y018769D01*
X020031Y018753D01*
X020040Y018735D01*
X020045Y018715D01*
X020048Y018695D01*
X020039Y018695D01*
X020037Y018714D01*
X020031Y018732D01*
X020023Y018748D01*
X020012Y018764D01*
X019999Y018777D01*
X019983Y018788D01*
X019967Y018796D01*
X019949Y018802D01*
X019930Y018804D01*
X019930Y018795D01*
X019949Y018792D01*
X019967Y018786D01*
X019984Y018777D01*
X019999Y018764D01*
X020012Y018749D01*
X020021Y018732D01*
X020027Y018714D01*
X020030Y018695D01*
X020021Y018695D01*
X020018Y018712D01*
X020013Y018729D01*
X020004Y018744D01*
X019993Y018758D01*
X019979Y018769D01*
X019964Y018778D01*
X019947Y018783D01*
X019930Y018786D01*
X019930Y018777D01*
X019948Y018774D01*
X019965Y018767D01*
X019980Y018758D01*
X019993Y018745D01*
X020002Y018730D01*
X020009Y018713D01*
X020012Y018695D01*
X020003Y018695D01*
X020000Y018711D01*
X019994Y018726D01*
X019986Y018739D01*
X019974Y018751D01*
X019961Y018759D01*
X019946Y018765D01*
X019930Y018768D01*
M02*
