%
M48
M72
T01C0.0197
T02C0.0200
T03C0.0315
T04C0.0354
T05C0.0420
%
T01
X27001Y9005
X27493Y9005
X27986Y9005
X28478Y9005
T02
X4866Y2804
X6558Y4419
X4866Y5167
X3684Y5757
X2897Y5363
X4078Y8316
X4078Y11466
X2346Y12371
X1716Y13434
X2700Y15403
X692Y15993
X692Y17017
X1086Y18434
X2700Y17765
X5220Y18749
X6991Y18710
X7818Y18749
X6755Y17489
X6834Y16190
X6834Y15403
X6047Y15009
X6047Y14419
X8803Y12844
X9590Y16584
X11795Y18080
X10574Y18749
X15299Y18159
X17267Y17174
X19393Y18198
X20929Y18198
X21401Y16820
X20889Y16623
X20889Y15560
X19078Y15560
X17897Y15600
X20456Y12923
X22188Y12332
X22385Y13041
X23330Y12450
X24866Y13159
X25141Y12450
X25377Y11072
X22740Y10915
X22188Y10285
X21598Y8513
X22188Y8316
X21795Y7765
X21007Y7489
X20810Y6938
X21204Y6545
X21362Y5954
X22464Y5875
X22464Y5245
X21716Y4576
X22543Y3986
X22385Y3434
X21755Y3434
X21165Y3434
X17188Y4812
X19039Y7529
X19236Y8513
X18251Y10678
X19039Y11111
X18645Y11702
X17385Y11820
X17385Y12450
X22740Y15836
X22740Y16899
X25929Y14576
X27306Y14576
X27425Y14025
X27897Y13237
X29275Y14222
X29078Y15206
X28291Y17371
X29117Y17765
X26913Y17371
X29078Y11466
X23606Y8316
X23015Y8316
X23881Y7450
X23291Y7332
X24196Y6584
X24787Y7135
X25732Y7332
X25732Y4655
X26834Y4300
X28684Y3001
X29669Y3986
X13330Y4970
X8999Y6663
X8409Y6663
T03
X26755Y7785
X28842Y7785
X28842Y4911
X26755Y4911
T04
X27543Y5659
X27543Y7037
T05
X15535Y8789
X15535Y9773
X15535Y10797
X15535Y11781
X6007Y11781
X6007Y10797
X6007Y9773
X6007Y8789
M30
