G75*
G70*
%OFA0B0*%
%FSLAX24Y24*%
%IPPOS*%
%LPD*%
%AMOC8*
5,1,8,0,0,1.08239X$1,22.5*
%
%ADD10C,0.0552*%
%ADD11C,0.0434*%
%ADD12C,0.0082*%
%ADD13C,0.0417*%
%ADD14C,0.0710*%
D10*
X026519Y004911D02*
X026991Y004911D01*
X028606Y004911D02*
X029078Y004911D01*
X029078Y007785D02*
X028606Y007785D01*
X026991Y007785D02*
X026519Y007785D01*
D11*
X027543Y007037D03*
X027543Y005659D03*
D12*
X002207Y005729D02*
X000241Y005729D01*
X002207Y005729D02*
X002207Y002731D01*
X000241Y002731D01*
X000241Y005729D01*
X000241Y002812D02*
X002207Y002812D01*
X002207Y002893D02*
X000241Y002893D01*
X000241Y002974D02*
X002207Y002974D01*
X002207Y003055D02*
X000241Y003055D01*
X000241Y003136D02*
X002207Y003136D01*
X002207Y003217D02*
X000241Y003217D01*
X000241Y003298D02*
X002207Y003298D01*
X002207Y003379D02*
X000241Y003379D01*
X000241Y003460D02*
X002207Y003460D01*
X002207Y003541D02*
X000241Y003541D01*
X000241Y003622D02*
X002207Y003622D01*
X002207Y003703D02*
X000241Y003703D01*
X000241Y003784D02*
X002207Y003784D01*
X002207Y003865D02*
X000241Y003865D01*
X000241Y003946D02*
X002207Y003946D01*
X002207Y004027D02*
X000241Y004027D01*
X000241Y004108D02*
X002207Y004108D01*
X002207Y004189D02*
X000241Y004189D01*
X000241Y004270D02*
X002207Y004270D01*
X002207Y004351D02*
X000241Y004351D01*
X000241Y004432D02*
X002207Y004432D01*
X002207Y004513D02*
X000241Y004513D01*
X000241Y004594D02*
X002207Y004594D01*
X002207Y004675D02*
X000241Y004675D01*
X000241Y004756D02*
X002207Y004756D01*
X002207Y004837D02*
X000241Y004837D01*
X000241Y004918D02*
X002207Y004918D01*
X002207Y004999D02*
X000241Y004999D01*
X000241Y005080D02*
X002207Y005080D01*
X002207Y005161D02*
X000241Y005161D01*
X000241Y005242D02*
X002207Y005242D01*
X002207Y005323D02*
X000241Y005323D01*
X000241Y005404D02*
X002207Y005404D01*
X002207Y005485D02*
X000241Y005485D01*
X000241Y005566D02*
X002207Y005566D01*
X002207Y005647D02*
X000241Y005647D01*
X000241Y005728D02*
X002207Y005728D01*
X002207Y008731D02*
X000241Y008731D01*
X000241Y011729D01*
X002207Y011729D01*
X002207Y008731D01*
X002207Y008812D02*
X000241Y008812D01*
X000241Y008893D02*
X002207Y008893D01*
X002207Y008974D02*
X000241Y008974D01*
X000241Y009055D02*
X002207Y009055D01*
X002207Y009136D02*
X000241Y009136D01*
X000241Y009217D02*
X002207Y009217D01*
X002207Y009298D02*
X000241Y009298D01*
X000241Y009379D02*
X002207Y009379D01*
X002207Y009460D02*
X000241Y009460D01*
X000241Y009541D02*
X002207Y009541D01*
X002207Y009622D02*
X000241Y009622D01*
X000241Y009703D02*
X002207Y009703D01*
X002207Y009784D02*
X000241Y009784D01*
X000241Y009865D02*
X002207Y009865D01*
X002207Y009946D02*
X000241Y009946D01*
X000241Y010027D02*
X002207Y010027D01*
X002207Y010108D02*
X000241Y010108D01*
X000241Y010189D02*
X002207Y010189D01*
X002207Y010270D02*
X000241Y010270D01*
X000241Y010351D02*
X002207Y010351D01*
X002207Y010432D02*
X000241Y010432D01*
X000241Y010513D02*
X002207Y010513D01*
X002207Y010594D02*
X000241Y010594D01*
X000241Y010675D02*
X002207Y010675D01*
X002207Y010756D02*
X000241Y010756D01*
X000241Y010837D02*
X002207Y010837D01*
X002207Y010918D02*
X000241Y010918D01*
X000241Y010999D02*
X002207Y010999D01*
X002207Y011080D02*
X000241Y011080D01*
X000241Y011161D02*
X002207Y011161D01*
X002207Y011242D02*
X000241Y011242D01*
X000241Y011323D02*
X002207Y011323D01*
X002207Y011404D02*
X000241Y011404D01*
X000241Y011485D02*
X002207Y011485D01*
X002207Y011566D02*
X000241Y011566D01*
X000241Y011647D02*
X002207Y011647D01*
X002207Y011728D02*
X000241Y011728D01*
X000241Y017729D02*
X002207Y017729D01*
X002207Y014731D01*
X000241Y014731D01*
X000241Y017729D01*
X000241Y014812D02*
X002207Y014812D01*
X002207Y014893D02*
X000241Y014893D01*
X000241Y014974D02*
X002207Y014974D01*
X002207Y015055D02*
X000241Y015055D01*
X000241Y015136D02*
X002207Y015136D01*
X002207Y015217D02*
X000241Y015217D01*
X000241Y015298D02*
X002207Y015298D01*
X002207Y015379D02*
X000241Y015379D01*
X000241Y015460D02*
X002207Y015460D01*
X002207Y015541D02*
X000241Y015541D01*
X000241Y015622D02*
X002207Y015622D01*
X002207Y015703D02*
X000241Y015703D01*
X000241Y015784D02*
X002207Y015784D01*
X002207Y015865D02*
X000241Y015865D01*
X000241Y015946D02*
X002207Y015946D01*
X002207Y016027D02*
X000241Y016027D01*
X000241Y016108D02*
X002207Y016108D01*
X002207Y016189D02*
X000241Y016189D01*
X000241Y016270D02*
X002207Y016270D01*
X002207Y016351D02*
X000241Y016351D01*
X000241Y016432D02*
X002207Y016432D01*
X002207Y016513D02*
X000241Y016513D01*
X000241Y016594D02*
X002207Y016594D01*
X002207Y016675D02*
X000241Y016675D01*
X000241Y016756D02*
X002207Y016756D01*
X002207Y016837D02*
X000241Y016837D01*
X000241Y016918D02*
X002207Y016918D01*
X002207Y016999D02*
X000241Y016999D01*
X000241Y017080D02*
X002207Y017080D01*
X002207Y017161D02*
X000241Y017161D01*
X000241Y017242D02*
X002207Y017242D01*
X002207Y017323D02*
X000241Y017323D01*
X000241Y017404D02*
X002207Y017404D01*
X002207Y017485D02*
X000241Y017485D01*
X000241Y017566D02*
X002207Y017566D01*
X002207Y017647D02*
X000241Y017647D01*
X000241Y017728D02*
X002207Y017728D01*
X023075Y017729D02*
X025041Y017729D01*
X025041Y014731D01*
X023075Y014731D01*
X023075Y017729D01*
X023075Y014812D02*
X025041Y014812D01*
X025041Y014893D02*
X023075Y014893D01*
X023075Y014974D02*
X025041Y014974D01*
X025041Y015055D02*
X023075Y015055D01*
X023075Y015136D02*
X025041Y015136D01*
X025041Y015217D02*
X023075Y015217D01*
X023075Y015298D02*
X025041Y015298D01*
X025041Y015379D02*
X023075Y015379D01*
X023075Y015460D02*
X025041Y015460D01*
X025041Y015541D02*
X023075Y015541D01*
X023075Y015622D02*
X025041Y015622D01*
X025041Y015703D02*
X023075Y015703D01*
X023075Y015784D02*
X025041Y015784D01*
X025041Y015865D02*
X023075Y015865D01*
X023075Y015946D02*
X025041Y015946D01*
X025041Y016027D02*
X023075Y016027D01*
X023075Y016108D02*
X025041Y016108D01*
X025041Y016189D02*
X023075Y016189D01*
X023075Y016270D02*
X025041Y016270D01*
X025041Y016351D02*
X023075Y016351D01*
X023075Y016432D02*
X025041Y016432D01*
X025041Y016513D02*
X023075Y016513D01*
X023075Y016594D02*
X025041Y016594D01*
X025041Y016675D02*
X023075Y016675D01*
X023075Y016756D02*
X025041Y016756D01*
X025041Y016837D02*
X023075Y016837D01*
X023075Y016918D02*
X025041Y016918D01*
X025041Y016999D02*
X023075Y016999D01*
X023075Y017080D02*
X025041Y017080D01*
X025041Y017161D02*
X023075Y017161D01*
X023075Y017242D02*
X025041Y017242D01*
X025041Y017323D02*
X023075Y017323D01*
X023075Y017404D02*
X025041Y017404D01*
X025041Y017485D02*
X023075Y017485D01*
X023075Y017566D02*
X025041Y017566D01*
X025041Y017647D02*
X023075Y017647D01*
X023075Y017728D02*
X025041Y017728D01*
X025041Y008731D02*
X023075Y008731D01*
X023075Y011729D01*
X025041Y011729D01*
X025041Y008731D01*
X025041Y008812D02*
X023075Y008812D01*
X023075Y008893D02*
X025041Y008893D01*
X025041Y008974D02*
X023075Y008974D01*
X023075Y009055D02*
X025041Y009055D01*
X025041Y009136D02*
X023075Y009136D01*
X023075Y009217D02*
X025041Y009217D01*
X025041Y009298D02*
X023075Y009298D01*
X023075Y009379D02*
X025041Y009379D01*
X025041Y009460D02*
X023075Y009460D01*
X023075Y009541D02*
X025041Y009541D01*
X025041Y009622D02*
X023075Y009622D01*
X023075Y009703D02*
X025041Y009703D01*
X025041Y009784D02*
X023075Y009784D01*
X023075Y009865D02*
X025041Y009865D01*
X025041Y009946D02*
X023075Y009946D01*
X023075Y010027D02*
X025041Y010027D01*
X025041Y010108D02*
X023075Y010108D01*
X023075Y010189D02*
X025041Y010189D01*
X025041Y010270D02*
X023075Y010270D01*
X023075Y010351D02*
X025041Y010351D01*
X025041Y010432D02*
X023075Y010432D01*
X023075Y010513D02*
X025041Y010513D01*
X025041Y010594D02*
X023075Y010594D01*
X023075Y010675D02*
X025041Y010675D01*
X025041Y010756D02*
X023075Y010756D01*
X023075Y010837D02*
X025041Y010837D01*
X025041Y010918D02*
X023075Y010918D01*
X023075Y010999D02*
X025041Y010999D01*
X025041Y011080D02*
X023075Y011080D01*
X023075Y011161D02*
X025041Y011161D01*
X025041Y011242D02*
X023075Y011242D01*
X023075Y011323D02*
X025041Y011323D01*
X025041Y011404D02*
X023075Y011404D01*
X023075Y011485D02*
X025041Y011485D01*
X025041Y011566D02*
X023075Y011566D01*
X023075Y011647D02*
X025041Y011647D01*
X025041Y011728D02*
X023075Y011728D01*
X023075Y005729D02*
X025041Y005729D01*
X025041Y002731D01*
X023075Y002731D01*
X023075Y005729D01*
X023075Y002812D02*
X025041Y002812D01*
X025041Y002893D02*
X023075Y002893D01*
X023075Y002974D02*
X025041Y002974D01*
X025041Y003055D02*
X023075Y003055D01*
X023075Y003136D02*
X025041Y003136D01*
X025041Y003217D02*
X023075Y003217D01*
X023075Y003298D02*
X025041Y003298D01*
X025041Y003379D02*
X023075Y003379D01*
X023075Y003460D02*
X025041Y003460D01*
X025041Y003541D02*
X023075Y003541D01*
X023075Y003622D02*
X025041Y003622D01*
X025041Y003703D02*
X023075Y003703D01*
X023075Y003784D02*
X025041Y003784D01*
X025041Y003865D02*
X023075Y003865D01*
X023075Y003946D02*
X025041Y003946D01*
X025041Y004027D02*
X023075Y004027D01*
X023075Y004108D02*
X025041Y004108D01*
X025041Y004189D02*
X023075Y004189D01*
X023075Y004270D02*
X025041Y004270D01*
X025041Y004351D02*
X023075Y004351D01*
X023075Y004432D02*
X025041Y004432D01*
X025041Y004513D02*
X023075Y004513D01*
X023075Y004594D02*
X025041Y004594D01*
X025041Y004675D02*
X023075Y004675D01*
X023075Y004756D02*
X025041Y004756D01*
X025041Y004837D02*
X023075Y004837D01*
X023075Y004918D02*
X025041Y004918D01*
X025041Y004999D02*
X023075Y004999D01*
X023075Y005080D02*
X025041Y005080D01*
X025041Y005161D02*
X023075Y005161D01*
X023075Y005242D02*
X025041Y005242D01*
X025041Y005323D02*
X023075Y005323D01*
X023075Y005404D02*
X025041Y005404D01*
X025041Y005485D02*
X023075Y005485D01*
X023075Y005566D02*
X025041Y005566D01*
X025041Y005647D02*
X023075Y005647D01*
X023075Y005728D02*
X025041Y005728D01*
D13*
X027001Y008837D02*
X027001Y009174D01*
X027493Y009174D02*
X027493Y008837D01*
X027986Y008837D02*
X027986Y009174D01*
X028478Y009174D02*
X028478Y008837D01*
D14*
X015535Y008789D03*
X015535Y009773D03*
X015535Y010797D03*
X015535Y011781D03*
X006007Y011781D03*
X006007Y010797D03*
X006007Y009773D03*
X006007Y008789D03*
M02*
