G75*
G70*
%OFA0B0*%
%FSLAX24Y24*%
%IPPOS*%
%LPD*%
%AMOC8*
5,1,8,0,0,1.08239X$1,22.5*
%
%ADD10C,0.0080*%
%ADD11C,0.0552*%
%ADD12C,0.0434*%
%ADD13C,0.0084*%
%ADD14C,0.0085*%
%ADD15C,0.0082*%
%ADD16C,0.0085*%
%ADD17C,0.0081*%
%ADD18C,0.0083*%
%ADD19C,0.0082*%
%ADD20C,0.0082*%
%ADD21C,0.0081*%
%ADD22C,0.0417*%
%ADD23C,0.0081*%
%ADD24C,0.0474*%
%ADD25C,0.0082*%
%ADD26C,0.0080*%
%ADD27C,0.0050*%
%ADD28C,0.0084*%
%ADD29C,0.0081*%
%ADD30C,0.0082*%
%ADD31C,0.0088*%
%ADD32C,0.0710*%
D10*
X021185Y010187D02*
X021185Y010383D01*
X021775Y010383D01*
X021775Y010187D01*
X021185Y010187D01*
X021185Y010266D02*
X021775Y010266D01*
X021775Y010345D02*
X021185Y010345D01*
X021185Y010502D02*
X021185Y010698D01*
X021775Y010698D01*
X021775Y010502D01*
X021185Y010502D01*
X021185Y010581D02*
X021775Y010581D01*
X021775Y010660D02*
X021185Y010660D01*
X021185Y010817D02*
X021185Y011013D01*
X021775Y011013D01*
X021775Y010817D01*
X021185Y010817D01*
X021185Y010896D02*
X021775Y010896D01*
X021775Y010975D02*
X021185Y010975D01*
X021185Y011132D02*
X021185Y011328D01*
X021775Y011328D01*
X021775Y011132D01*
X021185Y011132D01*
X021185Y011211D02*
X021775Y011211D01*
X021775Y011290D02*
X021185Y011290D01*
X021185Y011447D02*
X021185Y011643D01*
X021775Y011643D01*
X021775Y011447D01*
X021185Y011447D01*
X021185Y011526D02*
X021775Y011526D01*
X021775Y011605D02*
X021185Y011605D01*
X021185Y011762D02*
X021185Y011958D01*
X021775Y011958D01*
X021775Y011762D01*
X021185Y011762D01*
X021185Y011841D02*
X021775Y011841D01*
X021775Y011920D02*
X021185Y011920D01*
X021185Y012076D02*
X021185Y012272D01*
X021775Y012272D01*
X021775Y012076D01*
X021185Y012076D01*
X021185Y012155D02*
X021775Y012155D01*
X021775Y012234D02*
X021185Y012234D01*
X021185Y012391D02*
X021185Y012587D01*
X021775Y012587D01*
X021775Y012391D01*
X021185Y012391D01*
X021185Y012470D02*
X021775Y012470D01*
X021775Y012549D02*
X021185Y012549D01*
X021185Y012706D02*
X021185Y012902D01*
X021775Y012902D01*
X021775Y012706D01*
X021185Y012706D01*
X021185Y012785D02*
X021775Y012785D01*
X021775Y012864D02*
X021185Y012864D01*
X021185Y013021D02*
X021185Y013217D01*
X021775Y013217D01*
X021775Y013021D01*
X021185Y013021D01*
X021185Y013100D02*
X021775Y013100D01*
X021775Y013179D02*
X021185Y013179D01*
X021185Y013336D02*
X021185Y013532D01*
X021775Y013532D01*
X021775Y013336D01*
X021185Y013336D01*
X021185Y013415D02*
X021775Y013415D01*
X021775Y013494D02*
X021185Y013494D01*
X022090Y013848D02*
X022090Y014438D01*
X022286Y014438D01*
X022286Y013848D01*
X022090Y013848D01*
X022090Y013927D02*
X022286Y013927D01*
X022286Y014006D02*
X022090Y014006D01*
X022090Y014085D02*
X022286Y014085D01*
X022286Y014164D02*
X022090Y014164D01*
X022090Y014243D02*
X022286Y014243D01*
X022286Y014322D02*
X022090Y014322D01*
X022090Y014401D02*
X022286Y014401D01*
X022405Y014438D02*
X022405Y013848D01*
X022405Y014438D02*
X022601Y014438D01*
X022601Y013848D01*
X022405Y013848D01*
X022405Y013927D02*
X022601Y013927D01*
X022601Y014006D02*
X022405Y014006D01*
X022405Y014085D02*
X022601Y014085D01*
X022601Y014164D02*
X022405Y014164D01*
X022405Y014243D02*
X022601Y014243D01*
X022601Y014322D02*
X022405Y014322D01*
X022405Y014401D02*
X022601Y014401D01*
X022720Y014438D02*
X022720Y013848D01*
X022720Y014438D02*
X022916Y014438D01*
X022916Y013848D01*
X022720Y013848D01*
X022720Y013927D02*
X022916Y013927D01*
X022916Y014006D02*
X022720Y014006D01*
X022720Y014085D02*
X022916Y014085D01*
X022916Y014164D02*
X022720Y014164D01*
X022720Y014243D02*
X022916Y014243D01*
X022916Y014322D02*
X022720Y014322D01*
X022720Y014401D02*
X022916Y014401D01*
X023035Y014438D02*
X023035Y013848D01*
X023035Y014438D02*
X023231Y014438D01*
X023231Y013848D01*
X023035Y013848D01*
X023035Y013927D02*
X023231Y013927D01*
X023231Y014006D02*
X023035Y014006D01*
X023035Y014085D02*
X023231Y014085D01*
X023231Y014164D02*
X023035Y014164D01*
X023035Y014243D02*
X023231Y014243D01*
X023231Y014322D02*
X023035Y014322D01*
X023035Y014401D02*
X023231Y014401D01*
X023350Y014438D02*
X023350Y013848D01*
X023350Y014438D02*
X023546Y014438D01*
X023546Y013848D01*
X023350Y013848D01*
X023350Y013927D02*
X023546Y013927D01*
X023546Y014006D02*
X023350Y014006D01*
X023350Y014085D02*
X023546Y014085D01*
X023546Y014164D02*
X023350Y014164D01*
X023350Y014243D02*
X023546Y014243D01*
X023546Y014322D02*
X023350Y014322D01*
X023350Y014401D02*
X023546Y014401D01*
X023665Y014438D02*
X023665Y013848D01*
X023665Y014438D02*
X023861Y014438D01*
X023861Y013848D01*
X023665Y013848D01*
X023665Y013927D02*
X023861Y013927D01*
X023861Y014006D02*
X023665Y014006D01*
X023665Y014085D02*
X023861Y014085D01*
X023861Y014164D02*
X023665Y014164D01*
X023665Y014243D02*
X023861Y014243D01*
X023861Y014322D02*
X023665Y014322D01*
X023665Y014401D02*
X023861Y014401D01*
X023980Y014438D02*
X023980Y013848D01*
X023980Y014438D02*
X024176Y014438D01*
X024176Y013848D01*
X023980Y013848D01*
X023980Y013927D02*
X024176Y013927D01*
X024176Y014006D02*
X023980Y014006D01*
X023980Y014085D02*
X024176Y014085D01*
X024176Y014164D02*
X023980Y014164D01*
X023980Y014243D02*
X024176Y014243D01*
X024176Y014322D02*
X023980Y014322D01*
X023980Y014401D02*
X024176Y014401D01*
X024295Y014438D02*
X024295Y013848D01*
X024295Y014438D02*
X024491Y014438D01*
X024491Y013848D01*
X024295Y013848D01*
X024295Y013927D02*
X024491Y013927D01*
X024491Y014006D02*
X024295Y014006D01*
X024295Y014085D02*
X024491Y014085D01*
X024491Y014164D02*
X024295Y014164D01*
X024295Y014243D02*
X024491Y014243D01*
X024491Y014322D02*
X024295Y014322D01*
X024295Y014401D02*
X024491Y014401D01*
X024610Y014438D02*
X024610Y013848D01*
X024610Y014438D02*
X024806Y014438D01*
X024806Y013848D01*
X024610Y013848D01*
X024610Y013927D02*
X024806Y013927D01*
X024806Y014006D02*
X024610Y014006D01*
X024610Y014085D02*
X024806Y014085D01*
X024806Y014164D02*
X024610Y014164D01*
X024610Y014243D02*
X024806Y014243D01*
X024806Y014322D02*
X024610Y014322D01*
X024610Y014401D02*
X024806Y014401D01*
X024925Y014438D02*
X024925Y013848D01*
X024925Y014438D02*
X025121Y014438D01*
X025121Y013848D01*
X024925Y013848D01*
X024925Y013927D02*
X025121Y013927D01*
X025121Y014006D02*
X024925Y014006D01*
X024925Y014085D02*
X025121Y014085D01*
X025121Y014164D02*
X024925Y014164D01*
X024925Y014243D02*
X025121Y014243D01*
X025121Y014322D02*
X024925Y014322D01*
X024925Y014401D02*
X025121Y014401D01*
X025240Y014438D02*
X025240Y013848D01*
X025240Y014438D02*
X025436Y014438D01*
X025436Y013848D01*
X025240Y013848D01*
X025240Y013927D02*
X025436Y013927D01*
X025436Y014006D02*
X025240Y014006D01*
X025240Y014085D02*
X025436Y014085D01*
X025436Y014164D02*
X025240Y014164D01*
X025240Y014243D02*
X025436Y014243D01*
X025436Y014322D02*
X025240Y014322D01*
X025240Y014401D02*
X025436Y014401D01*
X025752Y013532D02*
X025752Y013336D01*
X025752Y013532D02*
X026342Y013532D01*
X026342Y013336D01*
X025752Y013336D01*
X025752Y013415D02*
X026342Y013415D01*
X026342Y013494D02*
X025752Y013494D01*
X025752Y013217D02*
X025752Y013021D01*
X025752Y013217D02*
X026342Y013217D01*
X026342Y013021D01*
X025752Y013021D01*
X025752Y013100D02*
X026342Y013100D01*
X026342Y013179D02*
X025752Y013179D01*
X025752Y012902D02*
X025752Y012706D01*
X025752Y012902D02*
X026342Y012902D01*
X026342Y012706D01*
X025752Y012706D01*
X025752Y012785D02*
X026342Y012785D01*
X026342Y012864D02*
X025752Y012864D01*
X025752Y012587D02*
X025752Y012391D01*
X025752Y012587D02*
X026342Y012587D01*
X026342Y012391D01*
X025752Y012391D01*
X025752Y012470D02*
X026342Y012470D01*
X026342Y012549D02*
X025752Y012549D01*
X025752Y012272D02*
X025752Y012076D01*
X025752Y012272D02*
X026342Y012272D01*
X026342Y012076D01*
X025752Y012076D01*
X025752Y012155D02*
X026342Y012155D01*
X026342Y012234D02*
X025752Y012234D01*
X025752Y011958D02*
X025752Y011762D01*
X025752Y011958D02*
X026342Y011958D01*
X026342Y011762D01*
X025752Y011762D01*
X025752Y011841D02*
X026342Y011841D01*
X026342Y011920D02*
X025752Y011920D01*
X025752Y011643D02*
X025752Y011447D01*
X025752Y011643D02*
X026342Y011643D01*
X026342Y011447D01*
X025752Y011447D01*
X025752Y011526D02*
X026342Y011526D01*
X026342Y011605D02*
X025752Y011605D01*
X025752Y011328D02*
X025752Y011132D01*
X025752Y011328D02*
X026342Y011328D01*
X026342Y011132D01*
X025752Y011132D01*
X025752Y011211D02*
X026342Y011211D01*
X026342Y011290D02*
X025752Y011290D01*
X025752Y011013D02*
X025752Y010817D01*
X025752Y011013D02*
X026342Y011013D01*
X026342Y010817D01*
X025752Y010817D01*
X025752Y010896D02*
X026342Y010896D01*
X026342Y010975D02*
X025752Y010975D01*
X025752Y010698D02*
X025752Y010502D01*
X025752Y010698D02*
X026342Y010698D01*
X026342Y010502D01*
X025752Y010502D01*
X025752Y010581D02*
X026342Y010581D01*
X026342Y010660D02*
X025752Y010660D01*
X025752Y010383D02*
X025752Y010187D01*
X025752Y010383D02*
X026342Y010383D01*
X026342Y010187D01*
X025752Y010187D01*
X025752Y010266D02*
X026342Y010266D01*
X026342Y010345D02*
X025752Y010345D01*
X025240Y009871D02*
X025240Y009281D01*
X025240Y009871D02*
X025436Y009871D01*
X025436Y009281D01*
X025240Y009281D01*
X025240Y009360D02*
X025436Y009360D01*
X025436Y009439D02*
X025240Y009439D01*
X025240Y009518D02*
X025436Y009518D01*
X025436Y009597D02*
X025240Y009597D01*
X025240Y009676D02*
X025436Y009676D01*
X025436Y009755D02*
X025240Y009755D01*
X025240Y009834D02*
X025436Y009834D01*
X024925Y009871D02*
X024925Y009281D01*
X024925Y009871D02*
X025121Y009871D01*
X025121Y009281D01*
X024925Y009281D01*
X024925Y009360D02*
X025121Y009360D01*
X025121Y009439D02*
X024925Y009439D01*
X024925Y009518D02*
X025121Y009518D01*
X025121Y009597D02*
X024925Y009597D01*
X024925Y009676D02*
X025121Y009676D01*
X025121Y009755D02*
X024925Y009755D01*
X024925Y009834D02*
X025121Y009834D01*
X024610Y009871D02*
X024610Y009281D01*
X024610Y009871D02*
X024806Y009871D01*
X024806Y009281D01*
X024610Y009281D01*
X024610Y009360D02*
X024806Y009360D01*
X024806Y009439D02*
X024610Y009439D01*
X024610Y009518D02*
X024806Y009518D01*
X024806Y009597D02*
X024610Y009597D01*
X024610Y009676D02*
X024806Y009676D01*
X024806Y009755D02*
X024610Y009755D01*
X024610Y009834D02*
X024806Y009834D01*
X024295Y009871D02*
X024295Y009281D01*
X024295Y009871D02*
X024491Y009871D01*
X024491Y009281D01*
X024295Y009281D01*
X024295Y009360D02*
X024491Y009360D01*
X024491Y009439D02*
X024295Y009439D01*
X024295Y009518D02*
X024491Y009518D01*
X024491Y009597D02*
X024295Y009597D01*
X024295Y009676D02*
X024491Y009676D01*
X024491Y009755D02*
X024295Y009755D01*
X024295Y009834D02*
X024491Y009834D01*
X023980Y009871D02*
X023980Y009281D01*
X023980Y009871D02*
X024176Y009871D01*
X024176Y009281D01*
X023980Y009281D01*
X023980Y009360D02*
X024176Y009360D01*
X024176Y009439D02*
X023980Y009439D01*
X023980Y009518D02*
X024176Y009518D01*
X024176Y009597D02*
X023980Y009597D01*
X023980Y009676D02*
X024176Y009676D01*
X024176Y009755D02*
X023980Y009755D01*
X023980Y009834D02*
X024176Y009834D01*
X023665Y009871D02*
X023665Y009281D01*
X023665Y009871D02*
X023861Y009871D01*
X023861Y009281D01*
X023665Y009281D01*
X023665Y009360D02*
X023861Y009360D01*
X023861Y009439D02*
X023665Y009439D01*
X023665Y009518D02*
X023861Y009518D01*
X023861Y009597D02*
X023665Y009597D01*
X023665Y009676D02*
X023861Y009676D01*
X023861Y009755D02*
X023665Y009755D01*
X023665Y009834D02*
X023861Y009834D01*
X023350Y009871D02*
X023350Y009281D01*
X023350Y009871D02*
X023546Y009871D01*
X023546Y009281D01*
X023350Y009281D01*
X023350Y009360D02*
X023546Y009360D01*
X023546Y009439D02*
X023350Y009439D01*
X023350Y009518D02*
X023546Y009518D01*
X023546Y009597D02*
X023350Y009597D01*
X023350Y009676D02*
X023546Y009676D01*
X023546Y009755D02*
X023350Y009755D01*
X023350Y009834D02*
X023546Y009834D01*
X023035Y009871D02*
X023035Y009281D01*
X023035Y009871D02*
X023231Y009871D01*
X023231Y009281D01*
X023035Y009281D01*
X023035Y009360D02*
X023231Y009360D01*
X023231Y009439D02*
X023035Y009439D01*
X023035Y009518D02*
X023231Y009518D01*
X023231Y009597D02*
X023035Y009597D01*
X023035Y009676D02*
X023231Y009676D01*
X023231Y009755D02*
X023035Y009755D01*
X023035Y009834D02*
X023231Y009834D01*
X022720Y009871D02*
X022720Y009281D01*
X022720Y009871D02*
X022916Y009871D01*
X022916Y009281D01*
X022720Y009281D01*
X022720Y009360D02*
X022916Y009360D01*
X022916Y009439D02*
X022720Y009439D01*
X022720Y009518D02*
X022916Y009518D01*
X022916Y009597D02*
X022720Y009597D01*
X022720Y009676D02*
X022916Y009676D01*
X022916Y009755D02*
X022720Y009755D01*
X022720Y009834D02*
X022916Y009834D01*
X022405Y009871D02*
X022405Y009281D01*
X022405Y009871D02*
X022601Y009871D01*
X022601Y009281D01*
X022405Y009281D01*
X022405Y009360D02*
X022601Y009360D01*
X022601Y009439D02*
X022405Y009439D01*
X022405Y009518D02*
X022601Y009518D01*
X022601Y009597D02*
X022405Y009597D01*
X022405Y009676D02*
X022601Y009676D01*
X022601Y009755D02*
X022405Y009755D01*
X022405Y009834D02*
X022601Y009834D01*
X022090Y009871D02*
X022090Y009281D01*
X022090Y009871D02*
X022286Y009871D01*
X022286Y009281D01*
X022090Y009281D01*
X022090Y009360D02*
X022286Y009360D01*
X022286Y009439D02*
X022090Y009439D01*
X022090Y009518D02*
X022286Y009518D01*
X022286Y009597D02*
X022090Y009597D01*
X022090Y009676D02*
X022286Y009676D01*
X022286Y009755D02*
X022090Y009755D01*
X022090Y009834D02*
X022286Y009834D01*
X026264Y007076D02*
X027050Y007076D01*
X027050Y006880D01*
X026264Y006880D01*
X026264Y007076D01*
X026264Y006959D02*
X027050Y006959D01*
X027050Y007038D02*
X026264Y007038D01*
X026264Y006761D02*
X027050Y006761D01*
X027050Y006565D01*
X026264Y006565D01*
X026264Y006761D01*
X026264Y006644D02*
X027050Y006644D01*
X027050Y006723D02*
X026264Y006723D01*
X026264Y006446D02*
X027050Y006446D01*
X027050Y006250D01*
X026264Y006250D01*
X026264Y006446D01*
X026264Y006329D02*
X027050Y006329D01*
X027050Y006408D02*
X026264Y006408D01*
X026264Y006131D02*
X027050Y006131D01*
X027050Y005935D01*
X026264Y005935D01*
X026264Y006131D01*
X026264Y006014D02*
X027050Y006014D01*
X027050Y006093D02*
X026264Y006093D01*
X026264Y005816D02*
X027050Y005816D01*
X027050Y005620D01*
X026264Y005620D01*
X026264Y005816D01*
X026264Y005699D02*
X027050Y005699D01*
X027050Y005778D02*
X026264Y005778D01*
X020613Y016917D02*
X020613Y017113D01*
X020613Y016917D02*
X019747Y016917D01*
X019747Y017113D01*
X020613Y017113D01*
X020613Y016996D02*
X019747Y016996D01*
X019747Y017075D02*
X020613Y017075D01*
X020613Y017413D02*
X020613Y017609D01*
X020613Y017413D02*
X019747Y017413D01*
X019747Y017609D01*
X020613Y017609D01*
X020613Y017492D02*
X019747Y017492D01*
X019747Y017571D02*
X020613Y017571D01*
X020613Y017913D02*
X020613Y018109D01*
X020613Y017913D02*
X019747Y017913D01*
X019747Y018109D01*
X020613Y018109D01*
X020613Y017992D02*
X019747Y017992D01*
X019747Y018071D02*
X020613Y018071D01*
X020613Y018413D02*
X020613Y018609D01*
X020613Y018413D02*
X019747Y018413D01*
X019747Y018609D01*
X020613Y018609D01*
X020613Y018492D02*
X019747Y018492D01*
X019747Y018571D02*
X020613Y018571D01*
X018330Y018613D02*
X018330Y018417D01*
X017464Y018417D01*
X017464Y018613D01*
X018330Y018613D01*
X018330Y018496D02*
X017464Y018496D01*
X017464Y018575D02*
X018330Y018575D01*
X018330Y018113D02*
X018330Y017917D01*
X017464Y017917D01*
X017464Y018113D01*
X018330Y018113D01*
X018330Y017996D02*
X017464Y017996D01*
X017464Y018075D02*
X018330Y018075D01*
X018330Y017613D02*
X018330Y017417D01*
X017464Y017417D01*
X017464Y017613D01*
X018330Y017613D01*
X018330Y017496D02*
X017464Y017496D01*
X017464Y017575D02*
X018330Y017575D01*
X018330Y017113D02*
X018330Y016917D01*
X017464Y016917D01*
X017464Y017113D01*
X018330Y017113D01*
X018330Y016996D02*
X017464Y016996D01*
X017464Y017075D02*
X018330Y017075D01*
D11*
X026519Y007785D02*
X026991Y007785D01*
X028606Y007785D02*
X029078Y007785D01*
X029078Y004911D02*
X028606Y004911D01*
X026991Y004911D02*
X026519Y004911D01*
D12*
X027543Y005659D03*
X027543Y007037D03*
D13*
X003768Y010318D02*
X003768Y010794D01*
X003768Y010318D02*
X002892Y010318D01*
X002892Y010794D01*
X003768Y010794D01*
X003768Y010401D02*
X002892Y010401D01*
X002892Y010484D02*
X003768Y010484D01*
X003768Y010567D02*
X002892Y010567D01*
X002892Y010650D02*
X003768Y010650D01*
X003768Y010733D02*
X002892Y010733D01*
X003768Y011228D02*
X003768Y011704D01*
X003768Y011228D02*
X002892Y011228D01*
X002892Y011704D01*
X003768Y011704D01*
X003768Y011311D02*
X002892Y011311D01*
X002892Y011394D02*
X003768Y011394D01*
X003768Y011477D02*
X002892Y011477D01*
X002892Y011560D02*
X003768Y011560D01*
X003768Y011643D02*
X002892Y011643D01*
X003768Y012138D02*
X003768Y012614D01*
X003768Y012138D02*
X002892Y012138D01*
X002892Y012614D01*
X003768Y012614D01*
X003768Y012221D02*
X002892Y012221D01*
X002892Y012304D02*
X003768Y012304D01*
X003768Y012387D02*
X002892Y012387D01*
X002892Y012470D02*
X003768Y012470D01*
X003768Y012553D02*
X002892Y012553D01*
D14*
X001321Y012172D02*
X001321Y010760D01*
X000459Y010760D01*
X000459Y012172D01*
X001321Y012172D01*
X001321Y010844D02*
X000459Y010844D01*
X000459Y010928D02*
X001321Y010928D01*
X001321Y011012D02*
X000459Y011012D01*
X000459Y011096D02*
X001321Y011096D01*
X001321Y011180D02*
X000459Y011180D01*
X000459Y011264D02*
X001321Y011264D01*
X001321Y011348D02*
X000459Y011348D01*
X000459Y011432D02*
X001321Y011432D01*
X001321Y011516D02*
X000459Y011516D01*
X000459Y011600D02*
X001321Y011600D01*
X001321Y011684D02*
X000459Y011684D01*
X000459Y011768D02*
X001321Y011768D01*
X001321Y011852D02*
X000459Y011852D01*
X000459Y011936D02*
X001321Y011936D01*
X001321Y012020D02*
X000459Y012020D01*
X000459Y012104D02*
X001321Y012104D01*
D15*
X005230Y015469D02*
X005230Y015777D01*
X005230Y015469D02*
X004882Y015469D01*
X004882Y015777D01*
X005230Y015777D01*
X005230Y015550D02*
X004882Y015550D01*
X004882Y015631D02*
X005230Y015631D01*
X005230Y015712D02*
X004882Y015712D01*
X006030Y015849D02*
X006030Y016157D01*
X006030Y015849D02*
X005682Y015849D01*
X005682Y016157D01*
X006030Y016157D01*
X006030Y015930D02*
X005682Y015930D01*
X005682Y016011D02*
X006030Y016011D01*
X006030Y016092D02*
X005682Y016092D01*
X005230Y016229D02*
X005230Y016537D01*
X005230Y016229D02*
X004882Y016229D01*
X004882Y016537D01*
X005230Y016537D01*
X005230Y016310D02*
X004882Y016310D01*
X004882Y016391D02*
X005230Y016391D01*
X005230Y016472D02*
X004882Y016472D01*
X019521Y005266D02*
X019521Y004398D01*
X018973Y004398D01*
X018973Y005266D01*
X019521Y005266D01*
X019521Y004479D02*
X018973Y004479D01*
X018973Y004560D02*
X019521Y004560D01*
X019521Y004641D02*
X018973Y004641D01*
X018973Y004722D02*
X019521Y004722D01*
X019521Y004803D02*
X018973Y004803D01*
X018973Y004884D02*
X019521Y004884D01*
X019521Y004965D02*
X018973Y004965D01*
X018973Y005046D02*
X019521Y005046D01*
X019521Y005127D02*
X018973Y005127D01*
X018973Y005208D02*
X019521Y005208D01*
X020521Y005266D02*
X020521Y004328D01*
X019973Y004328D01*
X019973Y005266D01*
X020521Y005266D01*
X020521Y004409D02*
X019973Y004409D01*
X019973Y004490D02*
X020521Y004490D01*
X020521Y004571D02*
X019973Y004571D01*
X019973Y004652D02*
X020521Y004652D01*
X020521Y004733D02*
X019973Y004733D01*
X019973Y004814D02*
X020521Y004814D01*
X020521Y004895D02*
X019973Y004895D01*
X019973Y004976D02*
X020521Y004976D01*
X020521Y005057D02*
X019973Y005057D01*
X019973Y005138D02*
X020521Y005138D01*
X020521Y005219D02*
X019973Y005219D01*
X020521Y002786D02*
X020521Y001918D01*
X019973Y001918D01*
X019973Y002786D01*
X020521Y002786D01*
X020521Y001999D02*
X019973Y001999D01*
X019973Y002080D02*
X020521Y002080D01*
X020521Y002161D02*
X019973Y002161D01*
X019973Y002242D02*
X020521Y002242D01*
X020521Y002323D02*
X019973Y002323D01*
X019973Y002404D02*
X020521Y002404D01*
X020521Y002485D02*
X019973Y002485D01*
X019973Y002566D02*
X020521Y002566D01*
X020521Y002647D02*
X019973Y002647D01*
X019973Y002728D02*
X020521Y002728D01*
X019521Y002786D02*
X019521Y001918D01*
X018973Y001918D01*
X018973Y002786D01*
X019521Y002786D01*
X019521Y001999D02*
X018973Y001999D01*
X018973Y002080D02*
X019521Y002080D01*
X019521Y002161D02*
X018973Y002161D01*
X018973Y002242D02*
X019521Y002242D01*
X019521Y002323D02*
X018973Y002323D01*
X018973Y002404D02*
X019521Y002404D01*
X019521Y002485D02*
X018973Y002485D01*
X018973Y002566D02*
X019521Y002566D01*
X019521Y002647D02*
X018973Y002647D01*
X018973Y002728D02*
X019521Y002728D01*
D16*
X002738Y017507D02*
X002112Y017507D01*
X002738Y017507D02*
X002738Y016449D01*
X002112Y016449D01*
X002112Y017507D01*
X002112Y016533D02*
X002738Y016533D01*
X002738Y016617D02*
X002112Y016617D01*
X002112Y016701D02*
X002738Y016701D01*
X002738Y016785D02*
X002112Y016785D01*
X002112Y016869D02*
X002738Y016869D01*
X002738Y016953D02*
X002112Y016953D01*
X002112Y017037D02*
X002738Y017037D01*
X002738Y017121D02*
X002112Y017121D01*
X002112Y017205D02*
X002738Y017205D01*
X002738Y017289D02*
X002112Y017289D01*
X002112Y017373D02*
X002738Y017373D01*
X002738Y017457D02*
X002112Y017457D01*
X001635Y017507D02*
X001009Y017507D01*
X001635Y017507D02*
X001635Y016449D01*
X001009Y016449D01*
X001009Y017507D01*
X001009Y016533D02*
X001635Y016533D01*
X001635Y016617D02*
X001009Y016617D01*
X001009Y016701D02*
X001635Y016701D01*
X001635Y016785D02*
X001009Y016785D01*
X001009Y016869D02*
X001635Y016869D01*
X001635Y016953D02*
X001009Y016953D01*
X001009Y017037D02*
X001635Y017037D01*
X001635Y017121D02*
X001009Y017121D01*
X001009Y017205D02*
X001635Y017205D01*
X001635Y017289D02*
X001009Y017289D01*
X001009Y017373D02*
X001635Y017373D01*
X001635Y017457D02*
X001009Y017457D01*
D17*
X003193Y017913D02*
X003193Y018051D01*
X003507Y018051D01*
X003507Y017913D01*
X003193Y017913D01*
X003193Y017993D02*
X003507Y017993D01*
X003193Y018168D02*
X003193Y018306D01*
X003507Y018306D01*
X003507Y018168D01*
X003193Y018168D01*
X003193Y018248D02*
X003507Y018248D01*
X003193Y018424D02*
X003193Y018562D01*
X003507Y018562D01*
X003507Y018424D01*
X003193Y018424D01*
X003193Y018504D02*
X003507Y018504D01*
X003862Y018562D02*
X003862Y018424D01*
X003862Y018562D02*
X004176Y018562D01*
X004176Y018424D01*
X003862Y018424D01*
X003862Y018504D02*
X004176Y018504D01*
X003862Y018051D02*
X003862Y017913D01*
X003862Y018051D02*
X004176Y018051D01*
X004176Y017913D01*
X003862Y017913D01*
X003862Y017993D02*
X004176Y017993D01*
D18*
X005142Y018374D02*
X005652Y018374D01*
X005652Y017786D01*
X005142Y017786D01*
X005142Y018374D01*
X005142Y017868D02*
X005652Y017868D01*
X005652Y017950D02*
X005142Y017950D01*
X005142Y018032D02*
X005652Y018032D01*
X005652Y018114D02*
X005142Y018114D01*
X005142Y018196D02*
X005652Y018196D01*
X005652Y018278D02*
X005142Y018278D01*
X005142Y018360D02*
X005652Y018360D01*
X005890Y018374D02*
X006400Y018374D01*
X006400Y017786D01*
X005890Y017786D01*
X005890Y018374D01*
X005890Y017868D02*
X006400Y017868D01*
X006400Y017950D02*
X005890Y017950D01*
X005890Y018032D02*
X006400Y018032D01*
X006400Y018114D02*
X005890Y018114D01*
X005890Y018196D02*
X006400Y018196D01*
X006400Y018278D02*
X005890Y018278D01*
X005890Y018360D02*
X006400Y018360D01*
X006756Y017786D02*
X007266Y017786D01*
X006756Y017786D02*
X006756Y018374D01*
X007266Y018374D01*
X007266Y017786D01*
X007266Y017868D02*
X006756Y017868D01*
X006756Y017950D02*
X007266Y017950D01*
X007266Y018032D02*
X006756Y018032D01*
X006756Y018114D02*
X007266Y018114D01*
X007266Y018196D02*
X006756Y018196D01*
X006756Y018278D02*
X007266Y018278D01*
X007266Y018360D02*
X006756Y018360D01*
X007504Y017786D02*
X008014Y017786D01*
X007504Y017786D02*
X007504Y018374D01*
X008014Y018374D01*
X008014Y017786D01*
X008014Y017868D02*
X007504Y017868D01*
X007504Y017950D02*
X008014Y017950D01*
X008014Y018032D02*
X007504Y018032D01*
X007504Y018114D02*
X008014Y018114D01*
X008014Y018196D02*
X007504Y018196D01*
X007504Y018278D02*
X008014Y018278D01*
X008014Y018360D02*
X007504Y018360D01*
X008567Y017786D02*
X009077Y017786D01*
X008567Y017786D02*
X008567Y018374D01*
X009077Y018374D01*
X009077Y017786D01*
X009077Y017868D02*
X008567Y017868D01*
X008567Y017950D02*
X009077Y017950D01*
X009077Y018032D02*
X008567Y018032D01*
X008567Y018114D02*
X009077Y018114D01*
X009077Y018196D02*
X008567Y018196D01*
X008567Y018278D02*
X009077Y018278D01*
X009077Y018360D02*
X008567Y018360D01*
X009315Y017786D02*
X009825Y017786D01*
X009315Y017786D02*
X009315Y018374D01*
X009825Y018374D01*
X009825Y017786D01*
X009825Y017868D02*
X009315Y017868D01*
X009315Y017950D02*
X009825Y017950D01*
X009825Y018032D02*
X009315Y018032D01*
X009315Y018114D02*
X009825Y018114D01*
X009825Y018196D02*
X009315Y018196D01*
X009315Y018278D02*
X009825Y018278D01*
X009825Y018360D02*
X009315Y018360D01*
X010181Y017786D02*
X010691Y017786D01*
X010181Y017786D02*
X010181Y018374D01*
X010691Y018374D01*
X010691Y017786D01*
X010691Y017868D02*
X010181Y017868D01*
X010181Y017950D02*
X010691Y017950D01*
X010691Y018032D02*
X010181Y018032D01*
X010181Y018114D02*
X010691Y018114D01*
X010691Y018196D02*
X010181Y018196D01*
X010181Y018278D02*
X010691Y018278D01*
X010691Y018360D02*
X010181Y018360D01*
X010929Y017786D02*
X011439Y017786D01*
X010929Y017786D02*
X010929Y018374D01*
X011439Y018374D01*
X011439Y017786D01*
X011439Y017868D02*
X010929Y017868D01*
X010929Y017950D02*
X011439Y017950D01*
X011439Y018032D02*
X010929Y018032D01*
X010929Y018114D02*
X011439Y018114D01*
X011439Y018196D02*
X010929Y018196D01*
X010929Y018278D02*
X011439Y018278D01*
X011439Y018360D02*
X010929Y018360D01*
X006400Y017350D02*
X005890Y017350D01*
X006400Y017350D02*
X006400Y016762D01*
X005890Y016762D01*
X005890Y017350D01*
X005890Y016844D02*
X006400Y016844D01*
X006400Y016926D02*
X005890Y016926D01*
X005890Y017008D02*
X006400Y017008D01*
X006400Y017090D02*
X005890Y017090D01*
X005890Y017172D02*
X006400Y017172D01*
X006400Y017254D02*
X005890Y017254D01*
X005890Y017336D02*
X006400Y017336D01*
X005652Y017350D02*
X005142Y017350D01*
X005652Y017350D02*
X005652Y016762D01*
X005142Y016762D01*
X005142Y017350D01*
X005142Y016844D02*
X005652Y016844D01*
X005652Y016926D02*
X005142Y016926D01*
X005142Y017008D02*
X005652Y017008D01*
X005652Y017090D02*
X005142Y017090D01*
X005142Y017172D02*
X005652Y017172D01*
X005652Y017254D02*
X005142Y017254D01*
X005142Y017336D02*
X005652Y017336D01*
X004313Y016920D02*
X003803Y016920D01*
X003803Y017508D01*
X004313Y017508D01*
X004313Y016920D01*
X004313Y017002D02*
X003803Y017002D01*
X003803Y017084D02*
X004313Y017084D01*
X004313Y017166D02*
X003803Y017166D01*
X003803Y017248D02*
X004313Y017248D01*
X004313Y017330D02*
X003803Y017330D01*
X003803Y017412D02*
X004313Y017412D01*
X004313Y017494D02*
X003803Y017494D01*
X003565Y016920D02*
X003055Y016920D01*
X003055Y017508D01*
X003565Y017508D01*
X003565Y016920D01*
X003565Y017002D02*
X003055Y017002D01*
X003055Y017084D02*
X003565Y017084D01*
X003565Y017166D02*
X003055Y017166D01*
X003055Y017248D02*
X003565Y017248D01*
X003565Y017330D02*
X003055Y017330D01*
X003055Y017412D02*
X003565Y017412D01*
X003565Y017494D02*
X003055Y017494D01*
X002699Y018101D02*
X002189Y018101D01*
X002189Y018689D01*
X002699Y018689D01*
X002699Y018101D01*
X002699Y018183D02*
X002189Y018183D01*
X002189Y018265D02*
X002699Y018265D01*
X002699Y018347D02*
X002189Y018347D01*
X002189Y018429D02*
X002699Y018429D01*
X002699Y018511D02*
X002189Y018511D01*
X002189Y018593D02*
X002699Y018593D01*
X002699Y018675D02*
X002189Y018675D01*
X001951Y018101D02*
X001441Y018101D01*
X001441Y018689D01*
X001951Y018689D01*
X001951Y018101D01*
X001951Y018183D02*
X001441Y018183D01*
X001441Y018265D02*
X001951Y018265D01*
X001951Y018347D02*
X001441Y018347D01*
X001441Y018429D02*
X001951Y018429D01*
X001951Y018511D02*
X001441Y018511D01*
X001441Y018593D02*
X001951Y018593D01*
X001951Y018675D02*
X001441Y018675D01*
X003055Y016681D02*
X003565Y016681D01*
X003565Y016093D01*
X003055Y016093D01*
X003055Y016681D01*
X003055Y016175D02*
X003565Y016175D01*
X003565Y016257D02*
X003055Y016257D01*
X003055Y016339D02*
X003565Y016339D01*
X003565Y016421D02*
X003055Y016421D01*
X003055Y016503D02*
X003565Y016503D01*
X003565Y016585D02*
X003055Y016585D01*
X003055Y016667D02*
X003565Y016667D01*
X003803Y016681D02*
X004313Y016681D01*
X004313Y016093D01*
X003803Y016093D01*
X003803Y016681D01*
X003803Y016175D02*
X004313Y016175D01*
X004313Y016257D02*
X003803Y016257D01*
X003803Y016339D02*
X004313Y016339D01*
X004313Y016421D02*
X003803Y016421D01*
X003803Y016503D02*
X004313Y016503D01*
X004313Y016585D02*
X003803Y016585D01*
X003803Y016667D02*
X004313Y016667D01*
X004313Y015266D02*
X003803Y015266D01*
X003803Y015854D01*
X004313Y015854D01*
X004313Y015266D01*
X004313Y015348D02*
X003803Y015348D01*
X003803Y015430D02*
X004313Y015430D01*
X004313Y015512D02*
X003803Y015512D01*
X003803Y015594D02*
X004313Y015594D01*
X004313Y015676D02*
X003803Y015676D01*
X003803Y015758D02*
X004313Y015758D01*
X004313Y015840D02*
X003803Y015840D01*
X003565Y015266D02*
X003055Y015266D01*
X003055Y015854D01*
X003565Y015854D01*
X003565Y015266D01*
X003565Y015348D02*
X003055Y015348D01*
X003055Y015430D02*
X003565Y015430D01*
X003565Y015512D02*
X003055Y015512D01*
X003055Y015594D02*
X003565Y015594D01*
X003565Y015676D02*
X003055Y015676D01*
X003055Y015758D02*
X003565Y015758D01*
X003565Y015840D02*
X003055Y015840D01*
X002306Y015660D02*
X001796Y015660D01*
X001796Y016248D01*
X002306Y016248D01*
X002306Y015660D01*
X002306Y015742D02*
X001796Y015742D01*
X001796Y015824D02*
X002306Y015824D01*
X002306Y015906D02*
X001796Y015906D01*
X001796Y015988D02*
X002306Y015988D01*
X002306Y016070D02*
X001796Y016070D01*
X001796Y016152D02*
X002306Y016152D01*
X002306Y016234D02*
X001796Y016234D01*
X001558Y015660D02*
X001048Y015660D01*
X001048Y016248D01*
X001558Y016248D01*
X001558Y015660D01*
X001558Y015742D02*
X001048Y015742D01*
X001048Y015824D02*
X001558Y015824D01*
X001558Y015906D02*
X001048Y015906D01*
X001048Y015988D02*
X001558Y015988D01*
X001558Y016070D02*
X001048Y016070D01*
X001048Y016152D02*
X001558Y016152D01*
X001558Y016234D02*
X001048Y016234D01*
X002307Y014555D02*
X002817Y014555D01*
X002817Y013967D01*
X002307Y013967D01*
X002307Y014555D01*
X002307Y014049D02*
X002817Y014049D01*
X002817Y014131D02*
X002307Y014131D01*
X002307Y014213D02*
X002817Y014213D01*
X002817Y014295D02*
X002307Y014295D01*
X002307Y014377D02*
X002817Y014377D01*
X002817Y014459D02*
X002307Y014459D01*
X002307Y014541D02*
X002817Y014541D01*
X003055Y014555D02*
X003565Y014555D01*
X003565Y013967D01*
X003055Y013967D01*
X003055Y014555D01*
X003055Y014049D02*
X003565Y014049D01*
X003565Y014131D02*
X003055Y014131D01*
X003055Y014213D02*
X003565Y014213D01*
X003565Y014295D02*
X003055Y014295D01*
X003055Y014377D02*
X003565Y014377D01*
X003565Y014459D02*
X003055Y014459D01*
X003055Y014541D02*
X003565Y014541D01*
X003565Y013140D02*
X003055Y013140D01*
X003055Y013728D01*
X003565Y013728D01*
X003565Y013140D01*
X003565Y013222D02*
X003055Y013222D01*
X003055Y013304D02*
X003565Y013304D01*
X003565Y013386D02*
X003055Y013386D01*
X003055Y013468D02*
X003565Y013468D01*
X003565Y013550D02*
X003055Y013550D01*
X003055Y013632D02*
X003565Y013632D01*
X003565Y013714D02*
X003055Y013714D01*
X002817Y013140D02*
X002307Y013140D01*
X002307Y013728D01*
X002817Y013728D01*
X002817Y013140D01*
X002817Y013222D02*
X002307Y013222D01*
X002307Y013304D02*
X002817Y013304D01*
X002817Y013386D02*
X002307Y013386D01*
X002307Y013468D02*
X002817Y013468D01*
X002817Y013550D02*
X002307Y013550D01*
X002307Y013632D02*
X002817Y013632D01*
X002817Y013714D02*
X002307Y013714D01*
X001816Y008552D02*
X001816Y008042D01*
X001816Y008552D02*
X002404Y008552D01*
X002404Y008042D01*
X001816Y008042D01*
X001816Y008124D02*
X002404Y008124D01*
X002404Y008206D02*
X001816Y008206D01*
X001816Y008288D02*
X002404Y008288D01*
X002404Y008370D02*
X001816Y008370D01*
X001816Y008452D02*
X002404Y008452D01*
X002404Y008534D02*
X001816Y008534D01*
X001816Y007804D02*
X001816Y007294D01*
X001816Y007804D02*
X002404Y007804D01*
X002404Y007294D01*
X001816Y007294D01*
X001816Y007376D02*
X002404Y007376D01*
X002404Y007458D02*
X001816Y007458D01*
X001816Y007540D02*
X002404Y007540D01*
X002404Y007622D02*
X001816Y007622D01*
X001816Y007704D02*
X002404Y007704D01*
X002404Y007786D02*
X001816Y007786D01*
X002997Y007804D02*
X002997Y007294D01*
X002997Y007804D02*
X003585Y007804D01*
X003585Y007294D01*
X002997Y007294D01*
X002997Y007376D02*
X003585Y007376D01*
X003585Y007458D02*
X002997Y007458D01*
X002997Y007540D02*
X003585Y007540D01*
X003585Y007622D02*
X002997Y007622D01*
X002997Y007704D02*
X003585Y007704D01*
X003585Y007786D02*
X002997Y007786D01*
X002997Y008042D02*
X002997Y008552D01*
X003585Y008552D01*
X003585Y008042D01*
X002997Y008042D01*
X002997Y008124D02*
X003585Y008124D01*
X003585Y008206D02*
X002997Y008206D01*
X002997Y008288D02*
X003585Y008288D01*
X003585Y008370D02*
X002997Y008370D01*
X002997Y008452D02*
X003585Y008452D01*
X003585Y008534D02*
X002997Y008534D01*
X005536Y005542D02*
X006046Y005542D01*
X005536Y005542D02*
X005536Y006130D01*
X006046Y006130D01*
X006046Y005542D01*
X006046Y005624D02*
X005536Y005624D01*
X005536Y005706D02*
X006046Y005706D01*
X006046Y005788D02*
X005536Y005788D01*
X005536Y005870D02*
X006046Y005870D01*
X006046Y005952D02*
X005536Y005952D01*
X005536Y006034D02*
X006046Y006034D01*
X006046Y006116D02*
X005536Y006116D01*
X006284Y005542D02*
X006794Y005542D01*
X006284Y005542D02*
X006284Y006130D01*
X006794Y006130D01*
X006794Y005542D01*
X006794Y005624D02*
X006284Y005624D01*
X006284Y005706D02*
X006794Y005706D01*
X006794Y005788D02*
X006284Y005788D01*
X006284Y005870D02*
X006794Y005870D01*
X006794Y005952D02*
X006284Y005952D01*
X006284Y006034D02*
X006794Y006034D01*
X006794Y006116D02*
X006284Y006116D01*
X006284Y004715D02*
X006794Y004715D01*
X006284Y004715D02*
X006284Y005303D01*
X006794Y005303D01*
X006794Y004715D01*
X006794Y004797D02*
X006284Y004797D01*
X006284Y004879D02*
X006794Y004879D01*
X006794Y004961D02*
X006284Y004961D01*
X006284Y005043D02*
X006794Y005043D01*
X006794Y005125D02*
X006284Y005125D01*
X006284Y005207D02*
X006794Y005207D01*
X006794Y005289D02*
X006284Y005289D01*
X006046Y004715D02*
X005536Y004715D01*
X005536Y005303D01*
X006046Y005303D01*
X006046Y004715D01*
X006046Y004797D02*
X005536Y004797D01*
X005536Y004879D02*
X006046Y004879D01*
X006046Y004961D02*
X005536Y004961D01*
X005536Y005043D02*
X006046Y005043D01*
X006046Y005125D02*
X005536Y005125D01*
X005536Y005207D02*
X006046Y005207D01*
X006046Y005289D02*
X005536Y005289D01*
X004018Y005008D02*
X004018Y004498D01*
X003430Y004498D01*
X003430Y005008D01*
X004018Y005008D01*
X004018Y004580D02*
X003430Y004580D01*
X003430Y004662D02*
X004018Y004662D01*
X004018Y004744D02*
X003430Y004744D01*
X003430Y004826D02*
X004018Y004826D01*
X004018Y004908D02*
X003430Y004908D01*
X003430Y004990D02*
X004018Y004990D01*
X003191Y005008D02*
X003191Y004498D01*
X002603Y004498D01*
X002603Y005008D01*
X003191Y005008D01*
X003191Y004580D02*
X002603Y004580D01*
X002603Y004662D02*
X003191Y004662D01*
X003191Y004744D02*
X002603Y004744D01*
X002603Y004826D02*
X003191Y004826D01*
X003191Y004908D02*
X002603Y004908D01*
X002603Y004990D02*
X003191Y004990D01*
X003191Y004260D02*
X003191Y003750D01*
X002603Y003750D01*
X002603Y004260D01*
X003191Y004260D01*
X003191Y003832D02*
X002603Y003832D01*
X002603Y003914D02*
X003191Y003914D01*
X003191Y003996D02*
X002603Y003996D01*
X002603Y004078D02*
X003191Y004078D01*
X003191Y004160D02*
X002603Y004160D01*
X002603Y004242D02*
X003191Y004242D01*
X004018Y004260D02*
X004018Y003750D01*
X003430Y003750D01*
X003430Y004260D01*
X004018Y004260D01*
X004018Y003832D02*
X003430Y003832D01*
X003430Y003914D02*
X004018Y003914D01*
X004018Y003996D02*
X003430Y003996D01*
X003430Y004078D02*
X004018Y004078D01*
X004018Y004160D02*
X003430Y004160D01*
X003430Y004242D02*
X004018Y004242D01*
X010536Y003098D02*
X011046Y003098D01*
X011046Y002510D01*
X010536Y002510D01*
X010536Y003098D01*
X010536Y002592D02*
X011046Y002592D01*
X011046Y002674D02*
X010536Y002674D01*
X010536Y002756D02*
X011046Y002756D01*
X011046Y002838D02*
X010536Y002838D01*
X010536Y002920D02*
X011046Y002920D01*
X011046Y003002D02*
X010536Y003002D01*
X010536Y003084D02*
X011046Y003084D01*
X011284Y003098D02*
X011794Y003098D01*
X011794Y002510D01*
X011284Y002510D01*
X011284Y003098D01*
X011284Y002592D02*
X011794Y002592D01*
X011794Y002674D02*
X011284Y002674D01*
X011284Y002756D02*
X011794Y002756D01*
X011794Y002838D02*
X011284Y002838D01*
X011284Y002920D02*
X011794Y002920D01*
X011794Y003002D02*
X011284Y003002D01*
X011284Y003084D02*
X011794Y003084D01*
X014079Y002510D02*
X014589Y002510D01*
X014079Y002510D02*
X014079Y003098D01*
X014589Y003098D01*
X014589Y002510D01*
X014589Y002592D02*
X014079Y002592D01*
X014079Y002674D02*
X014589Y002674D01*
X014589Y002756D02*
X014079Y002756D01*
X014079Y002838D02*
X014589Y002838D01*
X014589Y002920D02*
X014079Y002920D01*
X014079Y003002D02*
X014589Y003002D01*
X014589Y003084D02*
X014079Y003084D01*
X014827Y002510D02*
X015337Y002510D01*
X014827Y002510D02*
X014827Y003098D01*
X015337Y003098D01*
X015337Y002510D01*
X015337Y002592D02*
X014827Y002592D01*
X014827Y002674D02*
X015337Y002674D01*
X015337Y002756D02*
X014827Y002756D01*
X014827Y002838D02*
X015337Y002838D01*
X015337Y002920D02*
X014827Y002920D01*
X014827Y003002D02*
X015337Y003002D01*
X015337Y003084D02*
X014827Y003084D01*
X018427Y003315D02*
X018427Y002805D01*
X017839Y002805D01*
X017839Y003315D01*
X018427Y003315D01*
X018427Y002887D02*
X017839Y002887D01*
X017839Y002969D02*
X018427Y002969D01*
X018427Y003051D02*
X017839Y003051D01*
X017839Y003133D02*
X018427Y003133D01*
X018427Y003215D02*
X017839Y003215D01*
X017839Y003297D02*
X018427Y003297D01*
X017839Y003750D02*
X017839Y004260D01*
X018427Y004260D01*
X018427Y003750D01*
X017839Y003750D01*
X017839Y003832D02*
X018427Y003832D01*
X018427Y003914D02*
X017839Y003914D01*
X017839Y003996D02*
X018427Y003996D01*
X018427Y004078D02*
X017839Y004078D01*
X017839Y004160D02*
X018427Y004160D01*
X018427Y004242D02*
X017839Y004242D01*
X017839Y004498D02*
X017839Y005008D01*
X018427Y005008D01*
X018427Y004498D01*
X017839Y004498D01*
X017839Y004580D02*
X018427Y004580D01*
X018427Y004662D02*
X017839Y004662D01*
X017839Y004744D02*
X018427Y004744D01*
X018427Y004826D02*
X017839Y004826D01*
X017839Y004908D02*
X018427Y004908D01*
X018427Y004990D02*
X017839Y004990D01*
X020514Y005601D02*
X020514Y006111D01*
X020514Y005601D02*
X019926Y005601D01*
X019926Y006111D01*
X020514Y006111D01*
X020514Y005683D02*
X019926Y005683D01*
X019926Y005765D02*
X020514Y005765D01*
X020514Y005847D02*
X019926Y005847D01*
X019926Y005929D02*
X020514Y005929D01*
X020514Y006011D02*
X019926Y006011D01*
X019926Y006093D02*
X020514Y006093D01*
X020514Y006349D02*
X020514Y006859D01*
X020514Y006349D02*
X019926Y006349D01*
X019926Y006859D01*
X020514Y006859D01*
X020514Y006431D02*
X019926Y006431D01*
X019926Y006513D02*
X020514Y006513D01*
X020514Y006595D02*
X019926Y006595D01*
X019926Y006677D02*
X020514Y006677D01*
X020514Y006759D02*
X019926Y006759D01*
X019926Y006841D02*
X020514Y006841D01*
X019926Y007215D02*
X019926Y007725D01*
X020514Y007725D01*
X020514Y007215D01*
X019926Y007215D01*
X019926Y007297D02*
X020514Y007297D01*
X020514Y007379D02*
X019926Y007379D01*
X019926Y007461D02*
X020514Y007461D01*
X020514Y007543D02*
X019926Y007543D01*
X019926Y007625D02*
X020514Y007625D01*
X020514Y007707D02*
X019926Y007707D01*
X019926Y007963D02*
X019926Y008473D01*
X020514Y008473D01*
X020514Y007963D01*
X019926Y007963D01*
X019926Y008045D02*
X020514Y008045D01*
X020514Y008127D02*
X019926Y008127D01*
X019926Y008209D02*
X020514Y008209D01*
X020514Y008291D02*
X019926Y008291D01*
X019926Y008373D02*
X020514Y008373D01*
X020514Y008455D02*
X019926Y008455D01*
X024551Y006211D02*
X025061Y006211D01*
X024551Y006211D02*
X024551Y006799D01*
X025061Y006799D01*
X025061Y006211D01*
X025061Y006293D02*
X024551Y006293D01*
X024551Y006375D02*
X025061Y006375D01*
X025061Y006457D02*
X024551Y006457D01*
X024551Y006539D02*
X025061Y006539D01*
X025061Y006621D02*
X024551Y006621D01*
X024551Y006703D02*
X025061Y006703D01*
X025061Y006785D02*
X024551Y006785D01*
X025299Y006211D02*
X025809Y006211D01*
X025299Y006211D02*
X025299Y006799D01*
X025809Y006799D01*
X025809Y006211D01*
X025809Y006293D02*
X025299Y006293D01*
X025299Y006375D02*
X025809Y006375D01*
X025809Y006457D02*
X025299Y006457D01*
X025299Y006539D02*
X025809Y006539D01*
X025809Y006621D02*
X025299Y006621D01*
X025299Y006703D02*
X025809Y006703D01*
X025809Y006785D02*
X025299Y006785D01*
X025299Y005384D02*
X025809Y005384D01*
X025299Y005384D02*
X025299Y005972D01*
X025809Y005972D01*
X025809Y005384D01*
X025809Y005466D02*
X025299Y005466D01*
X025299Y005548D02*
X025809Y005548D01*
X025809Y005630D02*
X025299Y005630D01*
X025299Y005712D02*
X025809Y005712D01*
X025809Y005794D02*
X025299Y005794D01*
X025299Y005876D02*
X025809Y005876D01*
X025809Y005958D02*
X025299Y005958D01*
X025061Y005384D02*
X024551Y005384D01*
X024551Y005972D01*
X025061Y005972D01*
X025061Y005384D01*
X025061Y005466D02*
X024551Y005466D01*
X024551Y005548D02*
X025061Y005548D01*
X025061Y005630D02*
X024551Y005630D01*
X024551Y005712D02*
X025061Y005712D01*
X025061Y005794D02*
X024551Y005794D01*
X024551Y005876D02*
X025061Y005876D01*
X025061Y005958D02*
X024551Y005958D01*
X024550Y003377D02*
X024040Y003377D01*
X024040Y003965D01*
X024550Y003965D01*
X024550Y003377D01*
X024550Y003459D02*
X024040Y003459D01*
X024040Y003541D02*
X024550Y003541D01*
X024550Y003623D02*
X024040Y003623D01*
X024040Y003705D02*
X024550Y003705D01*
X024550Y003787D02*
X024040Y003787D01*
X024040Y003869D02*
X024550Y003869D01*
X024550Y003951D02*
X024040Y003951D01*
X024788Y003377D02*
X025298Y003377D01*
X024788Y003377D02*
X024788Y003965D01*
X025298Y003965D01*
X025298Y003377D01*
X025298Y003459D02*
X024788Y003459D01*
X024788Y003541D02*
X025298Y003541D01*
X025298Y003623D02*
X024788Y003623D01*
X024788Y003705D02*
X025298Y003705D01*
X025298Y003787D02*
X024788Y003787D01*
X024788Y003869D02*
X025298Y003869D01*
X025298Y003951D02*
X024788Y003951D01*
X024788Y002550D02*
X025298Y002550D01*
X024788Y002550D02*
X024788Y003138D01*
X025298Y003138D01*
X025298Y002550D01*
X025298Y002632D02*
X024788Y002632D01*
X024788Y002714D02*
X025298Y002714D01*
X025298Y002796D02*
X024788Y002796D01*
X024788Y002878D02*
X025298Y002878D01*
X025298Y002960D02*
X024788Y002960D01*
X024788Y003042D02*
X025298Y003042D01*
X025298Y003124D02*
X024788Y003124D01*
X024550Y002550D02*
X024040Y002550D01*
X024040Y003138D01*
X024550Y003138D01*
X024550Y002550D01*
X024550Y002632D02*
X024040Y002632D01*
X024040Y002714D02*
X024550Y002714D01*
X024550Y002796D02*
X024040Y002796D01*
X024040Y002878D02*
X024550Y002878D01*
X024550Y002960D02*
X024040Y002960D01*
X024040Y003042D02*
X024550Y003042D01*
X024550Y003124D02*
X024040Y003124D01*
X018427Y002567D02*
X018427Y002057D01*
X017839Y002057D01*
X017839Y002567D01*
X018427Y002567D01*
X018427Y002139D02*
X017839Y002139D01*
X017839Y002221D02*
X018427Y002221D01*
X018427Y002303D02*
X017839Y002303D01*
X017839Y002385D02*
X018427Y002385D01*
X018427Y002467D02*
X017839Y002467D01*
X017839Y002549D02*
X018427Y002549D01*
X028408Y010266D02*
X028408Y010776D01*
X028408Y010266D02*
X027544Y010266D01*
X027544Y010776D01*
X028408Y010776D01*
X028408Y010348D02*
X027544Y010348D01*
X027544Y010430D02*
X028408Y010430D01*
X028408Y010512D02*
X027544Y010512D01*
X027544Y010594D02*
X028408Y010594D01*
X028408Y010676D02*
X027544Y010676D01*
X027544Y010758D02*
X028408Y010758D01*
X028408Y011919D02*
X028408Y012429D01*
X028408Y011919D02*
X027544Y011919D01*
X027544Y012429D01*
X028408Y012429D01*
X028408Y012001D02*
X027544Y012001D01*
X027544Y012083D02*
X028408Y012083D01*
X028408Y012165D02*
X027544Y012165D01*
X027544Y012247D02*
X028408Y012247D01*
X028408Y012329D02*
X027544Y012329D01*
X027544Y012411D02*
X028408Y012411D01*
X028309Y014774D02*
X028309Y015284D01*
X028309Y014774D02*
X027721Y014774D01*
X027721Y015284D01*
X028309Y015284D01*
X028309Y014856D02*
X027721Y014856D01*
X027721Y014938D02*
X028309Y014938D01*
X028309Y015020D02*
X027721Y015020D01*
X027721Y015102D02*
X028309Y015102D01*
X028309Y015184D02*
X027721Y015184D01*
X027721Y015266D02*
X028309Y015266D01*
X028309Y015522D02*
X028309Y016032D01*
X028309Y015522D02*
X027721Y015522D01*
X027721Y016032D01*
X028309Y016032D01*
X028309Y015604D02*
X027721Y015604D01*
X027721Y015686D02*
X028309Y015686D01*
X028309Y015768D02*
X027721Y015768D01*
X027721Y015850D02*
X028309Y015850D01*
X028309Y015932D02*
X027721Y015932D01*
X027721Y016014D02*
X028309Y016014D01*
X026695Y015797D02*
X026695Y016307D01*
X026695Y015797D02*
X026107Y015797D01*
X026107Y016307D01*
X026695Y016307D01*
X026695Y015879D02*
X026107Y015879D01*
X026107Y015961D02*
X026695Y015961D01*
X026695Y016043D02*
X026107Y016043D01*
X026107Y016125D02*
X026695Y016125D01*
X026695Y016207D02*
X026107Y016207D01*
X026107Y016289D02*
X026695Y016289D01*
X025868Y016307D02*
X025868Y015797D01*
X025280Y015797D01*
X025280Y016307D01*
X025868Y016307D01*
X025868Y015879D02*
X025280Y015879D01*
X025280Y015961D02*
X025868Y015961D01*
X025868Y016043D02*
X025280Y016043D01*
X025280Y016125D02*
X025868Y016125D01*
X025868Y016207D02*
X025280Y016207D01*
X025280Y016289D02*
X025868Y016289D01*
X025868Y015559D02*
X025868Y015049D01*
X025280Y015049D01*
X025280Y015559D01*
X025868Y015559D01*
X025868Y015131D02*
X025280Y015131D01*
X025280Y015213D02*
X025868Y015213D01*
X025868Y015295D02*
X025280Y015295D01*
X025280Y015377D02*
X025868Y015377D01*
X025868Y015459D02*
X025280Y015459D01*
X025280Y015541D02*
X025868Y015541D01*
X026695Y015559D02*
X026695Y015049D01*
X026107Y015049D01*
X026107Y015559D01*
X026695Y015559D01*
X026695Y015131D02*
X026107Y015131D01*
X026107Y015213D02*
X026695Y015213D01*
X026695Y015295D02*
X026107Y015295D01*
X026107Y015377D02*
X026695Y015377D01*
X026695Y015459D02*
X026107Y015459D01*
X026107Y015541D02*
X026695Y015541D01*
X023115Y015601D02*
X023115Y016111D01*
X023703Y016111D01*
X023703Y015601D01*
X023115Y015601D01*
X023115Y015683D02*
X023703Y015683D01*
X023703Y015765D02*
X023115Y015765D01*
X023115Y015847D02*
X023703Y015847D01*
X023703Y015929D02*
X023115Y015929D01*
X023115Y016011D02*
X023703Y016011D01*
X023703Y016093D02*
X023115Y016093D01*
X023115Y016349D02*
X023115Y016859D01*
X023703Y016859D01*
X023703Y016349D01*
X023115Y016349D01*
X023115Y016431D02*
X023703Y016431D01*
X023703Y016513D02*
X023115Y016513D01*
X023115Y016595D02*
X023703Y016595D01*
X023703Y016677D02*
X023115Y016677D01*
X023115Y016759D02*
X023703Y016759D01*
X023703Y016841D02*
X023115Y016841D01*
X021855Y016859D02*
X021855Y016349D01*
X021855Y016859D02*
X022443Y016859D01*
X022443Y016349D01*
X021855Y016349D01*
X021855Y016431D02*
X022443Y016431D01*
X022443Y016513D02*
X021855Y016513D01*
X021855Y016595D02*
X022443Y016595D01*
X022443Y016677D02*
X021855Y016677D01*
X021855Y016759D02*
X022443Y016759D01*
X022443Y016841D02*
X021855Y016841D01*
X021855Y016111D02*
X021855Y015601D01*
X021855Y016111D02*
X022443Y016111D01*
X022443Y015601D01*
X021855Y015601D01*
X021855Y015683D02*
X022443Y015683D01*
X022443Y015765D02*
X021855Y015765D01*
X021855Y015847D02*
X022443Y015847D01*
X022443Y015929D02*
X021855Y015929D01*
X021855Y016011D02*
X022443Y016011D01*
X022443Y016093D02*
X021855Y016093D01*
X016912Y018020D02*
X016402Y018020D01*
X016912Y018020D02*
X016912Y017432D01*
X016402Y017432D01*
X016402Y018020D01*
X016402Y017514D02*
X016912Y017514D01*
X016912Y017596D02*
X016402Y017596D01*
X016402Y017678D02*
X016912Y017678D01*
X016912Y017760D02*
X016402Y017760D01*
X016402Y017842D02*
X016912Y017842D01*
X016912Y017924D02*
X016402Y017924D01*
X016402Y018006D02*
X016912Y018006D01*
X016912Y018846D02*
X016402Y018846D01*
X016912Y018846D02*
X016912Y018258D01*
X016402Y018258D01*
X016402Y018846D01*
X016402Y018340D02*
X016912Y018340D01*
X016912Y018422D02*
X016402Y018422D01*
X016402Y018504D02*
X016912Y018504D01*
X016912Y018586D02*
X016402Y018586D01*
X016402Y018668D02*
X016912Y018668D01*
X016912Y018750D02*
X016402Y018750D01*
X016402Y018832D02*
X016912Y018832D01*
X016164Y018846D02*
X015654Y018846D01*
X016164Y018846D02*
X016164Y018258D01*
X015654Y018258D01*
X015654Y018846D01*
X015654Y018340D02*
X016164Y018340D01*
X016164Y018422D02*
X015654Y018422D01*
X015654Y018504D02*
X016164Y018504D01*
X016164Y018586D02*
X015654Y018586D01*
X015654Y018668D02*
X016164Y018668D01*
X016164Y018750D02*
X015654Y018750D01*
X015654Y018832D02*
X016164Y018832D01*
X016164Y018020D02*
X015654Y018020D01*
X016164Y018020D02*
X016164Y017432D01*
X015654Y017432D01*
X015654Y018020D01*
X015654Y017514D02*
X016164Y017514D01*
X016164Y017596D02*
X015654Y017596D01*
X015654Y017678D02*
X016164Y017678D01*
X016164Y017760D02*
X015654Y017760D01*
X015654Y017842D02*
X016164Y017842D01*
X016164Y017924D02*
X015654Y017924D01*
X015654Y018006D02*
X016164Y018006D01*
D19*
X001757Y005716D02*
X001757Y005168D01*
X001757Y005716D02*
X002463Y005716D01*
X002463Y005168D01*
X001757Y005168D01*
X001757Y005249D02*
X002463Y005249D01*
X002463Y005330D02*
X001757Y005330D01*
X001757Y005411D02*
X002463Y005411D01*
X002463Y005492D02*
X001757Y005492D01*
X001757Y005573D02*
X002463Y005573D01*
X002463Y005654D02*
X001757Y005654D01*
X001757Y004378D02*
X001757Y003830D01*
X001757Y004378D02*
X002463Y004378D01*
X002463Y003830D01*
X001757Y003830D01*
X001757Y003911D02*
X002463Y003911D01*
X002463Y003992D02*
X001757Y003992D01*
X001757Y004073D02*
X002463Y004073D01*
X002463Y004154D02*
X001757Y004154D01*
X001757Y004235D02*
X002463Y004235D01*
X002463Y004316D02*
X001757Y004316D01*
X005418Y002530D02*
X005966Y002530D01*
X005418Y002530D02*
X005418Y003078D01*
X005966Y003078D01*
X005966Y002530D01*
X005966Y002611D02*
X005418Y002611D01*
X005418Y002692D02*
X005966Y002692D01*
X005966Y002773D02*
X005418Y002773D01*
X005418Y002854D02*
X005966Y002854D01*
X005966Y002935D02*
X005418Y002935D01*
X005418Y003016D02*
X005966Y003016D01*
X006914Y002530D02*
X007462Y002530D01*
X006914Y002530D02*
X006914Y003078D01*
X007462Y003078D01*
X007462Y002530D01*
X007462Y002611D02*
X006914Y002611D01*
X006914Y002692D02*
X007462Y002692D01*
X007462Y002773D02*
X006914Y002773D01*
X006914Y002854D02*
X007462Y002854D01*
X007462Y002935D02*
X006914Y002935D01*
X006914Y003016D02*
X007462Y003016D01*
D20*
X004138Y003278D02*
X004138Y003552D01*
X004490Y003552D01*
X004490Y003278D01*
X004138Y003278D01*
X004138Y003359D02*
X004490Y003359D01*
X004490Y003440D02*
X004138Y003440D01*
X004138Y003521D02*
X004490Y003521D01*
X004138Y003789D02*
X004138Y004063D01*
X004490Y004063D01*
X004490Y003789D01*
X004138Y003789D01*
X004138Y003870D02*
X004490Y003870D01*
X004490Y003951D02*
X004138Y003951D01*
X004138Y004032D02*
X004490Y004032D01*
X004926Y003808D02*
X004926Y003534D01*
X004926Y003808D02*
X005278Y003808D01*
X005278Y003534D01*
X004926Y003534D01*
X004926Y003615D02*
X005278Y003615D01*
X005278Y003696D02*
X004926Y003696D01*
X004926Y003777D02*
X005278Y003777D01*
X008979Y002941D02*
X008979Y002667D01*
X008627Y002667D01*
X008627Y002941D01*
X008979Y002941D01*
X008979Y002748D02*
X008627Y002748D01*
X008627Y002829D02*
X008979Y002829D01*
X008979Y002910D02*
X008627Y002910D01*
X009766Y002923D02*
X009766Y003197D01*
X009766Y002923D02*
X009414Y002923D01*
X009414Y003197D01*
X009766Y003197D01*
X009766Y003004D02*
X009414Y003004D01*
X009414Y003085D02*
X009766Y003085D01*
X009766Y003166D02*
X009414Y003166D01*
X009766Y002686D02*
X009766Y002412D01*
X009414Y002412D01*
X009414Y002686D01*
X009766Y002686D01*
X009766Y002493D02*
X009414Y002493D01*
X009414Y002574D02*
X009766Y002574D01*
X009766Y002655D02*
X009414Y002655D01*
X012719Y002667D02*
X012719Y002941D01*
X012719Y002667D02*
X012367Y002667D01*
X012367Y002941D01*
X012719Y002941D01*
X012719Y002748D02*
X012367Y002748D01*
X012367Y002829D02*
X012719Y002829D01*
X012719Y002910D02*
X012367Y002910D01*
X013506Y002923D02*
X013506Y003197D01*
X013506Y002923D02*
X013154Y002923D01*
X013154Y003197D01*
X013506Y003197D01*
X013506Y003004D02*
X013154Y003004D01*
X013154Y003085D02*
X013506Y003085D01*
X013506Y003166D02*
X013154Y003166D01*
X013506Y002686D02*
X013506Y002412D01*
X013154Y002412D01*
X013154Y002686D01*
X013506Y002686D01*
X013506Y002493D02*
X013154Y002493D01*
X013154Y002574D02*
X013506Y002574D01*
X013506Y002655D02*
X013154Y002655D01*
D21*
X003310Y006171D02*
X002956Y006171D01*
X002956Y006327D01*
X003310Y006327D01*
X003310Y006171D01*
X003310Y006251D02*
X002956Y006251D01*
X002956Y006683D02*
X003310Y006683D01*
X002956Y006683D02*
X002956Y006839D01*
X003310Y006839D01*
X003310Y006683D01*
X003310Y006763D02*
X002956Y006763D01*
X002444Y006683D02*
X002090Y006683D01*
X002090Y006839D01*
X002444Y006839D01*
X002444Y006683D01*
X002444Y006763D02*
X002090Y006763D01*
X002090Y006427D02*
X002444Y006427D01*
X002090Y006427D02*
X002090Y006583D01*
X002444Y006583D01*
X002444Y006427D01*
X002444Y006507D02*
X002090Y006507D01*
X002090Y006171D02*
X002444Y006171D01*
X002090Y006171D02*
X002090Y006327D01*
X002444Y006327D01*
X002444Y006171D01*
X002444Y006251D02*
X002090Y006251D01*
D22*
X027001Y008837D02*
X027001Y009174D01*
X027493Y009174D02*
X027493Y008837D01*
X027986Y008837D02*
X027986Y009174D01*
X028478Y009174D02*
X028478Y008837D01*
D23*
X028527Y010324D02*
X028959Y010324D01*
X028527Y010324D02*
X028527Y010718D01*
X028959Y010718D01*
X028959Y010324D01*
X028959Y010404D02*
X028527Y010404D01*
X028527Y010484D02*
X028959Y010484D01*
X028959Y010564D02*
X028527Y010564D01*
X028527Y010644D02*
X028959Y010644D01*
X029197Y010324D02*
X029629Y010324D01*
X029197Y010324D02*
X029197Y010718D01*
X029629Y010718D01*
X029629Y010324D01*
X029629Y010404D02*
X029197Y010404D01*
X029197Y010484D02*
X029629Y010484D01*
X029629Y010564D02*
X029197Y010564D01*
X029197Y010644D02*
X029629Y010644D01*
X029629Y011977D02*
X029197Y011977D01*
X029197Y012371D01*
X029629Y012371D01*
X029629Y011977D01*
X029629Y012057D02*
X029197Y012057D01*
X029197Y012137D02*
X029629Y012137D01*
X029629Y012217D02*
X029197Y012217D01*
X029197Y012297D02*
X029629Y012297D01*
X028959Y011977D02*
X028527Y011977D01*
X028527Y012371D01*
X028959Y012371D01*
X028959Y011977D01*
X028959Y012057D02*
X028527Y012057D01*
X028527Y012137D02*
X028959Y012137D01*
X028959Y012217D02*
X028527Y012217D01*
X028527Y012297D02*
X028959Y012297D01*
X026913Y012136D02*
X026913Y012568D01*
X027307Y012568D01*
X027307Y012136D01*
X026913Y012136D01*
X026913Y012216D02*
X027307Y012216D01*
X027307Y012296D02*
X026913Y012296D01*
X026913Y012376D02*
X027307Y012376D01*
X027307Y012456D02*
X026913Y012456D01*
X026913Y012536D02*
X027307Y012536D01*
X026913Y011898D02*
X026913Y011466D01*
X026913Y011898D02*
X027307Y011898D01*
X027307Y011466D01*
X026913Y011466D01*
X026913Y011546D02*
X027307Y011546D01*
X027307Y011626D02*
X026913Y011626D01*
X026913Y011706D02*
X027307Y011706D01*
X027307Y011786D02*
X026913Y011786D01*
X026913Y011866D02*
X027307Y011866D01*
X023723Y014812D02*
X023291Y014812D01*
X023291Y015206D01*
X023723Y015206D01*
X023723Y014812D01*
X023723Y014892D02*
X023291Y014892D01*
X023291Y014972D02*
X023723Y014972D01*
X023723Y015052D02*
X023291Y015052D01*
X023291Y015132D02*
X023723Y015132D01*
X023054Y014812D02*
X022622Y014812D01*
X022622Y015206D01*
X023054Y015206D01*
X023054Y014812D01*
X023054Y014892D02*
X022622Y014892D01*
X022622Y014972D02*
X023054Y014972D01*
X023054Y015052D02*
X022622Y015052D01*
X022622Y015132D02*
X023054Y015132D01*
X027169Y016073D02*
X027563Y016073D01*
X027169Y016073D02*
X027169Y016643D01*
X027563Y016643D01*
X027563Y016073D01*
X027563Y016153D02*
X027169Y016153D01*
X027169Y016233D02*
X027563Y016233D01*
X027563Y016313D02*
X027169Y016313D01*
X027169Y016393D02*
X027563Y016393D01*
X027563Y016473D02*
X027169Y016473D01*
X027169Y016553D02*
X027563Y016553D01*
X027563Y016633D02*
X027169Y016633D01*
X027838Y016073D02*
X028232Y016073D01*
X027838Y016073D02*
X027838Y016643D01*
X028232Y016643D01*
X028232Y016073D01*
X028232Y016153D02*
X027838Y016153D01*
X027838Y016233D02*
X028232Y016233D01*
X028232Y016313D02*
X027838Y016313D01*
X027838Y016393D02*
X028232Y016393D01*
X028232Y016473D02*
X027838Y016473D01*
X027838Y016553D02*
X028232Y016553D01*
X028232Y016633D02*
X027838Y016633D01*
X027838Y018100D02*
X028232Y018100D01*
X027838Y018100D02*
X027838Y018670D01*
X028232Y018670D01*
X028232Y018100D01*
X028232Y018180D02*
X027838Y018180D01*
X027838Y018260D02*
X028232Y018260D01*
X028232Y018340D02*
X027838Y018340D01*
X027838Y018420D02*
X028232Y018420D01*
X028232Y018500D02*
X027838Y018500D01*
X027838Y018580D02*
X028232Y018580D01*
X028232Y018660D02*
X027838Y018660D01*
X027563Y018100D02*
X027169Y018100D01*
X027169Y018670D01*
X027563Y018670D01*
X027563Y018100D01*
X027563Y018180D02*
X027169Y018180D01*
X027169Y018260D02*
X027563Y018260D01*
X027563Y018340D02*
X027169Y018340D01*
X027169Y018420D02*
X027563Y018420D01*
X027563Y018500D02*
X027169Y018500D01*
X027169Y018580D02*
X027563Y018580D01*
X027563Y018660D02*
X027169Y018660D01*
X020299Y011977D02*
X020299Y011545D01*
X019905Y011545D01*
X019905Y011977D01*
X020299Y011977D01*
X020299Y011625D02*
X019905Y011625D01*
X019905Y011705D02*
X020299Y011705D01*
X020299Y011785D02*
X019905Y011785D01*
X019905Y011865D02*
X020299Y011865D01*
X020299Y011945D02*
X019905Y011945D01*
X020299Y011308D02*
X020299Y010876D01*
X019905Y010876D01*
X019905Y011308D01*
X020299Y011308D01*
X020299Y010956D02*
X019905Y010956D01*
X019905Y011036D02*
X020299Y011036D01*
X020299Y011116D02*
X019905Y011116D01*
X019905Y011196D02*
X020299Y011196D01*
X020299Y011276D02*
X019905Y011276D01*
X024236Y008238D02*
X024668Y008238D01*
X024668Y007844D01*
X024236Y007844D01*
X024236Y008238D01*
X024236Y007924D02*
X024668Y007924D01*
X024668Y008004D02*
X024236Y008004D01*
X024236Y008084D02*
X024668Y008084D01*
X024668Y008164D02*
X024236Y008164D01*
X024905Y008238D02*
X025337Y008238D01*
X025337Y007844D01*
X024905Y007844D01*
X024905Y008238D01*
X024905Y007924D02*
X025337Y007924D01*
X025337Y008004D02*
X024905Y008004D01*
X024905Y008084D02*
X025337Y008084D01*
X025337Y008164D02*
X024905Y008164D01*
X027169Y003927D02*
X027563Y003927D01*
X027169Y003927D02*
X027169Y004497D01*
X027563Y004497D01*
X027563Y003927D01*
X027563Y004007D02*
X027169Y004007D01*
X027169Y004087D02*
X027563Y004087D01*
X027563Y004167D02*
X027169Y004167D01*
X027169Y004247D02*
X027563Y004247D01*
X027563Y004327D02*
X027169Y004327D01*
X027169Y004407D02*
X027563Y004407D01*
X027563Y004487D02*
X027169Y004487D01*
X027838Y003927D02*
X028232Y003927D01*
X027838Y003927D02*
X027838Y004497D01*
X028232Y004497D01*
X028232Y003927D01*
X028232Y004007D02*
X027838Y004007D01*
X027838Y004087D02*
X028232Y004087D01*
X028232Y004167D02*
X027838Y004167D01*
X027838Y004247D02*
X028232Y004247D01*
X028232Y004327D02*
X027838Y004327D01*
X027838Y004407D02*
X028232Y004407D01*
X028232Y004487D02*
X027838Y004487D01*
X027838Y001899D02*
X028232Y001899D01*
X027838Y001899D02*
X027838Y002469D01*
X028232Y002469D01*
X028232Y001899D01*
X028232Y001979D02*
X027838Y001979D01*
X027838Y002059D02*
X028232Y002059D01*
X028232Y002139D02*
X027838Y002139D01*
X027838Y002219D02*
X028232Y002219D01*
X028232Y002299D02*
X027838Y002299D01*
X027838Y002379D02*
X028232Y002379D01*
X028232Y002459D02*
X027838Y002459D01*
X027563Y001899D02*
X027169Y001899D01*
X027169Y002469D01*
X027563Y002469D01*
X027563Y001899D01*
X027563Y001979D02*
X027169Y001979D01*
X027169Y002059D02*
X027563Y002059D01*
X027563Y002139D02*
X027169Y002139D01*
X027169Y002219D02*
X027563Y002219D01*
X027563Y002299D02*
X027169Y002299D01*
X027169Y002379D02*
X027563Y002379D01*
X027563Y002459D02*
X027169Y002459D01*
D24*
X022019Y006840D03*
X026125Y009104D03*
X026125Y009694D03*
X028488Y013237D03*
D25*
X026636Y016487D02*
X026636Y017075D01*
X026636Y016487D02*
X026206Y016487D01*
X026206Y017075D01*
X026636Y017075D01*
X026636Y016568D02*
X026206Y016568D01*
X026206Y016649D02*
X026636Y016649D01*
X026636Y016730D02*
X026206Y016730D01*
X026206Y016811D02*
X026636Y016811D01*
X026636Y016892D02*
X026206Y016892D01*
X026206Y016973D02*
X026636Y016973D01*
X026636Y017054D02*
X026206Y017054D01*
X026045Y017075D02*
X026045Y016487D01*
X025615Y016487D01*
X025615Y017075D01*
X026045Y017075D01*
X026045Y016568D02*
X025615Y016568D01*
X025615Y016649D02*
X026045Y016649D01*
X026045Y016730D02*
X025615Y016730D01*
X025615Y016811D02*
X026045Y016811D01*
X026045Y016892D02*
X025615Y016892D01*
X025615Y016973D02*
X026045Y016973D01*
X026045Y017054D02*
X025615Y017054D01*
X026045Y017668D02*
X026045Y018256D01*
X026045Y017668D02*
X025615Y017668D01*
X025615Y018256D01*
X026045Y018256D01*
X026045Y017749D02*
X025615Y017749D01*
X025615Y017830D02*
X026045Y017830D01*
X026045Y017911D02*
X025615Y017911D01*
X025615Y017992D02*
X026045Y017992D01*
X026045Y018073D02*
X025615Y018073D01*
X025615Y018154D02*
X026045Y018154D01*
X026045Y018235D02*
X025615Y018235D01*
X026636Y018256D02*
X026636Y017668D01*
X026206Y017668D01*
X026206Y018256D01*
X026636Y018256D01*
X026636Y017749D02*
X026206Y017749D01*
X026206Y017830D02*
X026636Y017830D01*
X026636Y017911D02*
X026206Y017911D01*
X026206Y017992D02*
X026636Y017992D01*
X026636Y018073D02*
X026206Y018073D01*
X026206Y018154D02*
X026636Y018154D01*
X026636Y018235D02*
X026206Y018235D01*
X026636Y004083D02*
X026636Y003495D01*
X026206Y003495D01*
X026206Y004083D01*
X026636Y004083D01*
X026636Y003576D02*
X026206Y003576D01*
X026206Y003657D02*
X026636Y003657D01*
X026636Y003738D02*
X026206Y003738D01*
X026206Y003819D02*
X026636Y003819D01*
X026636Y003900D02*
X026206Y003900D01*
X026206Y003981D02*
X026636Y003981D01*
X026636Y004062D02*
X026206Y004062D01*
X026045Y004083D02*
X026045Y003495D01*
X025615Y003495D01*
X025615Y004083D01*
X026045Y004083D01*
X026045Y003576D02*
X025615Y003576D01*
X025615Y003657D02*
X026045Y003657D01*
X026045Y003738D02*
X025615Y003738D01*
X025615Y003819D02*
X026045Y003819D01*
X026045Y003900D02*
X025615Y003900D01*
X025615Y003981D02*
X026045Y003981D01*
X026045Y004062D02*
X025615Y004062D01*
X026045Y002902D02*
X026045Y002314D01*
X025615Y002314D01*
X025615Y002902D01*
X026045Y002902D01*
X026045Y002395D02*
X025615Y002395D01*
X025615Y002476D02*
X026045Y002476D01*
X026045Y002557D02*
X025615Y002557D01*
X025615Y002638D02*
X026045Y002638D01*
X026045Y002719D02*
X025615Y002719D01*
X025615Y002800D02*
X026045Y002800D01*
X026045Y002881D02*
X025615Y002881D01*
X026636Y002902D02*
X026636Y002314D01*
X026206Y002314D01*
X026206Y002902D01*
X026636Y002902D01*
X026636Y002395D02*
X026206Y002395D01*
X026206Y002476D02*
X026636Y002476D01*
X026636Y002557D02*
X026206Y002557D01*
X026206Y002638D02*
X026636Y002638D01*
X026636Y002719D02*
X026206Y002719D01*
X026206Y002800D02*
X026636Y002800D01*
X026636Y002881D02*
X026206Y002881D01*
D26*
X023684Y005023D02*
X023684Y005113D01*
X023684Y005023D02*
X023370Y005023D01*
X023370Y005113D01*
X023684Y005113D01*
X023684Y005102D02*
X023370Y005102D01*
X023684Y005220D02*
X023684Y005310D01*
X023684Y005220D02*
X023370Y005220D01*
X023370Y005310D01*
X023684Y005310D01*
X023684Y005299D02*
X023370Y005299D01*
X023684Y005417D02*
X023684Y005507D01*
X023684Y005417D02*
X023370Y005417D01*
X023370Y005507D01*
X023684Y005507D01*
X023684Y005496D02*
X023370Y005496D01*
X023370Y005614D02*
X023370Y005704D01*
X023684Y005704D01*
X023684Y005614D01*
X023370Y005614D01*
X023370Y005693D02*
X023684Y005693D01*
X023370Y005811D02*
X023370Y005901D01*
X023684Y005901D01*
X023684Y005811D01*
X023370Y005811D01*
X023370Y005890D02*
X023684Y005890D01*
X023370Y006007D02*
X023370Y006097D01*
X023684Y006097D01*
X023684Y006007D01*
X023370Y006007D01*
X023370Y006086D02*
X023684Y006086D01*
X023277Y006191D02*
X023187Y006191D01*
X023187Y006505D01*
X023277Y006505D01*
X023277Y006191D01*
X023277Y006270D02*
X023187Y006270D01*
X023187Y006349D02*
X023277Y006349D01*
X023277Y006428D02*
X023187Y006428D01*
X023080Y006191D02*
X022990Y006191D01*
X022990Y006505D01*
X023080Y006505D01*
X023080Y006191D01*
X023080Y006270D02*
X022990Y006270D01*
X022990Y006349D02*
X023080Y006349D01*
X023080Y006428D02*
X022990Y006428D01*
X022883Y006191D02*
X022793Y006191D01*
X022793Y006505D01*
X022883Y006505D01*
X022883Y006191D01*
X022883Y006270D02*
X022793Y006270D01*
X022793Y006349D02*
X022883Y006349D01*
X022883Y006428D02*
X022793Y006428D01*
X022686Y006191D02*
X022596Y006191D01*
X022596Y006505D01*
X022686Y006505D01*
X022686Y006191D01*
X022686Y006270D02*
X022596Y006270D01*
X022596Y006349D02*
X022686Y006349D01*
X022686Y006428D02*
X022596Y006428D01*
X022489Y006191D02*
X022399Y006191D01*
X022399Y006505D01*
X022489Y006505D01*
X022489Y006191D01*
X022489Y006270D02*
X022399Y006270D01*
X022399Y006349D02*
X022489Y006349D01*
X022489Y006428D02*
X022399Y006428D01*
X022292Y006191D02*
X022202Y006191D01*
X022202Y006505D01*
X022292Y006505D01*
X022292Y006191D01*
X022292Y006270D02*
X022202Y006270D01*
X022202Y006349D02*
X022292Y006349D01*
X022292Y006428D02*
X022202Y006428D01*
X021795Y006097D02*
X021795Y006007D01*
X021795Y006097D02*
X022109Y006097D01*
X022109Y006007D01*
X021795Y006007D01*
X021795Y006086D02*
X022109Y006086D01*
X021795Y005901D02*
X021795Y005811D01*
X021795Y005901D02*
X022109Y005901D01*
X022109Y005811D01*
X021795Y005811D01*
X021795Y005890D02*
X022109Y005890D01*
X021795Y005704D02*
X021795Y005614D01*
X021795Y005704D02*
X022109Y005704D01*
X022109Y005614D01*
X021795Y005614D01*
X021795Y005693D02*
X022109Y005693D01*
X021795Y005507D02*
X021795Y005417D01*
X021795Y005507D02*
X022109Y005507D01*
X022109Y005417D01*
X021795Y005417D01*
X021795Y005496D02*
X022109Y005496D01*
X021795Y005310D02*
X021795Y005220D01*
X021795Y005310D02*
X022109Y005310D01*
X022109Y005220D01*
X021795Y005220D01*
X021795Y005299D02*
X022109Y005299D01*
X021795Y005113D02*
X021795Y005023D01*
X021795Y005113D02*
X022109Y005113D01*
X022109Y005023D01*
X021795Y005023D01*
X021795Y005102D02*
X022109Y005102D01*
X022202Y004616D02*
X022292Y004616D01*
X022202Y004616D02*
X022202Y004930D01*
X022292Y004930D01*
X022292Y004616D01*
X022292Y004695D02*
X022202Y004695D01*
X022202Y004774D02*
X022292Y004774D01*
X022292Y004853D02*
X022202Y004853D01*
X022399Y004616D02*
X022489Y004616D01*
X022399Y004616D02*
X022399Y004930D01*
X022489Y004930D01*
X022489Y004616D01*
X022489Y004695D02*
X022399Y004695D01*
X022399Y004774D02*
X022489Y004774D01*
X022489Y004853D02*
X022399Y004853D01*
X022596Y004616D02*
X022686Y004616D01*
X022596Y004616D02*
X022596Y004930D01*
X022686Y004930D01*
X022686Y004616D01*
X022686Y004695D02*
X022596Y004695D01*
X022596Y004774D02*
X022686Y004774D01*
X022686Y004853D02*
X022596Y004853D01*
X022793Y004616D02*
X022883Y004616D01*
X022793Y004616D02*
X022793Y004930D01*
X022883Y004930D01*
X022883Y004616D01*
X022883Y004695D02*
X022793Y004695D01*
X022793Y004774D02*
X022883Y004774D01*
X022883Y004853D02*
X022793Y004853D01*
X022990Y004616D02*
X023080Y004616D01*
X022990Y004616D02*
X022990Y004930D01*
X023080Y004930D01*
X023080Y004616D01*
X023080Y004695D02*
X022990Y004695D01*
X022990Y004774D02*
X023080Y004774D01*
X023080Y004853D02*
X022990Y004853D01*
X023187Y004616D02*
X023277Y004616D01*
X023187Y004616D02*
X023187Y004930D01*
X023277Y004930D01*
X023277Y004616D01*
X023277Y004695D02*
X023187Y004695D01*
X023187Y004774D02*
X023277Y004774D01*
X023277Y004853D02*
X023187Y004853D01*
D27*
X023153Y005009D02*
X023291Y005147D01*
X023291Y006111D01*
X022188Y006111D01*
X022188Y005009D01*
X023153Y005009D01*
X023160Y005016D02*
X022188Y005016D01*
X022188Y005065D02*
X023208Y005065D01*
X023257Y005113D02*
X022188Y005113D01*
X022188Y005162D02*
X023291Y005162D01*
X023291Y005210D02*
X022188Y005210D01*
X022188Y005259D02*
X023291Y005259D01*
X023291Y005307D02*
X022188Y005307D01*
X022188Y005356D02*
X023291Y005356D01*
X023291Y005404D02*
X022188Y005404D01*
X022188Y005453D02*
X023291Y005453D01*
X023291Y005501D02*
X022188Y005501D01*
X022188Y005550D02*
X023291Y005550D01*
X023291Y005599D02*
X022188Y005599D01*
X022188Y005647D02*
X023291Y005647D01*
X023291Y005696D02*
X022188Y005696D01*
X022188Y005744D02*
X023291Y005744D01*
X023291Y005793D02*
X022188Y005793D01*
X022188Y005841D02*
X023291Y005841D01*
X023291Y005890D02*
X022188Y005890D01*
X022188Y005938D02*
X023291Y005938D01*
X023291Y005987D02*
X022188Y005987D01*
X022188Y006035D02*
X023291Y006035D01*
X023291Y006084D02*
X022188Y006084D01*
D28*
X016669Y006637D02*
X016669Y007433D01*
X016669Y006637D02*
X016373Y006637D01*
X016373Y007433D01*
X016669Y007433D01*
X016669Y006720D02*
X016373Y006720D01*
X016373Y006803D02*
X016669Y006803D01*
X016669Y006886D02*
X016373Y006886D01*
X016373Y006969D02*
X016669Y006969D01*
X016669Y007052D02*
X016373Y007052D01*
X016373Y007135D02*
X016669Y007135D01*
X016669Y007218D02*
X016373Y007218D01*
X016373Y007301D02*
X016669Y007301D01*
X016669Y007384D02*
X016373Y007384D01*
X011419Y007433D02*
X011419Y006637D01*
X011123Y006637D01*
X011123Y007433D01*
X011419Y007433D01*
X011419Y006720D02*
X011123Y006720D01*
X011123Y006803D02*
X011419Y006803D01*
X011419Y006886D02*
X011123Y006886D01*
X011123Y006969D02*
X011419Y006969D01*
X011419Y007052D02*
X011123Y007052D01*
X011123Y007135D02*
X011419Y007135D01*
X011419Y007218D02*
X011123Y007218D01*
X011123Y007301D02*
X011419Y007301D01*
X011419Y007384D02*
X011123Y007384D01*
X010919Y007433D02*
X010919Y006637D01*
X010623Y006637D01*
X010623Y007433D01*
X010919Y007433D01*
X010919Y006720D02*
X010623Y006720D01*
X010623Y006803D02*
X010919Y006803D01*
X010919Y006886D02*
X010623Y006886D01*
X010623Y006969D02*
X010919Y006969D01*
X010919Y007052D02*
X010623Y007052D01*
X010623Y007135D02*
X010919Y007135D01*
X010919Y007218D02*
X010623Y007218D01*
X010623Y007301D02*
X010919Y007301D01*
X010919Y007384D02*
X010623Y007384D01*
X010419Y007433D02*
X010419Y006637D01*
X010123Y006637D01*
X010123Y007433D01*
X010419Y007433D01*
X010419Y006720D02*
X010123Y006720D01*
X010123Y006803D02*
X010419Y006803D01*
X010419Y006886D02*
X010123Y006886D01*
X010123Y006969D02*
X010419Y006969D01*
X010419Y007052D02*
X010123Y007052D01*
X010123Y007135D02*
X010419Y007135D01*
X010419Y007218D02*
X010123Y007218D01*
X010123Y007301D02*
X010419Y007301D01*
X010419Y007384D02*
X010123Y007384D01*
X007919Y007433D02*
X007919Y006637D01*
X007623Y006637D01*
X007623Y007433D01*
X007919Y007433D01*
X007919Y006720D02*
X007623Y006720D01*
X007623Y006803D02*
X007919Y006803D01*
X007919Y006886D02*
X007623Y006886D01*
X007623Y006969D02*
X007919Y006969D01*
X007919Y007052D02*
X007623Y007052D01*
X007623Y007135D02*
X007919Y007135D01*
X007919Y007218D02*
X007623Y007218D01*
X007623Y007301D02*
X007919Y007301D01*
X007919Y007384D02*
X007623Y007384D01*
X007419Y007433D02*
X007419Y006637D01*
X007123Y006637D01*
X007123Y007433D01*
X007419Y007433D01*
X007419Y006720D02*
X007123Y006720D01*
X007123Y006803D02*
X007419Y006803D01*
X007419Y006886D02*
X007123Y006886D01*
X007123Y006969D02*
X007419Y006969D01*
X007419Y007052D02*
X007123Y007052D01*
X007123Y007135D02*
X007419Y007135D01*
X007419Y007218D02*
X007123Y007218D01*
X007123Y007301D02*
X007419Y007301D01*
X007419Y007384D02*
X007123Y007384D01*
X006919Y007433D02*
X006919Y006637D01*
X006623Y006637D01*
X006623Y007433D01*
X006919Y007433D01*
X006919Y006720D02*
X006623Y006720D01*
X006623Y006803D02*
X006919Y006803D01*
X006919Y006886D02*
X006623Y006886D01*
X006623Y006969D02*
X006919Y006969D01*
X006919Y007052D02*
X006623Y007052D01*
X006623Y007135D02*
X006919Y007135D01*
X006919Y007218D02*
X006623Y007218D01*
X006623Y007301D02*
X006919Y007301D01*
X006919Y007384D02*
X006623Y007384D01*
X006419Y007433D02*
X006419Y006637D01*
X006123Y006637D01*
X006123Y007433D01*
X006419Y007433D01*
X006419Y006720D02*
X006123Y006720D01*
X006123Y006803D02*
X006419Y006803D01*
X006419Y006886D02*
X006123Y006886D01*
X006123Y006969D02*
X006419Y006969D01*
X006419Y007052D02*
X006123Y007052D01*
X006123Y007135D02*
X006419Y007135D01*
X006419Y007218D02*
X006123Y007218D01*
X006123Y007301D02*
X006419Y007301D01*
X006419Y007384D02*
X006123Y007384D01*
X005919Y007433D02*
X005919Y006637D01*
X005623Y006637D01*
X005623Y007433D01*
X005919Y007433D01*
X005919Y006720D02*
X005623Y006720D01*
X005623Y006803D02*
X005919Y006803D01*
X005919Y006886D02*
X005623Y006886D01*
X005623Y006969D02*
X005919Y006969D01*
X005919Y007052D02*
X005623Y007052D01*
X005623Y007135D02*
X005919Y007135D01*
X005919Y007218D02*
X005623Y007218D01*
X005623Y007301D02*
X005919Y007301D01*
X005919Y007384D02*
X005623Y007384D01*
X005419Y007433D02*
X005419Y006637D01*
X005123Y006637D01*
X005123Y007433D01*
X005419Y007433D01*
X005419Y006720D02*
X005123Y006720D01*
X005123Y006803D02*
X005419Y006803D01*
X005419Y006886D02*
X005123Y006886D01*
X005123Y006969D02*
X005419Y006969D01*
X005419Y007052D02*
X005123Y007052D01*
X005123Y007135D02*
X005419Y007135D01*
X005419Y007218D02*
X005123Y007218D01*
X005123Y007301D02*
X005419Y007301D01*
X005419Y007384D02*
X005123Y007384D01*
X005419Y013137D02*
X005419Y013933D01*
X005419Y013137D02*
X005123Y013137D01*
X005123Y013933D01*
X005419Y013933D01*
X005419Y013220D02*
X005123Y013220D01*
X005123Y013303D02*
X005419Y013303D01*
X005419Y013386D02*
X005123Y013386D01*
X005123Y013469D02*
X005419Y013469D01*
X005419Y013552D02*
X005123Y013552D01*
X005123Y013635D02*
X005419Y013635D01*
X005419Y013718D02*
X005123Y013718D01*
X005123Y013801D02*
X005419Y013801D01*
X005419Y013884D02*
X005123Y013884D01*
X005919Y013933D02*
X005919Y013137D01*
X005623Y013137D01*
X005623Y013933D01*
X005919Y013933D01*
X005919Y013220D02*
X005623Y013220D01*
X005623Y013303D02*
X005919Y013303D01*
X005919Y013386D02*
X005623Y013386D01*
X005623Y013469D02*
X005919Y013469D01*
X005919Y013552D02*
X005623Y013552D01*
X005623Y013635D02*
X005919Y013635D01*
X005919Y013718D02*
X005623Y013718D01*
X005623Y013801D02*
X005919Y013801D01*
X005919Y013884D02*
X005623Y013884D01*
X006419Y013933D02*
X006419Y013137D01*
X006123Y013137D01*
X006123Y013933D01*
X006419Y013933D01*
X006419Y013220D02*
X006123Y013220D01*
X006123Y013303D02*
X006419Y013303D01*
X006419Y013386D02*
X006123Y013386D01*
X006123Y013469D02*
X006419Y013469D01*
X006419Y013552D02*
X006123Y013552D01*
X006123Y013635D02*
X006419Y013635D01*
X006419Y013718D02*
X006123Y013718D01*
X006123Y013801D02*
X006419Y013801D01*
X006419Y013884D02*
X006123Y013884D01*
X006919Y013933D02*
X006919Y013137D01*
X006623Y013137D01*
X006623Y013933D01*
X006919Y013933D01*
X006919Y013220D02*
X006623Y013220D01*
X006623Y013303D02*
X006919Y013303D01*
X006919Y013386D02*
X006623Y013386D01*
X006623Y013469D02*
X006919Y013469D01*
X006919Y013552D02*
X006623Y013552D01*
X006623Y013635D02*
X006919Y013635D01*
X006919Y013718D02*
X006623Y013718D01*
X006623Y013801D02*
X006919Y013801D01*
X006919Y013884D02*
X006623Y013884D01*
X007419Y013933D02*
X007419Y013137D01*
X007123Y013137D01*
X007123Y013933D01*
X007419Y013933D01*
X007419Y013220D02*
X007123Y013220D01*
X007123Y013303D02*
X007419Y013303D01*
X007419Y013386D02*
X007123Y013386D01*
X007123Y013469D02*
X007419Y013469D01*
X007419Y013552D02*
X007123Y013552D01*
X007123Y013635D02*
X007419Y013635D01*
X007419Y013718D02*
X007123Y013718D01*
X007123Y013801D02*
X007419Y013801D01*
X007419Y013884D02*
X007123Y013884D01*
X007919Y013933D02*
X007919Y013137D01*
X007623Y013137D01*
X007623Y013933D01*
X007919Y013933D01*
X007919Y013220D02*
X007623Y013220D01*
X007623Y013303D02*
X007919Y013303D01*
X007919Y013386D02*
X007623Y013386D01*
X007623Y013469D02*
X007919Y013469D01*
X007919Y013552D02*
X007623Y013552D01*
X007623Y013635D02*
X007919Y013635D01*
X007919Y013718D02*
X007623Y013718D01*
X007623Y013801D02*
X007919Y013801D01*
X007919Y013884D02*
X007623Y013884D01*
X008419Y013933D02*
X008419Y013137D01*
X008123Y013137D01*
X008123Y013933D01*
X008419Y013933D01*
X008419Y013220D02*
X008123Y013220D01*
X008123Y013303D02*
X008419Y013303D01*
X008419Y013386D02*
X008123Y013386D01*
X008123Y013469D02*
X008419Y013469D01*
X008419Y013552D02*
X008123Y013552D01*
X008123Y013635D02*
X008419Y013635D01*
X008419Y013718D02*
X008123Y013718D01*
X008123Y013801D02*
X008419Y013801D01*
X008419Y013884D02*
X008123Y013884D01*
X008919Y013933D02*
X008919Y013137D01*
X008623Y013137D01*
X008623Y013933D01*
X008919Y013933D01*
X008919Y013220D02*
X008623Y013220D01*
X008623Y013303D02*
X008919Y013303D01*
X008919Y013386D02*
X008623Y013386D01*
X008623Y013469D02*
X008919Y013469D01*
X008919Y013552D02*
X008623Y013552D01*
X008623Y013635D02*
X008919Y013635D01*
X008919Y013718D02*
X008623Y013718D01*
X008623Y013801D02*
X008919Y013801D01*
X008919Y013884D02*
X008623Y013884D01*
X009419Y013933D02*
X009419Y013137D01*
X009123Y013137D01*
X009123Y013933D01*
X009419Y013933D01*
X009419Y013220D02*
X009123Y013220D01*
X009123Y013303D02*
X009419Y013303D01*
X009419Y013386D02*
X009123Y013386D01*
X009123Y013469D02*
X009419Y013469D01*
X009419Y013552D02*
X009123Y013552D01*
X009123Y013635D02*
X009419Y013635D01*
X009419Y013718D02*
X009123Y013718D01*
X009123Y013801D02*
X009419Y013801D01*
X009419Y013884D02*
X009123Y013884D01*
X009919Y013933D02*
X009919Y013137D01*
X009623Y013137D01*
X009623Y013933D01*
X009919Y013933D01*
X009919Y013220D02*
X009623Y013220D01*
X009623Y013303D02*
X009919Y013303D01*
X009919Y013386D02*
X009623Y013386D01*
X009623Y013469D02*
X009919Y013469D01*
X009919Y013552D02*
X009623Y013552D01*
X009623Y013635D02*
X009919Y013635D01*
X009919Y013718D02*
X009623Y013718D01*
X009623Y013801D02*
X009919Y013801D01*
X009919Y013884D02*
X009623Y013884D01*
X016669Y013933D02*
X016669Y013137D01*
X016373Y013137D01*
X016373Y013933D01*
X016669Y013933D01*
X016669Y013220D02*
X016373Y013220D01*
X016373Y013303D02*
X016669Y013303D01*
X016669Y013386D02*
X016373Y013386D01*
X016373Y013469D02*
X016669Y013469D01*
X016669Y013552D02*
X016373Y013552D01*
X016373Y013635D02*
X016669Y013635D01*
X016669Y013718D02*
X016373Y013718D01*
X016373Y013801D02*
X016669Y013801D01*
X016669Y013884D02*
X016373Y013884D01*
D29*
X015771Y012035D02*
X015771Y011535D01*
X015271Y011535D01*
X015271Y012035D01*
X015771Y012035D01*
X015771Y011615D02*
X015271Y011615D01*
X015271Y011695D02*
X015771Y011695D01*
X015771Y011775D02*
X015271Y011775D01*
X015271Y011855D02*
X015771Y011855D01*
X015771Y011935D02*
X015271Y011935D01*
X015271Y012015D02*
X015771Y012015D01*
X015771Y011035D02*
X015771Y010535D01*
X015271Y010535D01*
X015271Y011035D01*
X015771Y011035D01*
X015771Y010615D02*
X015271Y010615D01*
X015271Y010695D02*
X015771Y010695D01*
X015771Y010775D02*
X015271Y010775D01*
X015271Y010855D02*
X015771Y010855D01*
X015771Y010935D02*
X015271Y010935D01*
X015271Y011015D02*
X015771Y011015D01*
X015771Y010035D02*
X015771Y009535D01*
X015271Y009535D01*
X015271Y010035D01*
X015771Y010035D01*
X015771Y009615D02*
X015271Y009615D01*
X015271Y009695D02*
X015771Y009695D01*
X015771Y009775D02*
X015271Y009775D01*
X015271Y009855D02*
X015771Y009855D01*
X015771Y009935D02*
X015271Y009935D01*
X015271Y010015D02*
X015771Y010015D01*
X015771Y009035D02*
X015771Y008535D01*
X015271Y008535D01*
X015271Y009035D01*
X015771Y009035D01*
X015771Y008615D02*
X015271Y008615D01*
X015271Y008695D02*
X015771Y008695D01*
X015771Y008775D02*
X015271Y008775D01*
X015271Y008855D02*
X015771Y008855D01*
X015771Y008935D02*
X015271Y008935D01*
X015271Y009015D02*
X015771Y009015D01*
X006271Y009035D02*
X006271Y008535D01*
X005771Y008535D01*
X005771Y009035D01*
X006271Y009035D01*
X006271Y008615D02*
X005771Y008615D01*
X005771Y008695D02*
X006271Y008695D01*
X006271Y008775D02*
X005771Y008775D01*
X005771Y008855D02*
X006271Y008855D01*
X006271Y008935D02*
X005771Y008935D01*
X005771Y009015D02*
X006271Y009015D01*
X006271Y009535D02*
X006271Y010035D01*
X006271Y009535D02*
X005771Y009535D01*
X005771Y010035D01*
X006271Y010035D01*
X006271Y009615D02*
X005771Y009615D01*
X005771Y009695D02*
X006271Y009695D01*
X006271Y009775D02*
X005771Y009775D01*
X005771Y009855D02*
X006271Y009855D01*
X006271Y009935D02*
X005771Y009935D01*
X005771Y010015D02*
X006271Y010015D01*
X006271Y010535D02*
X006271Y011035D01*
X006271Y010535D02*
X005771Y010535D01*
X005771Y011035D01*
X006271Y011035D01*
X006271Y010615D02*
X005771Y010615D01*
X005771Y010695D02*
X006271Y010695D01*
X006271Y010775D02*
X005771Y010775D01*
X005771Y010855D02*
X006271Y010855D01*
X006271Y010935D02*
X005771Y010935D01*
X005771Y011015D02*
X006271Y011015D01*
X006271Y011535D02*
X006271Y012035D01*
X006271Y011535D02*
X005771Y011535D01*
X005771Y012035D01*
X006271Y012035D01*
X006271Y011615D02*
X005771Y011615D01*
X005771Y011695D02*
X006271Y011695D01*
X006271Y011775D02*
X005771Y011775D01*
X005771Y011855D02*
X006271Y011855D01*
X006271Y011935D02*
X005771Y011935D01*
X005771Y012015D02*
X006271Y012015D01*
D30*
X022308Y017156D02*
X022308Y017744D01*
X022542Y017744D01*
X022542Y017156D01*
X022308Y017156D01*
X022308Y017237D02*
X022542Y017237D01*
X022542Y017318D02*
X022308Y017318D01*
X022308Y017399D02*
X022542Y017399D01*
X022542Y017480D02*
X022308Y017480D01*
X022308Y017561D02*
X022542Y017561D01*
X022542Y017642D02*
X022308Y017642D01*
X022308Y017723D02*
X022542Y017723D01*
X022600Y018079D02*
X022012Y018079D01*
X022600Y018079D02*
X022600Y017845D01*
X022012Y017845D01*
X022012Y018079D01*
X022012Y017926D02*
X022600Y017926D01*
X022600Y018007D02*
X022012Y018007D01*
X022542Y018180D02*
X022542Y018768D01*
X022542Y018180D02*
X022308Y018180D01*
X022308Y018768D01*
X022542Y018768D01*
X022542Y018261D02*
X022308Y018261D01*
X022308Y018342D02*
X022542Y018342D01*
X022542Y018423D02*
X022308Y018423D01*
X022308Y018504D02*
X022542Y018504D01*
X022542Y018585D02*
X022308Y018585D01*
X022308Y018666D02*
X022542Y018666D01*
X022542Y018747D02*
X022308Y018747D01*
X022857Y018768D02*
X022857Y018180D01*
X022623Y018180D01*
X022623Y018768D01*
X022857Y018768D01*
X022857Y018261D02*
X022623Y018261D01*
X022623Y018342D02*
X022857Y018342D01*
X022857Y018423D02*
X022623Y018423D01*
X022623Y018504D02*
X022857Y018504D01*
X022857Y018585D02*
X022623Y018585D01*
X022623Y018666D02*
X022857Y018666D01*
X022857Y018747D02*
X022623Y018747D01*
X023171Y018768D02*
X023171Y018180D01*
X022937Y018180D01*
X022937Y018768D01*
X023171Y018768D01*
X023171Y018261D02*
X022937Y018261D01*
X022937Y018342D02*
X023171Y018342D01*
X023171Y018423D02*
X022937Y018423D01*
X022937Y018504D02*
X023171Y018504D01*
X023171Y018585D02*
X022937Y018585D01*
X022937Y018666D02*
X023171Y018666D01*
X023171Y018747D02*
X022937Y018747D01*
X023486Y018768D02*
X023486Y018180D01*
X023252Y018180D01*
X023252Y018768D01*
X023486Y018768D01*
X023486Y018261D02*
X023252Y018261D01*
X023252Y018342D02*
X023486Y018342D01*
X023486Y018423D02*
X023252Y018423D01*
X023252Y018504D02*
X023486Y018504D01*
X023486Y018585D02*
X023252Y018585D01*
X023252Y018666D02*
X023486Y018666D01*
X023486Y018747D02*
X023252Y018747D01*
X023801Y018768D02*
X023801Y018180D01*
X023567Y018180D01*
X023567Y018768D01*
X023801Y018768D01*
X023801Y018261D02*
X023567Y018261D01*
X023567Y018342D02*
X023801Y018342D01*
X023801Y018423D02*
X023567Y018423D01*
X023567Y018504D02*
X023801Y018504D01*
X023801Y018585D02*
X023567Y018585D01*
X023567Y018666D02*
X023801Y018666D01*
X023801Y018747D02*
X023567Y018747D01*
X024116Y018768D02*
X024116Y018180D01*
X023882Y018180D01*
X023882Y018768D01*
X024116Y018768D01*
X024116Y018261D02*
X023882Y018261D01*
X023882Y018342D02*
X024116Y018342D01*
X024116Y018423D02*
X023882Y018423D01*
X023882Y018504D02*
X024116Y018504D01*
X024116Y018585D02*
X023882Y018585D01*
X023882Y018666D02*
X024116Y018666D01*
X024116Y018747D02*
X023882Y018747D01*
X023823Y017845D02*
X024411Y017845D01*
X023823Y017845D02*
X023823Y018079D01*
X024411Y018079D01*
X024411Y017845D01*
X024411Y017926D02*
X023823Y017926D01*
X023823Y018007D02*
X024411Y018007D01*
X023882Y017744D02*
X023882Y017156D01*
X023882Y017744D02*
X024116Y017744D01*
X024116Y017156D01*
X023882Y017156D01*
X023882Y017237D02*
X024116Y017237D01*
X024116Y017318D02*
X023882Y017318D01*
X023882Y017399D02*
X024116Y017399D01*
X024116Y017480D02*
X023882Y017480D01*
X023882Y017561D02*
X024116Y017561D01*
X024116Y017642D02*
X023882Y017642D01*
X023882Y017723D02*
X024116Y017723D01*
X023567Y017744D02*
X023567Y017156D01*
X023567Y017744D02*
X023801Y017744D01*
X023801Y017156D01*
X023567Y017156D01*
X023567Y017237D02*
X023801Y017237D01*
X023801Y017318D02*
X023567Y017318D01*
X023567Y017399D02*
X023801Y017399D01*
X023801Y017480D02*
X023567Y017480D01*
X023567Y017561D02*
X023801Y017561D01*
X023801Y017642D02*
X023567Y017642D01*
X023567Y017723D02*
X023801Y017723D01*
X023252Y017744D02*
X023252Y017156D01*
X023252Y017744D02*
X023486Y017744D01*
X023486Y017156D01*
X023252Y017156D01*
X023252Y017237D02*
X023486Y017237D01*
X023486Y017318D02*
X023252Y017318D01*
X023252Y017399D02*
X023486Y017399D01*
X023486Y017480D02*
X023252Y017480D01*
X023252Y017561D02*
X023486Y017561D01*
X023486Y017642D02*
X023252Y017642D01*
X023252Y017723D02*
X023486Y017723D01*
X022937Y017744D02*
X022937Y017156D01*
X022937Y017744D02*
X023171Y017744D01*
X023171Y017156D01*
X022937Y017156D01*
X022937Y017237D02*
X023171Y017237D01*
X023171Y017318D02*
X022937Y017318D01*
X022937Y017399D02*
X023171Y017399D01*
X023171Y017480D02*
X022937Y017480D01*
X022937Y017561D02*
X023171Y017561D01*
X023171Y017642D02*
X022937Y017642D01*
X022937Y017723D02*
X023171Y017723D01*
X022623Y017744D02*
X022623Y017156D01*
X022623Y017744D02*
X022857Y017744D01*
X022857Y017156D01*
X022623Y017156D01*
X022623Y017237D02*
X022857Y017237D01*
X022857Y017318D02*
X022623Y017318D01*
X022623Y017399D02*
X022857Y017399D01*
X022857Y017480D02*
X022623Y017480D01*
X022623Y017561D02*
X022857Y017561D01*
X022857Y017642D02*
X022623Y017642D01*
X022623Y017723D02*
X022857Y017723D01*
D31*
X017074Y015005D02*
X017074Y013833D01*
X017074Y015005D02*
X019428Y015005D01*
X019428Y013833D01*
X017074Y013833D01*
X017074Y013920D02*
X019428Y013920D01*
X019428Y014007D02*
X017074Y014007D01*
X017074Y014094D02*
X019428Y014094D01*
X019428Y014181D02*
X017074Y014181D01*
X017074Y014268D02*
X019428Y014268D01*
X019428Y014355D02*
X017074Y014355D01*
X017074Y014442D02*
X019428Y014442D01*
X019428Y014529D02*
X017074Y014529D01*
X017074Y014616D02*
X019428Y014616D01*
X019428Y014703D02*
X017074Y014703D01*
X017074Y014790D02*
X019428Y014790D01*
X019428Y014877D02*
X017074Y014877D01*
X017074Y014964D02*
X019428Y014964D01*
X016672Y014620D02*
X015500Y014620D01*
X015500Y016974D01*
X016672Y016974D01*
X016672Y014620D01*
X016672Y014707D02*
X015500Y014707D01*
X015500Y014794D02*
X016672Y014794D01*
X016672Y014881D02*
X015500Y014881D01*
X015500Y014968D02*
X016672Y014968D01*
X016672Y015055D02*
X015500Y015055D01*
X015500Y015142D02*
X016672Y015142D01*
X016672Y015229D02*
X015500Y015229D01*
X015500Y015316D02*
X016672Y015316D01*
X016672Y015403D02*
X015500Y015403D01*
X015500Y015490D02*
X016672Y015490D01*
X016672Y015577D02*
X015500Y015577D01*
X015500Y015664D02*
X016672Y015664D01*
X016672Y015751D02*
X015500Y015751D01*
X015500Y015838D02*
X016672Y015838D01*
X016672Y015925D02*
X015500Y015925D01*
X015500Y016012D02*
X016672Y016012D01*
X016672Y016099D02*
X015500Y016099D01*
X015500Y016186D02*
X016672Y016186D01*
X016672Y016273D02*
X015500Y016273D01*
X015500Y016360D02*
X016672Y016360D01*
X016672Y016447D02*
X015500Y016447D01*
X015500Y016534D02*
X016672Y016534D01*
X016672Y016621D02*
X015500Y016621D01*
X015500Y016708D02*
X016672Y016708D01*
X016672Y016795D02*
X015500Y016795D01*
X015500Y016882D02*
X016672Y016882D01*
X016672Y016969D02*
X015500Y016969D01*
X008404Y014620D02*
X007232Y014620D01*
X007232Y016974D01*
X008404Y016974D01*
X008404Y014620D01*
X008404Y014707D02*
X007232Y014707D01*
X007232Y014794D02*
X008404Y014794D01*
X008404Y014881D02*
X007232Y014881D01*
X007232Y014968D02*
X008404Y014968D01*
X008404Y015055D02*
X007232Y015055D01*
X007232Y015142D02*
X008404Y015142D01*
X008404Y015229D02*
X007232Y015229D01*
X007232Y015316D02*
X008404Y015316D01*
X008404Y015403D02*
X007232Y015403D01*
X007232Y015490D02*
X008404Y015490D01*
X008404Y015577D02*
X007232Y015577D01*
X007232Y015664D02*
X008404Y015664D01*
X008404Y015751D02*
X007232Y015751D01*
X007232Y015838D02*
X008404Y015838D01*
X008404Y015925D02*
X007232Y015925D01*
X007232Y016012D02*
X008404Y016012D01*
X008404Y016099D02*
X007232Y016099D01*
X007232Y016186D02*
X008404Y016186D01*
X008404Y016273D02*
X007232Y016273D01*
X007232Y016360D02*
X008404Y016360D01*
X008404Y016447D02*
X007232Y016447D01*
X007232Y016534D02*
X008404Y016534D01*
X008404Y016621D02*
X007232Y016621D01*
X007232Y016708D02*
X008404Y016708D01*
X008404Y016795D02*
X007232Y016795D01*
X007232Y016882D02*
X008404Y016882D01*
X008404Y016969D02*
X007232Y016969D01*
X017074Y006737D02*
X017074Y005565D01*
X017074Y006737D02*
X019428Y006737D01*
X019428Y005565D01*
X017074Y005565D01*
X017074Y005652D02*
X019428Y005652D01*
X019428Y005739D02*
X017074Y005739D01*
X017074Y005826D02*
X019428Y005826D01*
X019428Y005913D02*
X017074Y005913D01*
X017074Y006000D02*
X019428Y006000D01*
X019428Y006087D02*
X017074Y006087D01*
X017074Y006174D02*
X019428Y006174D01*
X019428Y006261D02*
X017074Y006261D01*
X017074Y006348D02*
X019428Y006348D01*
X019428Y006435D02*
X017074Y006435D01*
X017074Y006522D02*
X019428Y006522D01*
X019428Y006609D02*
X017074Y006609D01*
X017074Y006696D02*
X019428Y006696D01*
X016672Y005950D02*
X015500Y005950D01*
X016672Y005950D02*
X016672Y003596D01*
X015500Y003596D01*
X015500Y005950D01*
X015500Y003683D02*
X016672Y003683D01*
X016672Y003770D02*
X015500Y003770D01*
X015500Y003857D02*
X016672Y003857D01*
X016672Y003944D02*
X015500Y003944D01*
X015500Y004031D02*
X016672Y004031D01*
X016672Y004118D02*
X015500Y004118D01*
X015500Y004205D02*
X016672Y004205D01*
X016672Y004292D02*
X015500Y004292D01*
X015500Y004379D02*
X016672Y004379D01*
X016672Y004466D02*
X015500Y004466D01*
X015500Y004553D02*
X016672Y004553D01*
X016672Y004640D02*
X015500Y004640D01*
X015500Y004727D02*
X016672Y004727D01*
X016672Y004814D02*
X015500Y004814D01*
X015500Y004901D02*
X016672Y004901D01*
X016672Y004988D02*
X015500Y004988D01*
X015500Y005075D02*
X016672Y005075D01*
X016672Y005162D02*
X015500Y005162D01*
X015500Y005249D02*
X016672Y005249D01*
X016672Y005336D02*
X015500Y005336D01*
X015500Y005423D02*
X016672Y005423D01*
X016672Y005510D02*
X015500Y005510D01*
X015500Y005597D02*
X016672Y005597D01*
X016672Y005684D02*
X015500Y005684D01*
X015500Y005771D02*
X016672Y005771D01*
X016672Y005858D02*
X015500Y005858D01*
X015500Y005945D02*
X016672Y005945D01*
X008404Y005950D02*
X007232Y005950D01*
X008404Y005950D02*
X008404Y003596D01*
X007232Y003596D01*
X007232Y005950D01*
X007232Y003683D02*
X008404Y003683D01*
X008404Y003770D02*
X007232Y003770D01*
X007232Y003857D02*
X008404Y003857D01*
X008404Y003944D02*
X007232Y003944D01*
X007232Y004031D02*
X008404Y004031D01*
X008404Y004118D02*
X007232Y004118D01*
X007232Y004205D02*
X008404Y004205D01*
X008404Y004292D02*
X007232Y004292D01*
X007232Y004379D02*
X008404Y004379D01*
X008404Y004466D02*
X007232Y004466D01*
X007232Y004553D02*
X008404Y004553D01*
X008404Y004640D02*
X007232Y004640D01*
X007232Y004727D02*
X008404Y004727D01*
X008404Y004814D02*
X007232Y004814D01*
X007232Y004901D02*
X008404Y004901D01*
X008404Y004988D02*
X007232Y004988D01*
X007232Y005075D02*
X008404Y005075D01*
X008404Y005162D02*
X007232Y005162D01*
X007232Y005249D02*
X008404Y005249D01*
X008404Y005336D02*
X007232Y005336D01*
X007232Y005423D02*
X008404Y005423D01*
X008404Y005510D02*
X007232Y005510D01*
X007232Y005597D02*
X008404Y005597D01*
X008404Y005684D02*
X007232Y005684D01*
X007232Y005771D02*
X008404Y005771D01*
X008404Y005858D02*
X007232Y005858D01*
X007232Y005945D02*
X008404Y005945D01*
D32*
X006007Y008789D03*
X006007Y009773D03*
X006007Y010797D03*
X006007Y011781D03*
X015535Y011781D03*
X015535Y010797D03*
X015535Y009773D03*
X015535Y008789D03*
M02*
